<svg width="127" height="42" viewBox="0 0 127 42" xmlns="http://www.w3.org/2000/svg"><g><path class="coursera" fill="#B7B9BB" fill-rule="nonzero" d="M63.83 17.789c.078-1.493.613-2.712 1.45-3.663v-1.268h-1.112c-2.246 0-4.148.86-5.253 2.806h-.065v-2.592h-5.76v15.806h5.762v-6.381c0-2.708.792-4.773 3.99-4.773.348.002.673.022.988.065zM107.456 17.731a9.388 9.388 0 012.264-3.64v-1.234h-1.11c-2.246 0-4.145.86-5.257 2.804h-.062v-2.589h-5.764v15.806h5.764v-6.381c0-2.708.795-4.773 3.992-4.773l.173.007zM75.532 17.138c-.889-.462-2.126-.77-3.11-.77-.661 0-1.803.275-1.803 1.078 0 1.08 1.803 1.233 2.6 1.39 2.686.522 4.718 1.756 4.718 4.68 0 4.157-3.896 5.888-7.667 5.888-2.313 0-4.589-.648-6.555-1.819l2.09-3.916c1.17.805 3.134 1.603 4.559 1.603.729 0 1.805-.337 1.805-1.2 0-1.233-1.805-1.297-3.613-1.758-1.802-.463-3.605-1.323-3.605-4.158 0-3.883 3.605-5.606 7.16-5.606 1.836 0 3.674.276 5.348 1.016l-1.927 3.572zM127 28.878h-5.762V27.12h-.064c-1.013 1.57-3.012 2.279-4.909 2.279-4.817 0-8.202-3.914-8.202-8.444 0-4.525 3.325-8.409 8.137-8.409 1.868 0 3.834.678 5.037 2.063v-1.537h5.76L127 28.878zm-12.983-7.889c0 2.002 1.364 3.542 3.704 3.542 2.342 0 3.7-1.538 3.7-3.542 0-1.941-1.358-3.573-3.7-3.573-2.34.001-3.704 1.632-3.704 3.573zM96.618 21.916H84.486c0 2.278 1.238 3.51 3.612 3.51 1.235 0 2.12-.4 2.755-1.448h5.544c-.919 3.728-4.562 5.423-8.266 5.423-5.38 0-9.402-2.96-9.402-8.41 0-5.268 3.701-8.441 8.99-8.441 5.635 0 8.901 3.39 8.901 8.78l-.002.586zm-5.353-3.237c-.286-1.51-1.711-2.496-3.261-2.496-1.68 0-3.068.86-3.422 2.496h6.683zM34.762 20.714c-.006-.136-.016-.269-.026-.404v-.003-.002a8.687 8.687 0 00-1.436-4.078 8.916 8.916 0 00-3.63-3.142c-1.347-.643-2.834-.968-4.422-.968a10.673 10.673 0 00-3.688.643c-1.021.37-1.911.858-2.64 1.443-.148.118-.309.262-.481.421l-.125.122-.17.182h.002l-.08.078-.04.043-.202.214c-.151.17-.294.338-.429.504v-.002l-.005-.005c-.28.339-.537.69-.726 1.004-.128.203-.254.41-.374.619l-1.661 3.36.002.002-.087.17-.184.372c-.364.737-.755 1.472-1.19 2.079-.973 1.067-2.073 1.589-3.486 1.589-.099 0-.2-.005-.304-.01-.851-.035-1.581-.236-2.23-.62a4.19 4.19 0 01-.2-.126 3.721 3.721 0 01-1.239-1.367 3.854 3.854 0 01-.472-1.982l.002-.051c.046-1.1.466-1.957 1.311-2.696a4.543 4.543 0 01.741-.515c.628-.343 1.343-.513 2.163-.513l.255.007c1.302.05 2.306.456 3.107 1.25l2.511-4.51a9.898 9.898 0 00-2.027-1.029c-.028-.01-.058-.022-.087-.031-.09-.032-.178-.065-.27-.095a10.744 10.744 0 00-2.486-.503l-.066-.008c-.132-.008-.266-.025-.398-.03a13.21 13.21 0 00-.429-.01h-.081c-1.58.006-3.047.33-4.389.97a8.943 8.943 0 00-3.624 3.139A8.7 8.7 0 00.01 20.712c-.005.139-.009.276-.009.412-.001 2.264.824 4.256 2.466 5.929 1.713 1.754 3.942 2.7 6.617 2.811.172.007.34.012.51.012 1.514 0 2.914-.27 4.17-.808.314-.134.619-.292.93-.467.17-.097.33-.2.488-.311l.118-.08.197-.134c.238-.17.46-.356.677-.552l.075-.072c.127-.12.254-.243.374-.369l.45-.509.172-.215.08-.118.08-.115c.669-1.124 2.847-5.215 2.847-5.215v-.009l.129-.249.108-.195c.321-.584.553-1 .86-1.436l.008-.013c.716-1.038 1.947-1.778 3.398-1.902 2.435-.21 4.568 1.39 4.764 3.572.195 2.183-1.62 4.122-4.055 4.332-.506.044-.999.01-1.464-.093l-.011.005c-1.787-.372-2.924-1.675-3.485-2.257l-2.342 4.308s.728.734 1.226 1.1c.5.366 1.146.726 1.66.95 1.25.533 2.61.853 4.112.853.174 0 .139 0 .32-.007 2.673-.112 5.055-1.136 6.773-2.89 1.628-1.667 2.51-3.57 2.519-5.821v-.067c-.001-.125-.005-.25-.01-.378zM43.722 29.411c-1.215 0-2.316-.14-3.305-.423-.99-.282-1.834-.728-2.533-1.34-.702-.61-1.243-1.39-1.624-2.333-.381-.945-.572-2.083-.572-3.41v-8.837h5.559v8.767c0 .994.237 1.713.711 2.163.475.45 1.079.674 1.81.674.748 0 1.355-.209 1.823-.629.465-.42.7-1.116.7-2.094v-8.88h5.56v8.72c0 1.374-.196 2.541-.585 3.502-.39.962-.939 1.747-1.645 2.359-.71.611-1.566 1.056-2.571 1.34-1.005.28-2.114.421-3.328.421z"/></g></svg>
