<svg width="127" height="42" viewBox="0 0 127 42" xmlns="http://www.w3.org/2000/svg"><path class="coursera" d="M41.711 12.006v9.91c0 2.19 1.22 3.484 3.34 3.484 2.37 0 3.731-1.437 3.731-4.202v-9.192H53.2V29.06h-4.413v-1.975c-1.04 1.615-2.729 2.406-5.063 2.406-3.95 0-6.426-2.872-6.426-7.037v-10.45h4.414zm47.435-.323c5.027.01 8.574 4.037 8.562 8.782 0 .469-.036.937-.11 1.4L84.6 21.841c.499 2.047 2.184 3.522 4.734 3.528 1.543 0 3.196-.569 4.204-1.86l3.012 2.415c-1.55 2.188-4.281 3.476-7.188 3.47-5.131-.017-9.074-3.867-9.066-8.858.01-4.776 3.429-8.863 8.85-8.853zm28.025 0c2.693 0 4.237.826 5.278 2.406l.414-2.085h4.038V29.06h-4.038l-.521-1.756c-1.185 1.293-2.658 2.086-5.17 2.086-3.879-.006-8.296-3.417-8.296-8.731 0-5.35 4.345-8.977 8.295-8.977zm-90.489 0c5.063 0 9.084 3.952 9.084 8.833 0 4.847-4.021 8.87-9.084 8.87-5.027 0-9.048-4.027-9.048-8.87 0-4.883 4.02-8.833 9.048-8.833zm45.416-.108c2.847 0 5.37 1.26 6.74 3.603l-3.89 2.058c-.577-1.153-1.658-1.802-3.028-1.802-1.332 0-1.982.469-1.982 1.261 0 2.668 9.298.974 9.298 7.355 0 3.316-2.702 5.333-7.063 5.333-3.713-.003-6.308-1.228-7.604-4.04l3.925-2.054c.65 1.406 1.947 2.235 3.785 2.235 1.694 0 2.343-.54 2.343-1.298 0-2.744-9.299-1.08-9.299-7.354 0-3.46 3.028-5.297 6.775-5.297zm-62.951.072a9.11 9.11 0 017.647 4.061l-3.77 2.187a4.713 4.713 0 00-3.877-2.011c-2.585 0-4.704 2.155-4.704 4.632 0 2.478 2.119 4.632 4.704 4.632a4.66 4.66 0 003.985-2.195l3.733 2.226a9.105 9.105 0 01-7.419 4.199l-.301.003C4.12 29.385.099 25.359.099 20.516c0-4.918 4.02-8.869 9.048-8.869zm55.396-.081l-.815 4.122a4.287 4.287 0 00-.452-.026c-2.369.006-3.73 1.445-3.724 4.209l.024 9.19-4.416.01-.037-17.055 4.416-.01v1.976c1.028-1.605 2.699-2.398 5.004-2.416zm44.374.012l-.819 4.117a4.604 4.604 0 00-.452-.025c-2.367 0-3.732 1.436-3.732 4.2v9.191h-4.416V12.005h4.416v1.976c1.033-1.602 2.701-2.391 5.003-2.403zM26.682 15.92c-2.585 0-4.703 2.155-4.703 4.596 0 2.478 2.118 4.632 4.703 4.632 2.626 0 4.74-2.154 4.74-4.632 0-2.441-2.119-4.596-4.74-4.596zm91.244.002a4.72 4.72 0 00-4.702 4.738c0 2.37 2.119 4.488 4.705 4.488 2.618 0 4.735-2.118 4.735-4.524a4.72 4.72 0 00-4.738-4.702zm-28.823-.217c-2.047 0-3.7 1.214-4.35 3.044l8.51.015c-.249-1.723-2.041-3.056-4.16-3.059z" fill="#B7B9BB" fill-rule="nonzero"/></svg>
