<svg width="102" height="42" viewBox="0 0 102 42" xmlns="http://www.w3.org/2000/svg"><g fill="none" fill-rule="nonzero"><path class="issuu-text" d="M32.663 28.69c-.958 0-1.61-.72-1.61-1.61V14.883c0-.89.687-1.61 1.61-1.61.926 0 1.61.72 1.61 1.61V27.08c0 .891-.65 1.61-1.61 1.61zm0-21.515c1.029 0 1.885.857 1.885 1.884a1.9 1.9 0 01-1.885 1.884 1.9 1.9 0 01-1.883-1.884 1.9 1.9 0 011.883-1.884zm11.615 21.651c-2.159 0-4.077-.684-5.447-1.746-.48-.377-.686-.892-.686-1.336 0-.686.548-1.131 1.234-1.131.547 0 .89.205 1.267.48.926.685 2.227 1.335 3.872 1.335 1.85 0 2.844-.684 2.844-1.747 0-1.164-.96-1.61-3.36-2.261-4.218-1.13-5.76-2.57-5.76-5.036 0-2.57 2.365-4.248 6.061-4.248 1.406 0 2.976.343 4.245.96.926.444 1.577.992 1.577 1.678 0 .617-.343 1.2-1.234 1.2-.446 0-.892-.206-1.406-.482-.96-.514-2.023-.785-3.257-.785-1.714 0-2.88.445-2.88 1.642 0 1.166 1.028 1.542 3.494 2.262 3.701 1.063 5.62 2.057 5.62 4.834 0 2.537-2.124 4.389-6.201 4.389m15.51 0c-2.16 0-4.077-.679-5.448-1.742-.48-.377-.686-.891-.686-1.337 0-.686.549-1.131 1.235-1.131.548 0 .891.205 1.268.48.922.685 2.223 1.337 3.868 1.337 1.851 0 2.845-.686 2.845-1.749 0-1.166-.96-1.611-3.358-2.263-4.217-1.124-5.76-2.564-5.76-5.033 0-2.564 2.366-4.244 6.065-4.244 1.406 0 2.982.342 4.25.96.926.445 1.577.994 1.577 1.68 0 .617-.343 1.2-1.234 1.2-.446 0-.892-.206-1.401-.48-.958-.515-2.023-.786-3.255-.786-1.71 0-2.875.446-2.875 1.645 0 1.165 1.029 1.543 3.496 2.263 3.701 1.062 5.62 2.057 5.62 4.831 0 2.537-2.124 4.386-6.199 4.386m9.312-7.166v-6.788c0-.892.72-1.612 1.612-1.612.891 0 1.611.72 1.611 1.612v7.159c0 2.16 1.677 3.837 3.94 3.837 2.262 0 3.975-1.682 3.975-3.842v-7.165c0-.892.72-1.612 1.611-1.612s1.611.72 1.611 1.612v6.781c0 4.008-3.046 7.16-7.193 7.16-4.141 0-7.159-3.152-7.159-7.16m17.922 0v-6.783a1.61 1.61 0 013.22-.006v7.159c0 2.16 1.68 3.84 3.94 3.84 2.263 0 3.976-1.68 3.976-3.84v-7.158a1.61 1.61 0 113.22 0v6.784c0 4.006-3.045 7.158-7.193 7.158-4.144 0-7.16-3.152-7.16-7.158" fill="#B7B9BB"/><path class="issuu-glyph" d="M11.847 7.11c6.475 0 11.724 5.248 11.724 11.723 0 6.476-5.248 11.725-11.724 11.725-6.475 0-11.724-5.25-11.724-11.725V8.083c0-.536.44-.973.974-.973zm.163 3.499a8.142 8.142 0 00-8.218 8.062 8.147 8.147 0 008.065 8.218 8.14 8.14 0 10.153-16.28zm-.03 2.217l.223.007a5.968 5.968 0 015.687 6.014 5.96 5.96 0 01-6.014 5.908 5.968 5.968 0 01-5.909-6.02 5.967 5.967 0 016.02-5.908l-.007-.001zm-.02 2.945a3.02 3.02 0 10-.056 6.04 3.015 3.015 0 003.048-2.989 3.027 3.027 0 00-2.991-3.051z" fill="#B7B9BB"/></g></svg>
