<svg width="161" height="42" viewBox="0 0 161 42" xmlns="http://www.w3.org/2000/svg"><path class="photobox" d="M7.7 21.638H2.638v5.439a1.287 1.287 0 01-1.346 1.292A1.276 1.276 0 010 27.077v-14a1.277 1.277 0 011.292-1.292H7.7c3.823 0 5.6 2.369 5.6 4.953 0 2.585-1.777 4.9-5.6 4.9zm.377-7.43H2.692v5.007h5.385a2.402 2.402 0 002.585-2.477 2.44 2.44 0 00-2.585-2.53zM31.5 28.423a1.277 1.277 0 01-1.292-1.292V21.1h-8.131v5.977a1.244 1.244 0 01-1.292 1.292 1.276 1.276 0 01-1.293-1.292v-14a1.292 1.292 0 012.585 0v5.6h8.13v-5.6a1.292 1.292 0 112.585 0v14a1.287 1.287 0 01-1.292 1.346zm46.362-14.161h-4.793v12.815a1.335 1.335 0 01-1.346 1.346 1.287 1.287 0 01-1.292-1.346V14.262h-4.793a1.238 1.238 0 010-2.477h12.224a1.238 1.238 0 110 2.477zM91.054 28.53a8.287 8.287 0 01-8.239-8.454 8.244 8.244 0 118.239 8.454zm0-14.431c-3.392 0-5.654 2.8-5.654 6.03 0 3.232 2.262 6.032 5.654 6.032s5.654-2.8 5.654-6.031-2.262-6.031-5.654-6.031zm22.454 14.323h-6.193a1.336 1.336 0 01-1.346-1.346V13.13a1.336 1.336 0 011.346-1.346h5.762c3.177 0 5.061 1.669 5.061 4.092 0 1.615-.7 3.015-1.992 3.661a4.308 4.308 0 012.962 4.254c.054 2.585-2.046 4.631-5.6 4.631zm-.216-14.161h-4.577v4.2h4.577a2.1 2.1 0 000-4.2zm.593 6.569h-5.17v5.115h5.17a2.52 2.52 0 002.638-2.53 2.563 2.563 0 00-2.638-2.585zm19.492 7.7a8.287 8.287 0 01-8.239-8.454 8.244 8.244 0 118.239 8.454zm0-14.431c-3.392 0-5.654 2.8-5.654 6.03 0 3.232 2.262 6.032 5.654 6.032s5.654-2.8 5.654-6.031-2.262-6.031-5.654-6.031zm27.192 14.108c-.216.167-.48.262-.754.269-.396 0-.771-.178-1.023-.485l-4.469-5.923-4.47 5.923c-.237.294-.59.471-.968.485a1.287 1.287 0 01-.754-.27 1.152 1.152 0 01-.431-.915c-.018-.277.08-.55.27-.754l4.845-6.407-4.846-6.408a1.287 1.287 0 01-.269-.754 1.13 1.13 0 01.538-.969 1.53 1.53 0 01.647-.215c.383-.01.747.171.969.484l4.415 5.87 4.47-5.87a1.2 1.2 0 01.915-.484c.273.007.537.101.754.269.294.238.47.591.484.97.002.258-.094.508-.269.7l-4.846 6.353 4.9 6.408c.16.22.253.482.27.753.04.366-.101.728-.378.97zM47.115 6.508c0 .754.485 2.584.7 4.2.216 1.615.216 2.961.862 2.961.43 0 .7-.323.7-.861 0-.539.485-2.477.485-4.146 0-.539.215-.647.215-1.454C50.077 6.4 49.754 5 48.462 5a1.384 1.384 0 00-1.347 1.508zm6.085 10.5c1.562 0 4.362-2.8 5.008-3.016a1.852 1.852 0 001.077-.807c.232-.42.654-.701 1.13-.754.377-.162 1.023-.485 1.023-.97 0-.484-.215-.646-.538-.646-2.1 0-8.938 3.177-8.938 5.116a1.19 1.19 0 001.238 1.077zm-1.992 4.846c0 1.077 1.023.754 1.13 1.83.108.862 1.024 1.94 1.616 2.424 1.077.807 1.454 2.8 3.015 2.8a.9.9 0 001.023-.916c0-2.315-4.361-6.892-6.138-6.892-.377 0-.646.215-.646.754zM38.715 32.3c0 .7.162 1.185.97 1.185 1.507 0 2.369-2.747 3.715-5.277 1.185-2.262 1.938-3.016 2.585-4.631.269-.754 1.023-.485 1.023-1.239 0-.484-.377-.646-.808-.646-2.154 0-7.485 8.4-7.485 10.608zm4.2-15.185c.862 0 2.154 1.023 2.154-.053 0-1.508-3.661-3.447-5.492-3.447-.754 0-1.13.377-1.13.916.053 2.207 3.66 2.584 4.468 2.584z" fill="#B7B9BB" fill-rule="nonzero"/></svg>
