<svg width="99" height="42" viewBox="0 0 99 42" xmlns="http://www.w3.org/2000/svg"><g><path class="zulip" fill="#B7B9BB" fill-rule="nonzero" d="M16 4.141c8.758 0 15.859 7.1 15.859 15.859 0 8.758-7.1 15.859-15.859 15.859C7.242 35.859.141 28.759.141 20c0-8.758 7.1-15.859 15.859-15.859zm4.94 7.903H9.4l1.611 3.55 6.421-.001-8.076 8.167 1.808 3.855H22.77L20.92 23.76H14.78l7.86-8.21-1.7-3.506zM52.376 27v-2.09h-6.805l6.762-10.369v-1.493H43.14v2.09h6.122L42.52 25.508V27h9.856zm8.261.256c3.243 0 5.27-1.792 5.27-6.379v-7.829h-2.368v8.021c0 3.03-1.195 4.032-2.902 4.032-1.685 0-2.816-1.002-2.816-4.032v-8.021h-2.474v7.83c0 4.586 2.069 6.378 5.29 6.378zM78.328 27v-2.09h-5.803V13.047h-2.474V27h8.277zm5.573 0V13.048h-2.474V27H83.9zm6.683 0v-5.12h2.005c3.008 0 5.312-1.43 5.312-4.523 0-3.242-2.304-4.309-5.397-4.309h-4.395V27h2.475zm1.813-7.104h-1.813v-4.864h1.728c2.07 0 3.157.576 3.157 2.325 0 1.707-1.002 2.539-3.072 2.539z"/></g></svg>
