<?xml version="1.0" encoding="UTF-8" standalone="no"?>
<!DOCTYPE svg PUBLIC "-//W3C//DTD SVG 1.1//EN" "http://www.w3.org/Graphics/SVG/1.1/DTD/svg11.dtd" >
<svg xmlns="http://www.w3.org/2000/svg">
<metadata>
Generated by SVGconv.
Copyright   : Copyright (c) 2018 Paratype, Inc., ParaType Ltd. All rights reserved.
Designer    : Vitaly Kuzmin
Foundry     : ParaType Ltd.
Foundry URL : http://www.paratype.com
</metadata>
<defs>
<font id="PTRootUIWeb-Bold" horiz-adv-x="541" >
<font-face units-per-em="1000" ascent="991" descent="269" >
<font-face-src>
<font-face-name/>
</font-face-src>
</font-face>
<missing-glyph horiz-adv-x="650" />
<glyph unicode="&#13;" horiz-adv-x="250" />
<glyph unicode="&#32;" horiz-adv-x="250" />
<glyph unicode="&#33;" horiz-adv-x="300" d="M150 -9q-35 0 -57.5 23.5q-22.5 23.5 -22.5 56.5q0 33 22.5 56.5q22.5 23.5 57.5 23.5q35 0 57.5 -23.5q22.5 -23.5 22.5 -56.5q0 -33 -22.5 -56.5q-22.5 -23.5 -57.5 -23.5zt0 0zM90 700h120v-500l-120 0z" />
<glyph unicode="&#34;" horiz-adv-x="400" d="M240 700h120v-260h-120zM40 700h120v-260l-120 0z" />
<glyph unicode="&#35;" horiz-adv-x="590" d="M328 190h-123l-34 -190h-104l34 190h-96l19 100h95l25 140h-94l18 100h94l30 170h104l-30 -170h123l30 170h104l-30 -170h92l-18 -100h-92l-25 -140h90l-17 -100h-91l-34 -190h-104zM223 290h123l25 140l-123 0z" />
<glyph unicode="&#36;" horiz-adv-x="610" d="M251 -6q-103 11 -153.5 70q-50.5 59 -57.5 171l128 0q4 -58 23 -88.5q19 -30.5 60 -41.5l0 211q-38 10 -74 24q-36 14 -64 36.5q-28 22.5 -45.5 55.5q-17.5 33 -17.5 82q0 37 12.5 69.5q12.5 32.5 37.5 57.5q25 25 62.5 42q37.5 17 88.5 23l0 94h106v-94q100 -11 148 -66q48 -55 55 -155l-128 0q-5 48 -21.5 74.5q-16.5 26.5 -53.5 35.5l0 -192q39 -11 77 -24.5q38 -13.5 68 -37q30 -23.5 49 -58.5q19 -35 19 -88q0 -82 -52 -136q-52 -54 -161 -65l0 -94h-106zM444 197q0 35 -24.5 55q-24.5 20 -62.5 34l0 -182q45 10 66 34.5q21 24.5 21 58.5zt0 0zM176 513q0 -32 21 -50q21 -18 54 -30l0 162q-39 -9 -57 -31t-18 -51z" />
<glyph unicode="&#37;" horiz-adv-x="900" d="M195 341q-40 0 -72 12.5q-32 12.5 -55 34.5q-23 22 -35.5 52.5q-12.5 30.5 -12.5 67.5v34q0 37 12.5 67.5q12.5 30.5 35.5 52.5q23 22 55 34.5q32 12.5 72 12.5q40 0 72 -12.5q32 -12.5 55 -34.5q23 -22 35.5 -52.5q12.5 -30.5 12.5 -67.5v-34q0 -37 -12.5 -67.5q-12.5 -30.5 -35.5 -52.5q-23 -22 -55 -34.5q-32 -12.5 -72 -12.5zt0 0zM195 427q33 0 53.5 21.5q20.5 21.5 20.5 59.5v34q0 38 -20.5 59.5q-20.5 21.5 -53.5 21.5q-34 0 -54.5 -21.5q-20.5 -21.5 -20.5 -59.5v-34q0 -38 20.5 -59.5q20.5 -21.5 54.5 -21.5zt0 0zM705 -9q-40 0 -72 12.5q-32 12.5 -55 34.5q-23 22 -35.5 52.5q-12.5 30.5 -12.5 67.5v34q0 37 12.5 67.5q12.5 30.5 35.5 52.5q23 22 55 34.5q32 12.5 72 12.5q40 0 72 -12.5q32 -12.5 55 -34.5q23 -22 35.5 -52.5q12.5 -30.5 12.5 -67.5v-34q0 -37 -12.5 -67.5q-12.5 -30.5 -35.5 -52.5q-23 -22 -55 -34.5q-32 -12.5 -72 -12.5zt0 0zM705 77q33 0 53.5 21.5q20.5 21.5 20.5 59.5v34q0 38 -20.5 59.5q-20.5 21.5 -53.5 21.5q-34 0 -54.5 -21.5q-20.5 -21.5 -20.5 -59.5v-34q0 -38 20.5 -59.5q20.5 -21.5 54.5 -21.5zt0 0zM600 700h110l-410 -700l-110 0z" />
<glyph unicode="&#38;" horiz-adv-x="640" d="M456 57q-40 -32 -88 -49q-48 -17 -103 -17q-53 0 -94.5 14.5q-41.5 14.5 -70.5 40.5q-29 26 -44.5 61.5q-15.5 35.5 -15.5 77.5q0 23 4.5 46q4.5 23 17.5 47q13 24 35 49q22 25 58 53q-26 29 -41.5 51q-15.5 22 -24 41q-8.5 19 -11.5 37.5q-3 18.5 -3 40.5q0 34 12.5 63q12.5 29 36 50.5q23.5 21.5 57 33.5q33.5 12 74.5 12q42 0 75.5 -12q33.5 -12 56.5 -33.5q23 -21.5 35.5 -50.5q12.5 -29 12.5 -63q0 -20 -4.5 -40.5q-4.5 -20.5 -17.5 -43q-13 -22.5 -36.5 -47q-23.5 -24.5 -61.5 -52.5l127 -135q7 21 11 45.5q4 24.5 4 52.5l118 0q0 -55 -12.5 -102.5q-12.5 -47.5 -35.5 -86.5l133 -141h-150zM270 95q60 0 111 43l-155 166q-23 -19 -36.5 -34.5q-13.5 -15.5 -20.5 -29.5q-7 -14 -9 -27.5q-2 -13.5 -2 -27.5q0 -36 29.5 -63q29.5 -27 82.5 -27zt0 0zM193 550q0 -13 1.5 -24q1.5 -11 7 -23q5.5 -12 15.5 -26q10 -14 27 -33q26 19 40.5 34q14.5 15 22 27q7.5 12 9 23q1.5 11 1.5 22q0 23 -16.5 39q-16.5 16 -45.5 16q-29 0 -45.5 -16t-16.5 -39z" />
<glyph unicode="&#39;" horiz-adv-x="200" d="M40 700h120v-260l-120 0z" />
<glyph unicode="&#40;" horiz-adv-x="400" d="M70 250q0 52 7 99.5q7 47.5 19 89q12 41.5 27.5 77q15.5 35.5 31.5 64.5q37 68 85 120l140 0q-52 -52 -92 -120q-17 -29 -33.5 -64.5q-16.5 -35.5 -29.5 -77q-13 -41.5 -21 -89q-8 -47.5 -8 -99.5q0 -53 8 -100q8 -47 21 -88.5q13 -41.5 29.5 -77q16.5 -35.5 33.5 -64.5q40 -69 92 -120l-146 0q-46 51 -82 120q-31 58 -56.5 141t-25.5 189z" />
<glyph unicode="&#41;" horiz-adv-x="400" d="M330 250q0 -52 -7 -99.5q-7 -47.5 -19 -89q-12 -41.5 -27.5 -77q-15.5 -35.5 -31.5 -64.5q-37 -68 -85 -120l-140 0q52 52 92 120q17 29 33.5 64.5q16.5 35.5 29.5 77q13 41.5 21 89q8 47.5 8 99.5q0 53 -8 100q-8 47 -21 88.5q-13 41.5 -29.5 77q-16.5 35.5 -33.5 64.5q-40 69 -92 120l146 0q46 -51 82 -120q31 -58 56.5 -141t25.5 -189z" />
<glyph unicode="&#42;" horiz-adv-x="390" d="M15 569h119l-59 104l61 36l59 -105l60 105l60 -36l-60 -104h120v-70h-120l60 -105l-61 -35l-59 103l-59 -103l-61 35l60 105l-120 0z" />
<glyph unicode="&#43;" horiz-adv-x="590" d="M65 410h172v177h116v-177h172v-106h-172v-177h-116v177l-172 0z" />
<glyph unicode="&#44;" horiz-adv-x="250" d="M71 125h124l-83 -275l-87 0z" />
<glyph unicode="&#45;" horiz-adv-x="400" d="M40 313h320v-106l-320 0z" />
<glyph unicode="&#46;" horiz-adv-x="250" d="M125 -9q-35 0 -57.5 23.5q-22.5 23.5 -22.5 56.5q0 33 22.5 56.5q22.5 23.5 57.5 23.5q35 0 57.5 -23.5q22.5 -23.5 22.5 -56.5q0 -33 -22.5 -56.5t-57.5 -23.5z" />
<glyph unicode="&#47;" horiz-adv-x="450" d="M325 700h120l-320 -900l-120 0z" />
<glyph unicode="&#48;" horiz-adv-x="610" d="M305 -9q-58 0 -104.5 18.5q-46.5 18.5 -78.5 58.5q-32 40 -49.5 103q-17.5 63 -17.5 153v52q0 89 17.5 152q17.5 63 50 103.5q32.5 40.5 78.5 59q46 18.5 104 18.5q58 0 104.5 -18.5q46.5 -18.5 79 -58.5q32.5 -40 49.5 -103q17 -63 17 -153v-52q0 -89 -17.5 -152q-17.5 -63 -50 -103.5q-32.5 -40.5 -78.5 -59q-46 -18.5 -104 -18.5zt0 0zM305 103q29 0 52 10q23 10 39 35q16 25 24.5 67.5q8.5 42.5 8.5 108.5v52q0 65 -9 107.5q-9 42.5 -25 68q-16 25.5 -39 35.5q-23 10 -51 10q-29 0 -52 -10q-23 -10 -39 -35q-16 -25 -24.5 -67.5q-8.5 -42.5 -8.5 -108.5v-52q0 -65 8.5 -107.5q8.5 -42.5 25 -68q16.5 -25.5 39 -35.5t51.5 -10z" />
<glyph unicode="&#49;" horiz-adv-x="350" d="M10 606l140 94h120v-700h-120v576l-140 -93z" />
<glyph unicode="&#50;" horiz-adv-x="550" d="M35 106l226 217q33 32 56 56q23 24 36.5 44q13.5 20 19.5 37q6 17 6 35q0 46 -29 74q-29 28 -80 28q-51 0 -80 -29q-29 -29 -29 -83l-126 0q0 51 16 92.5q16 41.5 46.5 70.5q30.5 29 74 45q43.5 16 98.5 16q55 0 98.5 -15.5q43.5 -15.5 74 -44q30.5 -28.5 46.5 -68q16 -39.5 16 -86.5q0 -59 -38 -116q-38 -57 -118 -130l-157 -143h313v-106l-470 0z" />
<glyph unicode="&#51;" horiz-adv-x="580" d="M285 -9q-118 0 -183 63.5q-65 63.5 -67 180.5l126 0q2 -69 33 -100.5q31 -31.5 91 -31.5q62 0 93 28.5q31 28.5 31 76.5q0 43 -29.5 71q-29.5 28 -87.5 28h-92v106h92q48 0 75 25q27 25 27 65q0 42 -27.5 68q-27.5 26 -81.5 26q-100 0 -109 -112l-126 0q2 105 63.5 164.5q61.5 59.5 171.5 59.5q58 0 102 -14.5q44 -14.5 73.5 -40.5q29.5 -26 44.5 -62.5q15 -36.5 15 -80.5q0 -48 -21 -87q-21 -39 -65 -63q51 -25 76 -67.5q25 -42.5 25 -94.5q0 -46 -16 -84.5q-16 -38.5 -47.5 -66q-31.5 -27.5 -78 -42.5t-108.5 -15z" />
<glyph unicode="&#52;" horiz-adv-x="565" d="M15 253l292 447h158v-447h80v-106h-80v-147h-120v147h-330zM345 253v314l-201 -314z" />
<glyph unicode="&#53;" horiz-adv-x="565" d="M85 700h405v-106h-298l-12 -156q51 39 125 39q51 0 93.5 -17q42.5 -17 72.5 -49q30 -32 47 -77q17 -45 17 -100q0 -55 -17 -100q-17 -45 -49.5 -76.5q-32.5 -31.5 -79 -49q-46.5 -17.5 -104.5 -17.5q-48 0 -90 12.5q-42 12.5 -74.5 36.5q-32.5 24 -54.5 58.5q-22 34.5 -31 79.5l126 0q15 -37 47.5 -56q32.5 -19 76.5 -19q57 0 90.5 34q33.5 34 33.5 97q0 63 -33.5 97q-33.5 34 -90.5 34q-39 0 -68.5 -16q-29.5 -16 -45.5 -40l-116 0z" />
<glyph unicode="&#54;" horiz-adv-x="595" d="M305 -9q-57 0 -103 18.5q-46 18.5 -79 56q-33 37.5 -50.5 94.5q-17.5 57 -17.5 134v52q0 96 19 165q19 69 53.5 113q34.5 44 82 64.5q47.5 20.5 105.5 20.5q45 0 81.5 -13q36.5 -13 63.5 -36.5q27 -23.5 44.5 -55.5q17.5 -32 25.5 -69l-123 0q-11 25 -34 43.5q-23 18.5 -63 18.5q-30 0 -54.5 -10.5q-24.5 -10.5 -42.5 -33q-18 -22.5 -29 -58q-11 -35.5 -13 -86.5q28 29 64.5 44.5q36.5 15.5 79.5 15.5q108 0 169 -61.5q61 -61.5 61 -171.5v-12q0 -51 -17.5 -93.5q-17.5 -42.5 -49 -73.5q-31.5 -31 -76 -48.5q-44.5 -17.5 -97.5 -17.5zt0 0zM305 357q-59 0 -91.5 -32q-32.5 -32 -32.5 -89v-12q0 -57 32.5 -89q32.5 -32 91.5 -32q51 0 82.5 32q31.5 32 31.5 89v12q0 57 -31.5 89t-82.5 32z" />
<glyph unicode="&#55;" horiz-adv-x="480" d="M10 700h460v-106l-241 -594h-134l244 594l-329 0z" />
<glyph unicode="&#56;" horiz-adv-x="590" d="M295 -9q-62 0 -108.5 15q-46.5 15 -78 42q-31.5 27 -47.5 64.5q-16 37.5 -16 81.5q0 60 30.5 102q30.5 42 80.5 68q-42 24 -66.5 62q-24.5 38 -24.5 92q0 40 16 75q16 35 46 61q30 26 72.5 40.5q42.5 14.5 95.5 14.5q54 0 97 -14.5q43 -14.5 72.5 -40q29.5 -25.5 45 -60.5q15.5 -35 15.5 -76q0 -54 -25 -91.5q-25 -37.5 -67 -61.5q50 -26 81 -68.5q31 -42.5 31 -102.5q0 -43 -16.5 -80q-16.5 -37 -48 -64.5q-31.5 -27.5 -78 -43q-46.5 -15.5 -107.5 -15.5zt0 0zM295 103q30 0 53 8q23 8 38.5 21q15.5 13 24 30.5q8.5 17.5 8.5 35.5q0 26 -10 46.5q-10 20.5 -27 35.5q-17 15 -39.5 24q-22.5 9 -47.5 12q-52 -6 -88 -35q-36 -29 -36 -83q0 -38 32.5 -66.5q32.5 -28.5 91.5 -28.5zt0 0zM295 411q21 3 40 10q19 7 33 19q14 12 22.5 29.5q8.5 17.5 8.5 43.5q0 15 -7.5 30q-7.5 15 -21 27q-13.5 12 -32.5 19.5q-19 7.5 -43 7.5q-24 0 -43.5 -7.5q-19.5 -7.5 -33 -19.5q-13.5 -12 -20.5 -27q-7 -15 -7 -30q0 -24 9 -42q9 -18 23.5 -30q14.5 -12 33 -19.5t38.5 -10.5z" />
<glyph unicode="&#57;" horiz-adv-x="595" d="M285 -9q-45 0 -81.5 13q-36.5 13 -63.5 36.5q-27 23.5 -45 55q-18 31.5 -25 69.5l123 0q11 -25 34 -43.5q23 -18.5 63 -18.5q29 0 53 9.5q24 9.5 41 32q17 22.5 27 58q10 35.5 12 88.5q-27 -29 -64 -44.5q-37 -15.5 -79 -15.5q-108 0 -169 61.5q-61 61.5 -61 171.5v12q0 51 17 94q17 43 48.5 74q31.5 31 76 48q44.5 17 98.5 17q57 0 103 -18.5q46 -18.5 79 -56q33 -37.5 50.5 -94.5q17.5 -57 17.5 -134v-52q0 -99 -18 -168q-18 -69 -51.5 -112.5q-33.5 -43.5 -80.5 -63q-47 -19.5 -105 -19.5zt0 0zM290 343q59 0 91.5 32q32.5 32 32.5 89v12q0 57 -32.5 89q-32.5 32 -91.5 32q-51 0 -82.5 -32q-31.5 -32 -31.5 -89v-12q0 -57 31.5 -89t82.5 -32z" />
<glyph unicode="&#58;" horiz-adv-x="250" d="M125 349q-35 0 -57.5 23.5q-22.5 23.5 -22.5 56.5q0 33 22.5 56.5q22.5 23.5 57.5 23.5q35 0 57.5 -23.5q22.5 -23.5 22.5 -56.5q0 -33 -22.5 -56.5q-22.5 -23.5 -57.5 -23.5zt0 0zM125 -9q-35 0 -57.5 23.5q-22.5 23.5 -22.5 56.5q0 33 22.5 56.5q22.5 23.5 57.5 23.5q35 0 57.5 -23.5q22.5 -23.5 22.5 -56.5q0 -33 -22.5 -56.5t-57.5 -23.5z" />
<glyph unicode="&#59;" horiz-adv-x="250" d="M63 125h124l-83 -275h-87zM125 349q-35 0 -57.5 23.5q-22.5 23.5 -22.5 56.5q0 33 22.5 56.5q22.5 23.5 57.5 23.5q35 0 57.5 -23.5q22.5 -23.5 22.5 -56.5q0 -33 -22.5 -56.5t-57.5 -23.5z" />
<glyph unicode="&#60;" horiz-adv-x="590" d="M189 362l336 -152v-120l-460 210v120l460 210l0 -116z" />
<glyph unicode="&#61;" horiz-adv-x="590" d="M65 523h460v-106h-460zM65 303h460v-106l-460 0z" />
<glyph unicode="&#62;" horiz-adv-x="590" d="M401 358l-336 152v120l460 -210v-120l-460 -210l0 116z" />
<glyph unicode="&#63;" horiz-adv-x="500" d="M185 214q0 51 12 84.5q12 33.5 29.5 57q17.5 23.5 38 39.5q20.5 16 38 31.5q17.5 15.5 29.5 35q12 19.5 12 48.5q0 40 -24.5 63.5q-24.5 23.5 -69.5 23.5q-47 0 -73.5 -26q-26.5 -26 -30.5 -71l-126 0q2 46 18.5 84q16.5 38 46 66q29.5 28 70 43.5q40.5 15.5 90.5 15.5q55 0 97 -14q42 -14 70.5 -39q28.5 -25 43 -59.5q14.5 -34.5 14.5 -76.5q0 -43 -12 -72q-12 -29 -30.5 -50.5q-18.5 -21.5 -40 -38.5q-21.5 -17 -40 -37q-18.5 -20 -30.5 -45q-12 -25 -12 -63zM245 -9q-35 0 -57.5 23.5q-22.5 23.5 -22.5 56.5q0 33 22.5 56.5q22.5 23.5 57.5 23.5q35 0 57.5 -23.5q22.5 -23.5 22.5 -56.5q0 -33 -22.5 -56.5t-57.5 -23.5z" />
<glyph unicode="&#64;" horiz-adv-x="1050" d="M525 -209q-96 0 -180 36q-84 36 -146 98q-62 62 -98 145.5q-36 83.5 -36 179.5q0 96 36 179.5q36 83.5 98 145.5q62 62 146 98q84 36 180 36q103 0 188 -32q85 -32 145.5 -87.5q60.5 -55.5 93.5 -129q33 -73.5 33 -155.5q0 -71 -18 -124.5q-18 -53.5 -50 -90.5q-32 -37 -76.5 -55.5q-44.5 -18.5 -97.5 -18.5q-59 0 -95.5 21q-36.5 21 -50.5 56q-29 -38 -69 -57.5q-40 -19.5 -88 -19.5q-70 0 -114 45.5q-44 45.5 -44 125.5q0 17 3.5 38.5q3.5 21.5 7.5 44.5q9 48 29 87.5q20 39.5 49.5 67.5q29.5 28 66 43.5q36.5 15.5 78.5 15.5q81 0 120 -52l8 43h110l-51 -289q-3 -14 -3 -24q0 -44 51 -44q24 0 46.5 11.5q22.5 11.5 40.5 35q18 23.5 28.5 58.5q10.5 35 10.5 82q0 63 -24.5 118.5q-24.5 55.5 -69.5 96q-45 40.5 -110 64q-65 23.5 -146 23.5q-75 0 -140 -27q-65 -27 -112.5 -75q-47.5 -48 -74.5 -113.5q-27 -65.5 -27 -141.5q0 -76 27 -141.5q27 -65.5 74.5 -113.5q47.5 -48 111.5 -75q64 -27 139 -27q69 0 127 12.5q58 12.5 103 32.5l0 -108q-38 -16 -99.5 -27.5q-61.5 -11.5 -130.5 -11.5zt0 0zM481 118q48 0 78 31.5q30 31.5 41 80.5q5 23 8 44q3 21 3 32q0 35 -22.5 55.5q-22.5 20.5 -63.5 20.5q-46 0 -76.5 -30q-30.5 -30 -40.5 -82q-5 -25 -7.5 -45q-2.5 -20 -2.5 -31q0 -33 20.5 -54.5t62.5 -21.5z" />
<glyph unicode="&#65;" horiz-adv-x="650" d="M454 177h-265l-58 -177h-126l250 700h140l250 -700h-132zM224 283h195l-50 153l-47 144l-47 -144z" />
<glyph unicode="&#66;" horiz-adv-x="620" d="M70 700h235q69 0 117.5 -13q48.5 -13 79 -37q30.5 -24 44.5 -59.5q14 -35.5 14 -80.5q0 -46 -22 -84q-22 -38 -68 -62q57 -23 83.5 -65.5q26.5 -42.5 26.5 -96.5q0 -50 -14 -87.5q-14 -37.5 -44.5 -63q-30.5 -25.5 -79 -38.5q-48.5 -13 -117.5 -13h-255zM190 311v-209h135q72 0 100.5 25.5q28.5 25.5 28.5 79.5q0 53 -28.5 78.5q-28.5 25.5 -100.5 25.5zM190 598v-189h115q71 0 100 24.5q29 24.5 29 70.5q0 45 -29 69.5q-29 24.5 -100 24.5z" />
<glyph unicode="&#67;" horiz-adv-x="670" d="M350 -9q-69 0 -125.5 22q-56.5 22 -96 65q-39.5 43 -61.5 104.5q-22 61.5 -22 141.5v52q0 79 22 140.5q22 61.5 62 104.5q40 43 96.5 65.5q56.5 22.5 124.5 22.5q61 0 110.5 -18q49.5 -18 85.5 -48.5q36 -30.5 58.5 -71q22.5 -40.5 30.5 -86.5l-132 0q-8 23 -21 43.5q-13 20.5 -32 35.5q-19 15 -44 24q-25 9 -56 9q-80 0 -129.5 -55q-49.5 -55 -49.5 -166v-52q0 -55 13.5 -96.5q13.5 -41.5 37 -69q23.5 -27.5 56.5 -41.5q33 -14 72 -14q61 0 100 36q39 36 53 96l132 0q-8 -53 -30.5 -97.5q-22.5 -44.5 -59 -77q-36.5 -32.5 -85.5 -51t-110 -18.5z" />
<glyph unicode="&#68;" horiz-adv-x="680" d="M70 700h230q165 0 250 -83.5q85 -83.5 85 -238.5v-56q0 -153 -86 -237.5q-86 -84.5 -249 -84.5h-230zM190 594v-488h110q104 0 156.5 53q52.5 53 52.5 163v56q0 109 -53 162.5q-53 53.5 -156 53.5z" />
<glyph unicode="&#69;" horiz-adv-x="560" d="M70 700h450v-106h-330v-181h270v-106h-270v-201h330v-106l-450 0z" />
<glyph unicode="&#70;" horiz-adv-x="540" d="M70 700h450v-106h-330v-191h270v-106h-270v-297l-120 0z" />
<glyph unicode="&#71;" horiz-adv-x="680" d="M340 362h295v-52q0 -158 -76 -238.5q-76 -80.5 -209 -80.5q-71 0 -127 21.5q-56 21.5 -96 63.5q-40 42 -61 104q-21 62 -21 143v54q0 161 80 246.5q80 85.5 225 85.5q60 0 108.5 -17.5q48.5 -17.5 84 -48q35.5 -30.5 57.5 -71.5q22 -41 30 -87l-130 0q-15 48 -51.5 80q-36.5 32 -98.5 32q-87 0 -133 -52.5q-46 -52.5 -46 -167.5v-54q0 -111 49.5 -165.5q49.5 -54.5 129.5 -54.5q76 0 118.5 36q42.5 36 51.5 121l-180 0z" />
<glyph unicode="&#72;" horiz-adv-x="710" d="M520 307h-330v-307h-120v700h120v-287h330v287h120v-700l-120 0z" />
<glyph unicode="&#73;" horiz-adv-x="270" d="M75 700h120v-700l-120 0z" />
<glyph unicode="&#74;" horiz-adv-x="535" d="M240 -9q-106 0 -164 63.5q-58 63.5 -66 180.5l120 0q7 -132 110 -132q51 0 80.5 34q29.5 34 29.5 113v450h120v-450q0 -130 -61 -194.5t-169 -64.5z" />
<glyph unicode="&#75;" horiz-adv-x="635" d="M273 299l-83 -102v-197h-120v700h120v-338l264 338h146l-245 -310l265 -390l-150 0z" />
<glyph unicode="&#76;" horiz-adv-x="515" d="M70 700h120v-594h310v-106l-430 0z" />
<glyph unicode="&#77;" horiz-adv-x="810" d="M231 460l-41 106v-566h-120v700h180l156 -379l156 379h178v-700h-120v567l-42 -107l-113 -275l-120 0z" />
<glyph unicode="&#78;" horiz-adv-x="710" d="M232 460l-42 91v-551h-120v700h168l240 -460l42 -92v552h120v-700l-168 0z" />
<glyph unicode="&#79;" horiz-adv-x="710" d="M355 -9q-70 0 -127.5 22.5q-57.5 22.5 -98 65q-40.5 42.5 -62.5 104.5q-22 62 -22 141v52q0 78 22.5 140q22.5 62 63 104.5q40.5 42.5 98 65.5q57.5 23 126.5 23q70 0 127.5 -22.5q57.5 -22.5 98 -65.5q40.5 -43 62.5 -104.5q22 -61.5 22 -140.5v-52q0 -78 -22.5 -140q-22.5 -62 -63 -105q-40.5 -43 -98 -65.5q-57.5 -22.5 -126.5 -22.5zt0 0zM355 103q82 0 133 55.5q51 55.5 51 165.5v52q0 54 -13.5 95.5q-13.5 41.5 -38 69q-24.5 27.5 -58.5 42q-34 14.5 -74 14.5q-83 0 -133.5 -55.5q-50.5 -55.5 -50.5 -165.5v-52q0 -109 51.5 -165t132.5 -56z" />
<glyph unicode="&#80;" horiz-adv-x="600" d="M70 700h240q141 0 205.5 -59.5q64.5 -59.5 64.5 -171.5q0 -105 -68 -168q-68 -63 -202 -63h-120v-238h-120zM190 594v-250h120q72 0 108 34q36 34 36 91q0 60 -34.5 92.5q-34.5 32.5 -109.5 32.5z" />
<glyph unicode="&#81;" horiz-adv-x="710" d="M355 -9q-70 0 -127.5 22.5q-57.5 22.5 -98 65q-40.5 42.5 -62.5 104.5q-22 62 -22 141v52q0 78 22.5 140q22.5 62 63 104.5q40.5 42.5 98 65.5q57.5 23 126.5 23q70 0 127.5 -22.5q57.5 -22.5 98 -65.5q40.5 -43 62.5 -104.5q22 -61.5 22 -140.5v-52q0 -81 -24 -144q-24 -63 -67 -106l91 -124h-128l-49 66q-30 -12 -63 -18.5q-33 -6.5 -70 -6.5zt0 0zM355 103q33 0 62 9l-82 113h128l37 -51q18 27 28.5 64.5q10.5 37.5 10.5 85.5v52q0 54 -13.5 95.5q-13.5 41.5 -38 69q-24.5 27.5 -58.5 42q-34 14.5 -74 14.5q-83 0 -133.5 -55.5q-50.5 -55.5 -50.5 -165.5v-52q0 -109 51.5 -165t132.5 -56z" />
<glyph unicode="&#82;" horiz-adv-x="620" d="M335 264h-145v-264h-120v700h241q140 0 204.5 -58q64.5 -58 64.5 -160q0 -70 -32 -120.5q-32 -50.5 -98 -75.5l150 -286h-136zM190 594v-224h121q75 0 109 30.5q34 30.5 34 81.5q0 52 -34 82q-34 30 -109 30z" />
<glyph unicode="&#83;" horiz-adv-x="610" d="M305 -9q-131 0 -194 59.5q-63 59.5 -71 184.5l128 0q5 -72 36.5 -101.5q31.5 -29.5 100.5 -29.5q72 0 105.5 27q33.5 27 33.5 66q0 39 -29 60q-29 21 -73 34.5q-44 13.5 -95 26q-51 12.5 -95 34.5q-44 22 -73 60q-29 38 -29 102q0 42 16 77.5q16 35.5 47.5 62q31.5 26.5 79.5 41q48 14.5 112 14.5q128 0 187.5 -55.5q59.5 -55.5 67.5 -168.5l-128 0q-5 60 -33.5 86q-28.5 26 -94.5 26q-68 0 -98 -24.5q-30 -24.5 -30 -59.5q0 -37 29 -56.5q29 -19.5 73 -32.5q44 -13 95 -25.5q51 -12.5 95 -35q44 -22.5 73 -62q29 -39.5 29 -106.5q0 -45 -16 -82.5q-16 -37.5 -48.5 -64.5q-32.5 -27 -82.5 -42t-118 -15z" />
<glyph unicode="&#84;" horiz-adv-x="580" d="M15 700h550v-106h-215v-594h-120v594l-215 0z" />
<glyph unicode="&#85;" horiz-adv-x="690" d="M345 -9q-133 0 -206.5 75.5q-73.5 75.5 -73.5 218.5v415h120v-415q0 -91 42.5 -136.5q42.5 -45.5 117.5 -45.5q75 0 117.5 44.5q42.5 44.5 42.5 137.5v415h120v-415q0 -142 -74.5 -218t-205.5 -76z" />
<glyph unicode="&#86;" horiz-adv-x="660" d="M10 700h130l200 -560l184 560h126l-240 -700l-140 0z" />
<glyph unicode="&#87;" horiz-adv-x="970" d="M484 556l-129 -556h-150l-185 700h126l136 -554l128 554h150l139 -555l129 555h122l-175 -700l-150 0z" />
<glyph unicode="&#88;" horiz-adv-x="650" d="M323 272l-168 -272h-140l232 363l-212 337h144l147 -243l151 243h138l-212 -333l232 -367l-146 0z" />
<glyph unicode="&#89;" horiz-adv-x="650" d="M270 235l-260 465h136l186 -342l178 342h130l-250 -465v-235l-120 0z" />
<glyph unicode="&#90;" horiz-adv-x="585" d="M50 700h500v-106l-372 -488h372v-106h-510v106l373 488l-363 0z" />
<glyph unicode="&#91;" horiz-adv-x="400" d="M100 700h270v-106h-150v-688h150v-106l-270 0z" />
<glyph unicode="&#92;" horiz-adv-x="450" d="M5 700h126l314 -900l-126 0z" />
<glyph unicode="&#93;" horiz-adv-x="400" d="M300 -200h-270v106h150v688h-150v106l270 0z" />
<glyph unicode="&#94;" horiz-adv-x="590" d="M290 607l-112 -207h-118l171 300h118l181 -300l-121 0z" />
<glyph unicode="&#95;" horiz-adv-x="590" d="M0 -50h590v-106l-590 0z" />
<glyph unicode="&#96;" horiz-adv-x="250" d="M5 710h126l114 -150l-110 0z" />
<glyph unicode="&#97;" horiz-adv-x="520" d="M195 -9q-81 0 -123 40q-42 40 -42 111q0 39 12.5 70.5q12.5 31.5 40 53q27.5 21.5 71 33q43.5 11.5 106.5 11.5h84v30q0 36 -19.5 54.5q-19.5 18.5 -64.5 18.5q-42 0 -61 -16q-19 -16 -23 -42l-126 0q4 67 54.5 110.5q50.5 43.5 155.5 43.5q100 0 150 -46q50 -46 50 -123v-340h-91l-12 69q-26 -38 -67.5 -58q-41.5 -20 -94.5 -20zt0 0zM215 87q28 0 51.5 9.5q23.5 9.5 40.5 26q17 16.5 27 37.5q10 21 10 45v15h-84q-60 0 -84 -20q-24 -20 -24 -54q0 -27 16.5 -43t46.5 -16z" />
<glyph unicode="&#98;" horiz-adv-x="560" d="M327 -9q-53 0 -93.5 19q-40.5 19 -66.5 57l-11 -67h-91v700h116v-250q53 59 146 59q43 0 79.5 -15.5q36.5 -15.5 62.5 -46q26 -30.5 41 -76q15 -45.5 15 -105.5v-32q0 -60 -15 -105q-15 -45 -41.5 -76q-26.5 -31 -62.5 -46.5q-36 -15.5 -79 -15.5zt0 0zM292 99q53 0 82 32q29 32 29 103v32q0 69 -30 102q-30 33 -81 33q-48 0 -78.5 -33q-30.5 -33 -32.5 -96l0 -38q0 -66 31.5 -100.5t79.5 -34.5z" />
<glyph unicode="&#99;" horiz-adv-x="505" d="M270 -9q-54 0 -97.5 16.5q-43.5 16.5 -74 48q-30.5 31.5 -47 76.5q-16.5 45 -16.5 102v32q0 56 16.5 101q16.5 45 47.5 76.5q31 31.5 74.5 48.5q43.5 17 96.5 17q95 0 147.5 -47q52.5 -47 67.5 -122l-124 0q-8 27 -33 44q-25 17 -63 17q-22 0 -41.5 -7.5q-19.5 -7.5 -34.5 -24q-15 -16.5 -23.5 -42q-8.5 -25.5 -8.5 -61.5v-32q0 -35 9 -60.5q9 -25.5 24 -42q15 -16.5 34.5 -24.5q19.5 -8 40.5 -8q43 0 65.5 19q22.5 19 30.5 47l124 0q-15 -79 -67.5 -126.5t-147.5 -47.5z" />
<glyph unicode="&#100;" horiz-adv-x="560" d="M233 -9q-44 0 -80 15q-36 15 -62.5 45.5q-26.5 30.5 -41 76q-14.5 45.5 -14.5 106.5v32q0 60 15 105q15 45 41.5 76q26.5 31 62.5 46.5q36 15.5 79 15.5q93 0 146 -59l0 250h116v-700h-91l-11 67q-26 -38 -67 -57q-41 -19 -93 -19zt0 0zM268 99q47 0 78 32.5q31 32.5 33 95.5l0 39q0 66 -31.5 100.5q-31.5 34.5 -79.5 34.5q-53 0 -82 -31.5q-29 -31.5 -29 -103.5v-32q0 -69 30 -102t81 -33z" />
<glyph unicode="&#101;" horiz-adv-x="540" d="M270 -9q-54 0 -97 16.5q-43 16.5 -74 48q-31 31.5 -47.5 76.5q-16.5 45 -16.5 102v32q0 57 16.5 102q16.5 45 47.5 76.5q31 31.5 74 48q43 16.5 97 16.5q109 0 172 -67q63 -67 63 -192v-39h-354q5 -63 35 -90.5q30 -27.5 84 -27.5q53 0 77.5 18.5q24.5 18.5 32.5 43.5l120 0q-8 -35 -25 -65q-17 -30 -45 -52q-28 -22 -68 -34.5q-40 -12.5 -92 -12.5zt0 0zM270 407q-51 0 -80 -25q-29 -25 -37 -79l234 0q-7 56 -36.5 80t-80.5 24z" />
<glyph unicode="&#102;" horiz-adv-x="335" d="M10 500h90v35q0 80 42 122.5q42 42.5 120 42.5h88v-102h-70q-64 0 -64 -71v-27h114v-102h-114v-398h-116v398l-90 0z" />
<glyph unicode="&#103;" horiz-adv-x="560" d="M233 11q-44 0 -80 14.5q-36 14.5 -62.5 43.5q-26.5 29 -41 72.5q-14.5 43.5 -14.5 102.5v32q0 56 15 99.5q15 43.5 41.5 73q26.5 29.5 62.5 45q36 15.5 79 15.5q106 0 160 -75l11 66h91v-500q0 -104 -54 -156.5q-54 -52.5 -168 -52.5q-53 0 -91.5 11q-38.5 11 -64.5 32q-26 21 -39.5 51.5q-13.5 30.5 -17.5 69.5l116 0q8 -35 29 -53q21 -18 68 -18q54 0 80 27.5q26 27.5 26 88.5v70q-27 -29 -64 -44q-37 -15 -82 -15zt0 0zM268 119q48 0 79.5 33q31.5 33 31.5 92v32q0 59 -31.5 92q-31.5 33 -79.5 33q-53 0 -82 -30.5q-29 -30.5 -29 -94.5v-32q0 -62 30 -93.5t81 -31.5z" />
<glyph unicode="&#104;" horiz-adv-x="575" d="M65 700h116v-243q50 52 139 52q92 0 143.5 -54.5q51.5 -54.5 51.5 -164.5v-290h-116v290q0 55 -26.5 83q-26.5 28 -72.5 28q-54 0 -85.5 -29q-31.5 -29 -33.5 -77l0 -295l-116 0z" />
<glyph unicode="&#105;" horiz-adv-x="256" d="M70 500h116v-500h-116zM128 560q-32 0 -53.5 21.5q-21.5 21.5 -21.5 53.5q0 32 21.5 53.5q21.5 21.5 53.5 21.5q31 0 53 -21.5q22 -21.5 22 -53.5q0 -32 -22 -53.5t-53 -21.5z" />
<glyph unicode="&#106;" horiz-adv-x="256" d="M-34 -98h34q36 0 53 21q17 21 17 72v505h116v-505q0 -53 -10.5 -90.5q-10.5 -37.5 -33 -60.5q-22.5 -23 -58 -33.5q-35.5 -10.5 -84.5 -10.5h-34zM128 560q-32 0 -53.5 21.5q-21.5 21.5 -21.5 53.5q0 32 21.5 53.5q21.5 21.5 53.5 21.5q31 0 53 -21.5q22 -21.5 22 -53.5q0 -32 -22 -53.5t-53 -21.5z" />
<glyph unicode="&#107;" horiz-adv-x="510" d="M247 193l-66 -85v-108h-116v700h116v-426l168 226h136l-162 -218l182 -282l-140 0z" />
<glyph unicode="&#108;" horiz-adv-x="285" d="M229 0q-79 0 -121.5 42.5q-42.5 42.5 -42.5 122.5v535h116v-523q0 -39 17 -57q17 -18 52 -18h25v-102l-46 0z" />
<glyph unicode="&#109;" horiz-adv-x="875" d="M65 500h91l9 -55q26 31 63.5 47.5q37.5 16.5 82.5 16.5q51 0 90.5 -20.5q39.5 -20.5 63.5 -60.5q26 39 68 60q42 21 95 21q85 0 136 -55q51 -55 51 -164v-290h-116v290q0 56 -25.5 83.5q-25.5 27.5 -70.5 27.5q-45 0 -75 -30.5q-30 -30.5 -30 -80.5v-290h-116v290q0 55 -26 83q-26 28 -70 28q-45 0 -74 -29q-29 -29 -31 -77l0 -295l-116 0z" />
<glyph unicode="&#110;" horiz-adv-x="575" d="M65 500h91l9 -56q56 65 155 65q92 0 143.5 -54.5q51.5 -54.5 51.5 -164.5v-290h-116v290q0 55 -26.5 83q-26.5 28 -72.5 28q-54 0 -85.5 -29q-31.5 -29 -33.5 -77l0 -295l-116 0z" />
<glyph unicode="&#111;" horiz-adv-x="550" d="M275 -9q-113 0 -176.5 64q-63.5 64 -63.5 179v32q0 57 16.5 102q16.5 45 48 76.5q31.5 31.5 75.5 48q44 16.5 100 16.5q113 0 176.5 -64q63.5 -64 63.5 -179v-32q0 -57 -16.5 -102q-16.5 -45 -48 -76.5q-31.5 -31.5 -76 -48q-44.5 -16.5 -99.5 -16.5zt0 0zM275 99q57 0 87.5 33q30.5 33 30.5 102v32q0 68 -31.5 101.5q-31.5 33.5 -86.5 33.5q-57 0 -87.5 -33q-30.5 -33 -30.5 -102v-32q0 -68 31.5 -101.5t86.5 -33.5z" />
<glyph unicode="&#112;" horiz-adv-x="560" d="M327 -9q-94 0 -146 59l0 -250h-116v700h91l11 -68q26 39 66.5 58q40.5 19 93.5 19q43 0 79.5 -15.5q36.5 -15.5 62.5 -46q26 -30.5 41 -76q15 -45.5 15 -105.5v-32q0 -60 -15 -105q-15 -45 -41.5 -76q-26.5 -31 -62.5 -46.5q-36 -15.5 -79 -15.5zt0 0zM292 99q53 0 82 32q29 32 29 103v32q0 69 -30 102q-30 33 -81 33q-48 0 -78.5 -33q-30.5 -33 -32.5 -96l0 -38q0 -66 31.5 -100.5t79.5 -34.5z" />
<glyph unicode="&#113;" horiz-adv-x="560" d="M233 -9q-44 0 -80 15q-36 15 -62.5 45.5q-26.5 30.5 -41 76q-14.5 45.5 -14.5 106.5v32q0 60 15 105q15 45 41.5 76q26.5 31 62.5 46.5q36 15.5 79 15.5q52 0 93 -19q41 -19 67 -58l11 68h91v-700h-116v249q-52 -58 -146 -58zt0 0zM268 99q48 0 79.5 34.5q31.5 34.5 31.5 100.5v38q-2 63 -33 96q-31 33 -78 33q-53 0 -82 -31.5q-29 -31.5 -29 -103.5v-32q0 -69 30 -102t81 -33z" />
<glyph unicode="&#114;" horiz-adv-x="380" d="M65 500h91l9 -56q26 32 64.5 48.5q38.5 16.5 85.5 16.5h50v-108h-50q-69 0 -101.5 -30q-32.5 -30 -32.5 -81v-290l-116 0z" />
<glyph unicode="&#115;" horiz-adv-x="490" d="M245 -9q-103 0 -152.5 45.5q-49.5 45.5 -57.5 128.5l122 0q8 -43 26.5 -60.5q18.5 -17.5 61.5 -17.5q51 0 69.5 14.5q18.5 14.5 18.5 38.5q0 27 -21.5 41q-21.5 14 -53.5 22.5q-32 8.5 -69 16q-37 7.5 -69 23q-32 15.5 -53.5 43q-21.5 27.5 -21.5 76.5q0 31 12 58q12 27 37 46.5q25 19.5 62.5 31q37.5 11.5 88.5 11.5q96 0 144 -44.5q48 -44.5 56 -124.5l-122 0q-8 41 -24.5 57q-16.5 16 -53.5 16q-43 0 -60.5 -14q-17.5 -14 -17.5 -34q0 -25 21.5 -36.5q21.5 -11.5 53.5 -19q32 -7.5 69 -15q37 -7.5 69 -24q32 -16.5 53.5 -46.5q21.5 -30 21.5 -81q0 -33 -12.5 -61q-12.5 -28 -38 -48q-25.5 -20 -65 -31.5t-94.5 -11.5z" />
<glyph unicode="&#116;" horiz-adv-x="360" d="M5 500h90v140h116v-140h124v-102h-124v-221q0 -39 17.5 -57q17.5 -18 52.5 -18h64v-102h-85q-80 0 -122.5 42.5q-42.5 42.5 -42.5 122.5v233l-90 0z" />
<glyph unicode="&#117;" horiz-adv-x="565" d="M250 -9q-88 0 -139 54.5q-51 54.5 -51 164.5v290h116v-290q0 -55 26 -83q26 -28 68 -28q51 0 81.5 29q30.5 29 32.5 77l0 295h116v-500h-91l-9 55q-27 -31 -65 -47.5t-85 -16.5z" />
<glyph unicode="&#118;" horiz-adv-x="510" d="M5 500h126l130 -374l124 374h120l-175 -500l-140 0z" />
<glyph unicode="&#119;" horiz-adv-x="770" d="M383 365l-88 -365h-140l-140 500h120l93 -361l88 361h140l99 -357l86 357h114l-130 -500l-140 0z" />
<glyph unicode="&#120;" horiz-adv-x="500" d="M248 168l-113 -168h-130l173 253l-165 247h134l105 -159l107 159h128l-165 -243l173 -257l-134 0z" />
<glyph unicode="&#121;" horiz-adv-x="520" d="M206 0l-201 500h126l136 -358l128 358h120l-265 -700l-120 0z" />
<glyph unicode="&#122;" horiz-adv-x="455" d="M40 500h390v-102l-271 -296h271v-102h-400v102l271 296l-261 0z" />
<glyph unicode="&#123;" horiz-adv-x="400" d="M380 594h-37q-59 0 -86 -27.5q-27 -27.5 -27 -88.5v-85q0 -23 -2.5 -43.5q-2.5 -20.5 -10.5 -38.5q-8 -18 -23 -34q-15 -16 -40 -28q25 -12 40 -27.5q15 -15.5 23 -33.5q8 -18 10.5 -38.5q2.5 -20.5 2.5 -42.5v-85q0 -61 27 -88.5q27 -27.5 86 -27.5h37v-106h-67q-203 0 -203 203v90q0 54 -22.5 77q-22.5 23 -57.5 28l0 104q35 5 57.5 27.5q22.5 22.5 22.5 76.5v91q0 203 203 203l67 0z" />
<glyph unicode="&#124;" horiz-adv-x="300" d="M90 700h120v-900l-120 0z" />
<glyph unicode="&#125;" horiz-adv-x="400" d="M20 -94h37q59 0 86 27.5q27 27.5 27 88.5v85q0 23 2.5 43.5q2.5 20.5 10.5 38.5q8 18 23 34q15 16 40 28q-25 12 -40 27.5q-15 15.5 -23 33.5q-8 18 -10.5 38.5q-2.5 20.5 -2.5 42.5v85q0 61 -27 88.5q-27 27.5 -86 27.5h-37v106h67q203 0 203 -203v-90q0 -54 22.5 -77q22.5 -23 57.5 -28l0 -104q-35 -5 -57.5 -27.5q-22.5 -22.5 -22.5 -76.5v-91q0 -203 -203 -203l-67 0z" />
<glyph unicode="&#126;" horiz-adv-x="590" d="M398 260q-40 0 -69.5 13.5q-29.5 13.5 -53 30q-23.5 16.5 -43.5 30.5q-20 14 -41 14q-23 0 -37 -13.5q-14 -13.5 -14 -34.5l-100 0q0 35 12 64.5q12 29.5 32.5 50.5q20.5 21 48 33q27.5 12 59.5 12q40 0 69.5 -14q29.5 -14 53.5 -30.5q24 -16.5 44 -30q20 -13.5 40 -13.5q23 0 37 13.5q14 13.5 14 34.5l100 0q0 -35 -12 -64.5q-12 -29.5 -32.5 -50.5q-20.5 -21 -48 -33t-59.5 -12z" />
<glyph unicode="&#160;" horiz-adv-x="250" />
<glyph unicode="&#161;" horiz-adv-x="300" d="M150 509q35 0 57.5 -23.5q22.5 -23.5 22.5 -56.5q0 -33 -22.5 -56.5q-22.5 -23.5 -57.5 -23.5q-35 0 -57.5 23.5q-22.5 23.5 -22.5 56.5q0 33 22.5 56.5q22.5 23.5 57.5 23.5zt0 0zM210 -200h-120v500l120 0z" />
<glyph unicode="&#162;" horiz-adv-x="505" d="M216 -4q-85 15 -133 76.5q-48 61.5 -48 161.5v32q0 98 48.5 160q48.5 62 132.5 78l0 96h108v-96q69 -13 108.5 -57q39.5 -44 52.5 -107l-124 0q-8 27 -33 44q-25 17 -63 17q-22 0 -41.5 -7.5q-19.5 -7.5 -34.5 -24q-15 -16.5 -23.5 -42q-8.5 -25.5 -8.5 -61.5v-32q0 -35 9 -60.5q9 -25.5 24 -42q15 -16.5 34.5 -24.5q19.5 -8 40.5 -8q43 0 65.5 19q22.5 19 30.5 47l124 0q-13 -67 -52.5 -112q-39.5 -45 -108.5 -57l0 -96l-108 0z" />
<glyph unicode="&#163;" horiz-adv-x="580" d="M35 374h90v126q0 46 15.5 84q15.5 38 44 66q28.5 28 68 43.5q39.5 15.5 87.5 15.5q100 0 156 -59q56 -59 59 -165l-126 0q-3 60 -25 86q-22 26 -64 26q-43 0 -69 -26q-26 -26 -26 -71v-126h175v-88h-175v-18q0 -62 -12.5 -99q-12.5 -37 -40.5 -63l363 0v-106h-520v106q22 12 38.5 25.5q16.5 13.5 28 31.5q11.5 18 17.5 43.5q6 25.5 6 61.5v18l-90 0z" />
<glyph unicode="&#164;" horiz-adv-x="590" d="M409 172q-26 -15 -54.5 -23.5q-28.5 -8.5 -59.5 -8.5q-32 0 -61 8.5q-29 8.5 -55 23.5l-72 -72l-72 72l72 72q-15 26 -23.5 55q-8.5 29 -8.5 61q0 62 31 113l-71 72l75 75l71 -72q25 15 53.5 23.5q28.5 8.5 60.5 8.5q32 0 60.5 -8.5q28.5 -8.5 53.5 -24.5l74 74l72 -72l-73 -73q33 -53 33 -116q0 -32 -8.5 -60.5q-8.5 -28.5 -23.5 -53.5l72 -72l-74 -74zM295 251q21 0 40 8.5q19 8.5 33 23.5q14 15 22.5 34.5q8.5 19.5 8.5 42.5q0 22 -8.5 42q-8.5 20 -22.5 35q-14 15 -33 23.5q-19 8.5 -40 8.5q-21 0 -40 -8.5q-19 -8.5 -33.5 -23.5q-14.5 -15 -22.5 -35q-8 -20 -8 -42q0 -23 8 -42.5q8 -19.5 22.5 -34.5q14.5 -15 33.5 -23.5t40 -8.5z" />
<glyph unicode="&#165;" horiz-adv-x="650" d="M75 344h130l-195 356h136l186 -347l178 347h130l-188 -356h133v-88h-195v-62h195v-88h-195v-106h-120v106h-195v88h195v62l-195 0z" />
<glyph unicode="&#166;" horiz-adv-x="300" d="M90 170h120v-370h-120zM90 700h120v-370l-120 0z" />
<glyph unicode="&#167;" horiz-adv-x="480" d="M239 709q45 0 79.5 -12.5q34.5 -12.5 59.5 -34.5q25 -22 39 -51.5q14 -29.5 18 -62.5l-125 0q-3 28 -20.5 44q-17.5 16 -50.5 16q-37 0 -54.5 -16q-17.5 -16 -17.5 -43q0 -28 21.5 -47q21.5 -19 53.5 -35.5q32 -16.5 69 -34q37 -17.5 69 -42q32 -24.5 53.5 -60q21.5 -35.5 21.5 -87.5q0 -88 -90 -151q34 -23 56.5 -55.5q22.5 -32.5 22.5 -82.5q0 -35 -13 -65q-13 -30 -39 -51.5q-26 -21.5 -64 -34q-38 -12.5 -89 -12.5q-47 0 -83 13q-36 13 -61.5 36q-25.5 23 -40.5 53.5q-15 30.5 -19 66.5l126 0q2 -32 22 -50q20 -18 56 -18q41 0 60.5 17.5q19.5 17.5 19.5 44.5q0 27 -22 45.5q-22 18.5 -54.5 34.5q-32.5 16 -70.5 33.5q-38 17.5 -70.5 42q-32.5 24.5 -54.5 60q-22 35.5 -22 87.5q0 90 93 153q-32 24 -54 56.5q-22 32.5 -22 82.5q0 69 50 114.5q50 45.5 147 45.5zt0 0zM147 260q0 -21 9.5 -37q9.5 -16 26 -29.5q16.5 -13.5 37.5 -25q21 -11.5 45 -22.5q34 20 51 41q17 21 17 53q0 21 -9.5 37.5q-9.5 16.5 -25.5 30q-16 13.5 -37 25q-21 11.5 -44 22.5q-35 -20 -52.5 -41.5t-17.5 -53.5z" />
<glyph unicode="&#168;" horiz-adv-x="340" d="M75 565q-29 0 -49.5 20.5q-20.5 20.5 -20.5 49.5q0 29 20.5 49.5q20.5 20.5 49.5 20.5q29 0 49.5 -20.5q20.5 -20.5 20.5 -49.5q0 -29 -20.5 -49.5q-20.5 -20.5 -49.5 -20.5zt0 0zM265 565q-29 0 -49.5 20.5q-20.5 20.5 -20.5 49.5q0 29 20.5 49.5q20.5 20.5 49.5 20.5q29 0 49.5 -20.5q20.5 -20.5 20.5 -49.5q0 -29 -20.5 -49.5t-49.5 -20.5z" />
<glyph unicode="&#169;" horiz-adv-x="850" d="M425 -9q-76 0 -142 28q-66 28 -114.5 76.5q-48.5 48.5 -76.5 114q-28 65.5 -28 140.5q0 75 28 140q28 65 77 114q49 49 115 77q66 28 141 28q76 0 141.5 -28q65.5 -28 114.5 -76.5q49 -48.5 77 -114q28 -65.5 28 -140.5q0 -75 -28.5 -140q-28.5 -65 -77 -114q-48.5 -49 -114.5 -77q-66 -28 -141 -28zt0 0zM425 75q57 0 106.5 21q49.5 21 86.5 58q37 37 58 87q21 50 21 109q0 58 -21 108.5q-21 50.5 -58 87.5q-37 37 -86.5 58q-49.5 21 -106.5 21q-57 0 -107 -21q-50 -21 -86.5 -58q-36.5 -37 -58 -87.5q-21.5 -50.5 -21.5 -108.5q0 -58 21.5 -108.5q21.5 -50.5 58 -87.5q36.5 -37 86.5 -58q50 -21 107 -21zt0 0zM425 144q-85 0 -134 50q-49 50 -49 141v30q0 90 50 140.5q50 50.5 133 50.5q39 0 70 -10.5q31 -10.5 53.5 -28.5q22.5 -18 35.5 -41.5q13 -23.5 17 -48.5l-97 0q-7 16 -25.5 30.5q-18.5 14.5 -53.5 14.5q-42 0 -66 -26q-24 -26 -24 -81v-30q0 -54 24 -80.5q24 -26.5 66 -26.5q38 0 56.5 15q18.5 15 25.5 39l94 0q-4 -28 -17.5 -53q-13.5 -25 -36 -44q-22.5 -19 -53.5 -30t-69 -11z" />
<glyph unicode="&#170;" horiz-adv-x="350" d="M134 371q-54 0 -84 26.5q-30 26.5 -30 71.5q0 52 36 81q36 29 126 29h48v11q0 26 -11.5 37.5q-11.5 11.5 -39.5 11.5q-26 0 -37.5 -9q-11.5 -9 -14.5 -23l-90 0q5 45 39 73.5q34 28.5 103 28.5q72 0 106.5 -31.5q34.5 -31.5 34.5 -87.5v-210h-71l-9 43q-32 -52 -106 -52zt0 0zM155 441q32 0 52.5 18.5q20.5 18.5 22.5 47.5l0 14h-50q-38 0 -52 -11q-14 -11 -14 -31q0 -20 11 -29t30 -9z" />
<glyph unicode="&#171;" horiz-adv-x="505" d="M351 460h124l-119 -199l119 -201h-127l-118 199zM146 460h124l-119 -199l119 -201h-127l-118 199z" />
<glyph unicode="&#172;" horiz-adv-x="590" d="M65 410h460v-290h-116v184l-344 0z" />
<glyph unicode="&#173;" horiz-adv-x="400" d="M40 313h320v-106l-320 0z" />
<glyph unicode="&#174;" horiz-adv-x="650" d="M325 141q-60 0 -112 22.5q-52 22.5 -90.5 61q-38.5 38.5 -61 90q-22.5 51.5 -22.5 110.5q0 59 22.5 110.5q22.5 51.5 61 90q38.5 38.5 90.5 61q52 22.5 112 22.5q60 0 112 -22.5q52 -22.5 90.5 -61q38.5 -38.5 61 -90q22.5 -51.5 22.5 -110.5q0 -59 -22.5 -110.5q-22.5 -51.5 -61 -90q-38.5 -38.5 -90.5 -61q-52 -22.5 -112 -22.5zt0 0zM325 209q45 0 83.5 16.5q38.5 16.5 67.5 46q29 29.5 45.5 69q16.5 39.5 16.5 84.5q0 45 -16.5 84.5q-16.5 39.5 -45.5 69q-29 29.5 -67.5 46q-38.5 16.5 -83.5 16.5q-45 0 -83.5 -16.5q-38.5 -16.5 -67.5 -46q-29 -29.5 -45.5 -69q-16.5 -39.5 -16.5 -84.5q0 -45 16.5 -84.5q16.5 -39.5 45.5 -69q29 -29.5 67.5 -46q38.5 -16.5 83.5 -16.5zt0 0zM329 371h-41v-96h-71v300h113q65 0 94 -26q29 -26 29 -77q0 -69 -58 -91l51 -106h-75zM288 511v-77h42q27 0 37.5 9.5q10.5 9.5 10.5 28.5q0 19 -10.5 29q-10.5 10 -37.5 10z" />
<glyph unicode="&#175;" horiz-adv-x="300" d="M5 680h290v-90l-290 0z" />
<glyph unicode="&#176;" horiz-adv-x="360" d="M180 369q-37 0 -69 13.5q-32 13.5 -55.5 36.5q-23.5 23 -37 54q-13.5 31 -13.5 66q0 35 13.5 66q13.5 31 37 54q23.5 23 55.5 36.5q32 13.5 69 13.5q37 0 69 -13.5q32 -13.5 55.5 -36.5q23.5 -23 37 -54q13.5 -31 13.5 -66q0 -35 -13.5 -66q-13.5 -31 -37 -54q-23.5 -23 -55.5 -36.5q-32 -13.5 -69 -13.5zt0 0zM180 460q35 0 58.5 23q23.5 23 23.5 56q0 33 -23.5 56q-23.5 23 -58.5 23q-35 0 -58 -23q-23 -23 -23 -56q0 -33 23 -56t58 -23z" />
<glyph unicode="&#177;" horiz-adv-x="590" d="M65 473h172v183h116v-183h172v-106h-172v-129h-116v129h-172zM65 165h460v-106l-460 0z" />
<glyph unicode="&#178;" horiz-adv-x="355" d="M16 462l140 128q25 22 40 38.5q15 16.5 23.5 29q8.5 12.5 11 23q2.5 10.5 2.5 21.5q0 25 -15 39q-15 14 -45 14q-31 0 -45.5 -14q-14.5 -14 -14.5 -40l-97 0q0 60 41 99q41 39 116 39q74 0 115.5 -38.5q41.5 -38.5 41.5 -98.5q0 -45 -28 -84q-28 -39 -88 -91l-74 -65h190v-82l-314 0z" />
<glyph unicode="&#179;" horiz-adv-x="370" d="M180 371q-79 0 -121 40q-42 40 -44 110l96 0q6 -66 69 -66q34 0 51 16q17 16 17 43q0 26 -17.5 42.5q-17.5 16.5 -50.5 16.5h-57v74h57q29 0 43.5 14.5q14.5 14.5 14.5 39.5q0 26 -14.5 40q-14.5 14 -43.5 14q-53 0 -59 -54l-96 0q2 61 42.5 99.5q40.5 38.5 112.5 38.5q37 0 65.5 -10q28.5 -10 48.5 -27q20 -17 30.5 -40q10.5 -23 10.5 -50q0 -32 -13.5 -57.5q-13.5 -25.5 -41.5 -41.5q32 -17 48.5 -45q16.5 -28 16.5 -61q0 -60 -42 -98t-123 -38z" />
<glyph unicode="&#180;" horiz-adv-x="250" d="M119 710h126l-130 -150l-110 0z" />
<glyph unicode="&#181;" horiz-adv-x="570" d="M255 -9q-41 0 -74 15l0 -206h-116v700h116v-290q0 -55 26 -83q26 -28 68 -28q51 0 81.5 29q30.5 29 32.5 77l0 295h116v-500h-91l-9 55q-27 -31 -65 -47.5t-85 -16.5z" />
<glyph unicode="&#182;" horiz-adv-x="660" d="M442 594h-127v-794h-119v464q-38 8 -70 28q-32 20 -55.5 48.5q-23.5 28.5 -37 64q-13.5 35.5 -13.5 75.5q0 45 17.5 85q17.5 40 47.5 70q30 30 70 47.5q40 17.5 85 17.5h410v-106h-89v-794l-119 0z" />
<glyph unicode="&#183;" horiz-adv-x="250" d="M125 180q-35 0 -57.5 23.5q-22.5 23.5 -22.5 56.5q0 33 22.5 56.5q22.5 23.5 57.5 23.5q35 0 57.5 -23.5q22.5 -23.5 22.5 -56.5q0 -33 -22.5 -56.5t-57.5 -23.5z" />
<glyph unicode="&#184;" horiz-adv-x="190" d="M64 13h68l-11 -43q32 -8 48 -27.5q16 -19.5 16 -48.5q0 -45 -25.5 -69.5q-25.5 -24.5 -75.5 -24.5h-79v76h65q19 0 19 18q0 18 -19 18l-31 0z" />
<glyph unicode="&#185;" horiz-adv-x="260" d="M10 757l118 73h92v-450h-92v354l-118 -73z" />
<glyph unicode="&#186;" horiz-adv-x="360" d="M180 371q-74 0 -117 42q-43 42 -43 113v28q0 71 43 113q43 42 117 42q75 0 117.5 -42q42.5 -42 42.5 -113v-28q0 -71 -42.5 -113q-42.5 -42 -117.5 -42zt0 0zM180 453q31 0 48.5 18.5q17.5 18.5 17.5 54.5v28q0 36 -17.5 54.5q-17.5 18.5 -48.5 18.5q-31 0 -48.5 -18.5q-17.5 -18.5 -17.5 -54.5v-28q0 -36 17.5 -54.5t48.5 -18.5z" />
<glyph unicode="&#187;" horiz-adv-x="505" d="M359 60h-124l119 199l-119 201h127l118 -199zM154 60h-124l119 199l-119 201h127l118 -199z" />
<glyph unicode="&#188;" horiz-adv-x="850" d="M575 700h110l-410 -700h-110zM30 634l111 66h89v-400h-89v306l-111 -68zM490 152l160 248h125v-248h45v-77h-45v-75h-87v75h-198zM688 152v166l-105 -166z" />
<glyph unicode="&#189;" horiz-adv-x="880" d="M575 700h110l-410 -700h-110zM30 634l111 66h89v-400h-89v306l-111 -68zM550 80l124 100q27 21 43 36.5q16 15.5 24.5 27q8.5 11.5 11.5 21q3 9.5 3 19.5q0 20 -13.5 32q-13.5 12 -43.5 12q-29 0 -42 -12q-13 -12 -13 -34l-94 0q0 60 35.5 93.5q35.5 33.5 113.5 33.5q78 0 114.5 -33q36.5 -33 36.5 -92q0 -40 -23 -74.5q-23 -34.5 -81 -78.5l-66 -51h170v-80l-300 0z" />
<glyph unicode="&#190;" horiz-adv-x="900" d="M625 700h110l-410 -700h-110zM540 152l160 248h125v-248h45v-77h-45v-75h-87v75h-198zM738 152v166l-105 -166zM190 291q-78 0 -118 36.5q-40 36.5 -42 98.5l94 0q2 -26 18 -40q16 -14 48 -14q35 0 50.5 13.5q15.5 13.5 15.5 35.5q0 20 -15.5 34q-15.5 14 -50.5 14h-52v71h52q29 0 42.5 12q13.5 12 13.5 32q0 20 -13.5 32q-13.5 12 -42.5 12q-29 0 -41.5 -11.5q-12.5 -11.5 -14.5 -34.5l-94 0q2 57 39 92q37 35 111 35q75 0 112.5 -33q37.5 -33 37.5 -83q0 -26 -12.5 -48q-12.5 -22 -37.5 -36q30 -16 45 -41.5q15 -25.5 15 -55.5q0 -54 -38.5 -87.5t-121.5 -33.5z" />
<glyph unicode="&#191;" horiz-adv-x="500" d="M315 286q0 -51 -12 -84.5q-12 -33.5 -29.5 -57q-17.5 -23.5 -38 -39.5q-20.5 -16 -38 -31.5q-17.5 -15.5 -29.5 -35q-12 -19.5 -12 -48.5q0 -40 24.5 -63.5q24.5 -23.5 69.5 -23.5q47 0 73.5 26q26.5 26 30.5 71l126 0q-2 -46 -18.5 -84q-16.5 -38 -46 -66q-29.5 -28 -70 -43.5q-40.5 -15.5 -90.5 -15.5q-55 0 -97 14q-42 14 -70.5 39q-28.5 25 -43 59.5q-14.5 34.5 -14.5 76.5q0 43 12 72q12 29 30.5 50.5q18.5 21.5 40 38.5q21.5 17 40 37q18.5 20 30.5 45q12 25 12 63zM255 509q35 0 57.5 -23.5q22.5 -23.5 22.5 -56.5q0 -33 -22.5 -56.5q-22.5 -23.5 -57.5 -23.5q-35 0 -57.5 23.5q-22.5 23.5 -22.5 56.5q0 33 22.5 56.5t57.5 23.5z" />
<glyph unicode="&#192;" horiz-adv-x="650" d="M454 177h-265l-58 -177h-126l250 700h140l250 -700h-132zM224 283h195l-50 153l-47 144l-47 -144zM141 910h130l110 -150l-112 0z" />
<glyph unicode="&#193;" horiz-adv-x="650" d="M454 177h-265l-58 -177h-126l250 700h140l250 -700h-132zM224 283h195l-50 153l-47 144l-47 -144zM379 910h130l-128 -150l-112 0z" />
<glyph unicode="&#194;" horiz-adv-x="650" d="M454 177h-265l-58 -177h-126l250 700h140l250 -700h-132zM224 283h195l-50 153l-47 144l-47 -144zM325 835l-63 -75h-112l110 150h130l110 -150l-112 0z" />
<glyph unicode="&#195;" horiz-adv-x="650" d="M454 177h-265l-58 -177h-126l250 700h140l250 -700h-132zM224 283h195l-50 153l-47 144l-47 -144zM395 761q-28 0 -47.5 10q-19.5 10 -35 22q-15.5 12 -29 22q-13.5 10 -28.5 10q-17 0 -26 -11q-9 -11 -9 -38l-70 0q0 72 27.5 103.5q27.5 31.5 77.5 31.5q27 0 46.5 -10q19.5 -10 35 -22q15.5 -12 29 -22q13.5 -10 29.5 -10q17 0 26 11q9 11 9 37l70 0q0 -72 -27.5 -103t-77.5 -31z" />
<glyph unicode="&#196;" horiz-adv-x="650" d="M454 177h-265l-58 -177h-126l250 700h140l250 -700h-132zM224 283h195l-50 153l-47 144l-47 -144zM220 765q-29 0 -49.5 20.5q-20.5 20.5 -20.5 49.5q0 29 20.5 49.5q20.5 20.5 49.5 20.5q29 0 49.5 -20.5q20.5 -20.5 20.5 -49.5q0 -29 -20.5 -49.5q-20.5 -20.5 -49.5 -20.5zt0 0zM430 765q-29 0 -49.5 20.5q-20.5 20.5 -20.5 49.5q0 29 20.5 49.5q20.5 20.5 49.5 20.5q29 0 49.5 -20.5q20.5 -20.5 20.5 -49.5q0 -29 -20.5 -49.5t-49.5 -20.5z" />
<glyph unicode="&#197;" horiz-adv-x="650" d="M454 177h-265l-58 -177h-126l250 700h140l250 -700h-132zM224 283h195l-50 153l-47 144l-47 -144zM325 726q-52 0 -83.5 30.5q-31.5 30.5 -31.5 78.5q0 48 31.5 78.5q31.5 30.5 83.5 30.5q52 0 83.5 -30.5q31.5 -30.5 31.5 -78.5q0 -48 -31.5 -78.5q-31.5 -30.5 -83.5 -30.5zt0 0zM325 794q17 0 28 11q11 11 11 30q0 19 -11 30q-11 11 -28 11q-17 0 -28 -11q-11 -11 -11 -30q0 -19 11 -30t28 -11z" />
<glyph unicode="&#198;" horiz-adv-x="930" d="M370 700h520v-106h-330v-181h270v-106h-270v-201h330v-106h-450v182h-212l-94 -182h-134zM440 288v303l-157 -303z" />
<glyph unicode="&#199;" horiz-adv-x="670" d="M314 -7q-62 5 -111.5 29.5q-49.5 24.5 -84.5 67q-35 42.5 -54 101.5q-19 59 -19 133v52q0 79 22 140.5q22 61.5 62 104.5q40 43 96.5 65.5q56.5 22.5 124.5 22.5q61 0 110.5 -18q49.5 -18 85.5 -48.5q36 -30.5 58.5 -71q22.5 -40.5 30.5 -86.5l-132 0q-8 23 -21 43.5q-13 20.5 -32 35.5q-19 15 -44 24q-25 9 -56 9q-80 0 -129.5 -55q-49.5 -55 -49.5 -166v-52q0 -55 13.5 -96.5q13.5 -41.5 37 -69q23.5 -27.5 56.5 -41.5q33 -14 72 -14q61 0 100 36q39 36 53 96l132 0q-7 -50 -27.5 -92q-20.5 -42 -52.5 -74q-32 -32 -75.5 -52q-43.5 -20 -97.5 -24l-6 -23q32 -8 48 -27.5q16 -19.5 16 -48.5q0 -45 -25.5 -69.5q-25.5 -24.5 -75.5 -24.5h-79v76h65q19 0 19 18q0 16 -16 18l-34 0z" />
<glyph unicode="&#200;" horiz-adv-x="560" d="M70 700h450v-106h-330v-181h270v-106h-270v-201h330v-106h-450zM111 910h130l110 -150l-112 0z" />
<glyph unicode="&#201;" horiz-adv-x="560" d="M70 700h450v-106h-330v-181h270v-106h-270v-201h330v-106h-450zM349 910h130l-128 -150l-112 0z" />
<glyph unicode="&#202;" horiz-adv-x="560" d="M70 700h450v-106h-330v-181h270v-106h-270v-201h330v-106h-450zM295 835l-63 -75h-112l110 150h130l110 -150l-112 0z" />
<glyph unicode="&#203;" horiz-adv-x="560" d="M70 700h450v-106h-330v-181h270v-106h-270v-201h330v-106h-450zM190 765q-29 0 -49.5 20.5q-20.5 20.5 -20.5 49.5q0 29 20.5 49.5q20.5 20.5 49.5 20.5q29 0 49.5 -20.5q20.5 -20.5 20.5 -49.5q0 -29 -20.5 -49.5q-20.5 -20.5 -49.5 -20.5zt0 0zM400 765q-29 0 -49.5 20.5q-20.5 20.5 -20.5 49.5q0 29 20.5 49.5q20.5 20.5 49.5 20.5q29 0 49.5 -20.5q20.5 -20.5 20.5 -49.5q0 -29 -20.5 -49.5t-49.5 -20.5z" />
<glyph unicode="&#204;" horiz-adv-x="270" d="M75 700h120v-700h-120zM-49 910h130l110 -150l-112 0z" />
<glyph unicode="&#205;" horiz-adv-x="270" d="M75 700h120v-700h-120zM189 910h130l-128 -150l-112 0z" />
<glyph unicode="&#206;" horiz-adv-x="270" d="M75 700h120v-700h-120zM135 835l-63 -75h-112l110 150h130l110 -150l-112 0z" />
<glyph unicode="&#207;" horiz-adv-x="270" d="M75 700h120v-700h-120zM30 765q-29 0 -49.5 20.5q-20.5 20.5 -20.5 49.5q0 29 20.5 49.5q20.5 20.5 49.5 20.5q29 0 49.5 -20.5q20.5 -20.5 20.5 -49.5q0 -29 -20.5 -49.5q-20.5 -20.5 -49.5 -20.5zt0 0zM240 765q-29 0 -49.5 20.5q-20.5 20.5 -20.5 49.5q0 29 20.5 49.5q20.5 20.5 49.5 20.5q29 0 49.5 -20.5q20.5 -20.5 20.5 -49.5q0 -29 -20.5 -49.5t-49.5 -20.5z" />
<glyph unicode="&#208;" horiz-adv-x="705" d="M5 393h90v307h230q164 0 249.5 -84q85.5 -84 85.5 -238v-56q0 -153 -86 -237.5q-86 -84.5 -249 -84.5h-230v307h-90zM215 594v-201h160v-86h-160v-201h110q104 0 156.5 53q52.5 53 52.5 163v56q0 109 -53 162.5q-53 53.5 -156 53.5z" />
<glyph unicode="&#209;" horiz-adv-x="710" d="M232 460l-42 91v-551h-120v700h168l240 -460l42 -92v552h120v-700h-168zM425 761q-28 0 -47.5 10q-19.5 10 -35 22q-15.5 12 -29 22q-13.5 10 -28.5 10q-17 0 -26 -11q-9 -11 -9 -38l-70 0q0 72 27.5 103.5q27.5 31.5 77.5 31.5q27 0 46.5 -10q19.5 -10 35 -22q15.5 -12 29 -22q13.5 -10 29.5 -10q17 0 26 11q9 11 9 37l70 0q0 -72 -27.5 -103t-77.5 -31z" />
<glyph unicode="&#210;" horiz-adv-x="710" d="M355 -9q-70 0 -127.5 22.5q-57.5 22.5 -98 65q-40.5 42.5 -62.5 104.5q-22 62 -22 141v52q0 78 22.5 140q22.5 62 63 104.5q40.5 42.5 98 65.5q57.5 23 126.5 23q70 0 127.5 -22.5q57.5 -22.5 98 -65.5q40.5 -43 62.5 -104.5q22 -61.5 22 -140.5v-52q0 -78 -22.5 -140q-22.5 -62 -63 -105q-40.5 -43 -98 -65.5q-57.5 -22.5 -126.5 -22.5zt0 0zM355 103q82 0 133 55.5q51 55.5 51 165.5v52q0 54 -13.5 95.5q-13.5 41.5 -38 69q-24.5 27.5 -58.5 42q-34 14.5 -74 14.5q-83 0 -133.5 -55.5q-50.5 -55.5 -50.5 -165.5v-52q0 -109 51.5 -165q51.5 -56 132.5 -56zt0 0zM171 910h130l110 -150l-112 0z" />
<glyph unicode="&#211;" horiz-adv-x="710" d="M355 -9q-70 0 -127.5 22.5q-57.5 22.5 -98 65q-40.5 42.5 -62.5 104.5q-22 62 -22 141v52q0 78 22.5 140q22.5 62 63 104.5q40.5 42.5 98 65.5q57.5 23 126.5 23q70 0 127.5 -22.5q57.5 -22.5 98 -65.5q40.5 -43 62.5 -104.5q22 -61.5 22 -140.5v-52q0 -78 -22.5 -140q-22.5 -62 -63 -105q-40.5 -43 -98 -65.5q-57.5 -22.5 -126.5 -22.5zt0 0zM355 103q82 0 133 55.5q51 55.5 51 165.5v52q0 54 -13.5 95.5q-13.5 41.5 -38 69q-24.5 27.5 -58.5 42q-34 14.5 -74 14.5q-83 0 -133.5 -55.5q-50.5 -55.5 -50.5 -165.5v-52q0 -109 51.5 -165q51.5 -56 132.5 -56zt0 0zM409 910h130l-128 -150l-112 0z" />
<glyph unicode="&#212;" horiz-adv-x="710" d="M355 -9q-70 0 -127.5 22.5q-57.5 22.5 -98 65q-40.5 42.5 -62.5 104.5q-22 62 -22 141v52q0 78 22.5 140q22.5 62 63 104.5q40.5 42.5 98 65.5q57.5 23 126.5 23q70 0 127.5 -22.5q57.5 -22.5 98 -65.5q40.5 -43 62.5 -104.5q22 -61.5 22 -140.5v-52q0 -78 -22.5 -140q-22.5 -62 -63 -105q-40.5 -43 -98 -65.5q-57.5 -22.5 -126.5 -22.5zt0 0zM355 103q82 0 133 55.5q51 55.5 51 165.5v52q0 54 -13.5 95.5q-13.5 41.5 -38 69q-24.5 27.5 -58.5 42q-34 14.5 -74 14.5q-83 0 -133.5 -55.5q-50.5 -55.5 -50.5 -165.5v-52q0 -109 51.5 -165q51.5 -56 132.5 -56zt0 0zM355 835l-63 -75h-112l110 150h130l110 -150l-112 0z" />
<glyph unicode="&#213;" horiz-adv-x="710" d="M355 -9q-70 0 -127.5 22.5q-57.5 22.5 -98 65q-40.5 42.5 -62.5 104.5q-22 62 -22 141v52q0 78 22.5 140q22.5 62 63 104.5q40.5 42.5 98 65.5q57.5 23 126.5 23q70 0 127.5 -22.5q57.5 -22.5 98 -65.5q40.5 -43 62.5 -104.5q22 -61.5 22 -140.5v-52q0 -78 -22.5 -140q-22.5 -62 -63 -105q-40.5 -43 -98 -65.5q-57.5 -22.5 -126.5 -22.5zt0 0zM355 103q82 0 133 55.5q51 55.5 51 165.5v52q0 54 -13.5 95.5q-13.5 41.5 -38 69q-24.5 27.5 -58.5 42q-34 14.5 -74 14.5q-83 0 -133.5 -55.5q-50.5 -55.5 -50.5 -165.5v-52q0 -109 51.5 -165q51.5 -56 132.5 -56zt0 0zM425 761q-28 0 -47.5 10q-19.5 10 -35 22q-15.5 12 -29 22q-13.5 10 -28.5 10q-17 0 -26 -11q-9 -11 -9 -38l-70 0q0 72 27.5 103.5q27.5 31.5 77.5 31.5q27 0 46.5 -10q19.5 -10 35 -22q15.5 -12 29 -22q13.5 -10 29.5 -10q17 0 26 11q9 11 9 37l70 0q0 -72 -27.5 -103t-77.5 -31z" />
<glyph unicode="&#214;" horiz-adv-x="710" d="M355 -9q-70 0 -127.5 22.5q-57.5 22.5 -98 65q-40.5 42.5 -62.5 104.5q-22 62 -22 141v52q0 78 22.5 140q22.5 62 63 104.5q40.5 42.5 98 65.5q57.5 23 126.5 23q70 0 127.5 -22.5q57.5 -22.5 98 -65.5q40.5 -43 62.5 -104.5q22 -61.5 22 -140.5v-52q0 -78 -22.5 -140q-22.5 -62 -63 -105q-40.5 -43 -98 -65.5q-57.5 -22.5 -126.5 -22.5zt0 0zM355 103q82 0 133 55.5q51 55.5 51 165.5v52q0 54 -13.5 95.5q-13.5 41.5 -38 69q-24.5 27.5 -58.5 42q-34 14.5 -74 14.5q-83 0 -133.5 -55.5q-50.5 -55.5 -50.5 -165.5v-52q0 -109 51.5 -165q51.5 -56 132.5 -56zt0 0zM250 765q-29 0 -49.5 20.5q-20.5 20.5 -20.5 49.5q0 29 20.5 49.5q20.5 20.5 49.5 20.5q29 0 49.5 -20.5q20.5 -20.5 20.5 -49.5q0 -29 -20.5 -49.5q-20.5 -20.5 -49.5 -20.5zt0 0zM460 765q-29 0 -49.5 20.5q-20.5 20.5 -20.5 49.5q0 29 20.5 49.5q20.5 20.5 49.5 20.5q29 0 49.5 -20.5q20.5 -20.5 20.5 -49.5q0 -29 -20.5 -49.5t-49.5 -20.5z" />
<glyph unicode="&#215;" horiz-adv-x="590" d="M85 221l136 136l-136 136l74 74l136 -136l136 136l74 -74l-136 -136l136 -136l-74 -74l-136 136l-136 -136z" />
<glyph unicode="&#216;" horiz-adv-x="710" d="M45 43l58 69q-58 82 -58 212v52q0 78 22.5 140q22.5 62 63 105q40.5 43 97.5 65.5q57 22.5 127 22.5q119 0 196 -62h52l62 10l-58 -69q28 -42 43 -94.5q15 -52.5 15 -117.5v-52q0 -78 -22.5 -140q-22.5 -62 -63 -105q-40.5 -43 -98 -65.5q-57.5 -22.5 -126.5 -22.5q-118 0 -197 61h-51zM171 324q0 -64 18 -109l285 340q-47 42 -119 42q-83 0 -133.5 -55.5q-50.5 -55.5 -50.5 -165.5zM355 103q82 0 133 55.5q51 55.5 51 165.5v52q0 32 -5 58.5q-5 26.5 -14 49.5l-284 -339q46 -42 119 -42z" />
<glyph unicode="&#217;" horiz-adv-x="690" d="M345 -9q-133 0 -206.5 75.5q-73.5 75.5 -73.5 218.5v415h120v-415q0 -91 42.5 -136.5q42.5 -45.5 117.5 -45.5q75 0 117.5 44.5q42.5 44.5 42.5 137.5v415h120v-415q0 -142 -74.5 -218q-74.5 -76 -205.5 -76zt0 0zM161 910h130l110 -150l-112 0z" />
<glyph unicode="&#218;" horiz-adv-x="690" d="M345 -9q-133 0 -206.5 75.5q-73.5 75.5 -73.5 218.5v415h120v-415q0 -91 42.5 -136.5q42.5 -45.5 117.5 -45.5q75 0 117.5 44.5q42.5 44.5 42.5 137.5v415h120v-415q0 -142 -74.5 -218q-74.5 -76 -205.5 -76zt0 0zM399 910h130l-128 -150l-112 0z" />
<glyph unicode="&#219;" horiz-adv-x="690" d="M345 -9q-133 0 -206.5 75.5q-73.5 75.5 -73.5 218.5v415h120v-415q0 -91 42.5 -136.5q42.5 -45.5 117.5 -45.5q75 0 117.5 44.5q42.5 44.5 42.5 137.5v415h120v-415q0 -142 -74.5 -218q-74.5 -76 -205.5 -76zt0 0zM345 835l-63 -75h-112l110 150h130l110 -150l-112 0z" />
<glyph unicode="&#220;" horiz-adv-x="690" d="M345 -9q-133 0 -206.5 75.5q-73.5 75.5 -73.5 218.5v415h120v-415q0 -91 42.5 -136.5q42.5 -45.5 117.5 -45.5q75 0 117.5 44.5q42.5 44.5 42.5 137.5v415h120v-415q0 -142 -74.5 -218q-74.5 -76 -205.5 -76zt0 0zM240 765q-29 0 -49.5 20.5q-20.5 20.5 -20.5 49.5q0 29 20.5 49.5q20.5 20.5 49.5 20.5q29 0 49.5 -20.5q20.5 -20.5 20.5 -49.5q0 -29 -20.5 -49.5q-20.5 -20.5 -49.5 -20.5zt0 0zM450 765q-29 0 -49.5 20.5q-20.5 20.5 -20.5 49.5q0 29 20.5 49.5q20.5 20.5 49.5 20.5q29 0 49.5 -20.5q20.5 -20.5 20.5 -49.5q0 -29 -20.5 -49.5t-49.5 -20.5z" />
<glyph unicode="&#221;" horiz-adv-x="650" d="M270 235l-260 465h136l186 -342l178 342h130l-250 -465v-235h-120zM382 910h130l-128 -150l-112 0z" />
<glyph unicode="&#222;" horiz-adv-x="600" d="M70 700h120v-109h120q141 0 205.5 -59.5q64.5 -59.5 64.5 -171.5q0 -105 -68 -168q-68 -63 -202 -63h-120v-129h-120zM190 485v-250h120q72 0 108 34q36 34 36 91q0 60 -34.5 92.5q-34.5 32.5 -109.5 32.5z" />
<glyph unicode="&#223;" horiz-adv-x="560" d="M65 485q0 51 16 92q16 41 45.5 70.5q29.5 29.5 71 45.5q41.5 16 92.5 16q102 0 158.5 -54.5q56.5 -54.5 56.5 -144.5q0 -40 -19.5 -74.5q-19.5 -34.5 -56.5 -58.5q49 -21 72.5 -59.5q23.5 -38.5 23.5 -89.5v-32q0 -95 -53 -145.5q-53 -50.5 -162 -50.5h-60v102h60q44 0 68.5 24.5q24.5 24.5 24.5 69.5v32q0 44 -24.5 68.5q-24.5 24.5 -68.5 24.5h-60v98h40q44 0 68.5 24.5q24.5 24.5 24.5 66.5q0 42 -24.5 66.5q-24.5 24.5 -68.5 24.5q-50 0 -79.5 -31q-29.5 -31 -29.5 -85v-485l-116 0z" />
<glyph unicode="&#224;" horiz-adv-x="520" d="M195 -9q-81 0 -123 40q-42 40 -42 111q0 39 12.5 70.5q12.5 31.5 40 53q27.5 21.5 71 33q43.5 11.5 106.5 11.5h84v30q0 36 -19.5 54.5q-19.5 18.5 -64.5 18.5q-42 0 -61 -16q-19 -16 -23 -42l-126 0q4 67 54.5 110.5q50.5 43.5 155.5 43.5q100 0 150 -46q50 -46 50 -123v-340h-91l-12 69q-26 -38 -67.5 -58q-41.5 -20 -94.5 -20zt0 0zM215 87q28 0 51.5 9.5q23.5 9.5 40.5 26q17 16.5 27 37.5q10 21 10 45v15h-84q-60 0 -84 -20q-24 -20 -24 -54q0 -27 16.5 -43q16.5 -16 46.5 -16zt0 0zM70 710h126l114 -150l-110 0z" />
<glyph unicode="&#225;" horiz-adv-x="520" d="M195 -9q-81 0 -123 40q-42 40 -42 111q0 39 12.5 70.5q12.5 31.5 40 53q27.5 21.5 71 33q43.5 11.5 106.5 11.5h84v30q0 36 -19.5 54.5q-19.5 18.5 -64.5 18.5q-42 0 -61 -16q-19 -16 -23 -42l-126 0q4 67 54.5 110.5q50.5 43.5 155.5 43.5q100 0 150 -46q50 -46 50 -123v-340h-91l-12 69q-26 -38 -67.5 -58q-41.5 -20 -94.5 -20zt0 0zM215 87q28 0 51.5 9.5q23.5 9.5 40.5 26q17 16.5 27 37.5q10 21 10 45v15h-84q-60 0 -84 -20q-24 -20 -24 -54q0 -27 16.5 -43q16.5 -16 46.5 -16zt0 0zM314 710h126l-130 -150l-110 0z" />
<glyph unicode="&#226;" horiz-adv-x="520" d="M195 -9q-81 0 -123 40q-42 40 -42 111q0 39 12.5 70.5q12.5 31.5 40 53q27.5 21.5 71 33q43.5 11.5 106.5 11.5h84v30q0 36 -19.5 54.5q-19.5 18.5 -64.5 18.5q-42 0 -61 -16q-19 -16 -23 -42l-126 0q4 67 54.5 110.5q50.5 43.5 155.5 43.5q100 0 150 -46q50 -46 50 -123v-340h-91l-12 69q-26 -38 -67.5 -58q-41.5 -20 -94.5 -20zt0 0zM215 87q28 0 51.5 9.5q23.5 9.5 40.5 26q17 16.5 27 37.5q10 21 10 45v15h-84q-60 0 -84 -20q-24 -20 -24 -54q0 -27 16.5 -43q16.5 -16 46.5 -16zt0 0zM255 636l-67 -76h-108l114 150h122l114 -150l-108 0z" />
<glyph unicode="&#227;" horiz-adv-x="520" d="M195 -9q-81 0 -123 40q-42 40 -42 111q0 39 12.5 70.5q12.5 31.5 40 53q27.5 21.5 71 33q43.5 11.5 106.5 11.5h84v30q0 36 -19.5 54.5q-19.5 18.5 -64.5 18.5q-42 0 -61 -16q-19 -16 -23 -42l-126 0q4 67 54.5 110.5q50.5 43.5 155.5 43.5q100 0 150 -46q50 -46 50 -123v-340h-91l-12 69q-26 -38 -67.5 -58q-41.5 -20 -94.5 -20zt0 0zM215 87q28 0 51.5 9.5q23.5 9.5 40.5 26q17 16.5 27 37.5q10 21 10 45v15h-84q-60 0 -84 -20q-24 -20 -24 -54q0 -27 16.5 -43q16.5 -16 46.5 -16zt0 0zM320 561q-27 0 -46 9.5q-19 9.5 -33 21.5q-14 12 -26 21.5q-12 9.5 -25 9.5q-13 0 -21.5 -11q-8.5 -11 -8.5 -37l-70 0q0 71 27.5 102.5q27.5 31.5 72.5 31.5q27 0 45.5 -9.5q18.5 -9.5 33 -21.5q14.5 -12 26 -21.5q11.5 -9.5 25.5 -9.5q13 0 21.5 11q8.5 11 8.5 37l70 0q0 -71 -27.5 -102.5t-72.5 -31.5z" />
<glyph unicode="&#228;" horiz-adv-x="520" d="M195 -9q-81 0 -123 40q-42 40 -42 111q0 39 12.5 70.5q12.5 31.5 40 53q27.5 21.5 71 33q43.5 11.5 106.5 11.5h84v30q0 36 -19.5 54.5q-19.5 18.5 -64.5 18.5q-42 0 -61 -16q-19 -16 -23 -42l-126 0q4 67 54.5 110.5q50.5 43.5 155.5 43.5q100 0 150 -46q50 -46 50 -123v-340h-91l-12 69q-26 -38 -67.5 -58q-41.5 -20 -94.5 -20zt0 0zM215 87q28 0 51.5 9.5q23.5 9.5 40.5 26q17 16.5 27 37.5q10 21 10 45v15h-84q-60 0 -84 -20q-24 -20 -24 -54q0 -27 16.5 -43q16.5 -16 46.5 -16zt0 0zM160 565q-29 0 -49.5 20.5q-20.5 20.5 -20.5 49.5q0 29 20.5 49.5q20.5 20.5 49.5 20.5q29 0 49.5 -20.5q20.5 -20.5 20.5 -49.5q0 -29 -20.5 -49.5q-20.5 -20.5 -49.5 -20.5zt0 0zM350 565q-29 0 -49.5 20.5q-20.5 20.5 -20.5 49.5q0 29 20.5 49.5q20.5 20.5 49.5 20.5q29 0 49.5 -20.5q20.5 -20.5 20.5 -49.5q0 -29 -20.5 -49.5t-49.5 -20.5z" />
<glyph unicode="&#229;" horiz-adv-x="520" d="M195 -9q-81 0 -123 40q-42 40 -42 111q0 39 12.5 70.5q12.5 31.5 40 53q27.5 21.5 71 33q43.5 11.5 106.5 11.5h84v30q0 36 -19.5 54.5q-19.5 18.5 -64.5 18.5q-42 0 -61 -16q-19 -16 -23 -42l-126 0q4 67 54.5 110.5q50.5 43.5 155.5 43.5q100 0 150 -46q50 -46 50 -123v-340h-91l-12 69q-26 -38 -67.5 -58q-41.5 -20 -94.5 -20zt0 0zM215 87q28 0 51.5 9.5q23.5 9.5 40.5 26q17 16.5 27 37.5q10 21 10 45v15h-84q-60 0 -84 -20q-24 -20 -24 -54q0 -27 16.5 -43q16.5 -16 46.5 -16zt0 0zM255 526q-52 0 -83.5 30.5q-31.5 30.5 -31.5 78.5q0 48 31.5 78.5q31.5 30.5 83.5 30.5q52 0 83.5 -30.5q31.5 -30.5 31.5 -78.5q0 -48 -31.5 -78.5q-31.5 -30.5 -83.5 -30.5zt0 0zM255 590q19 0 31 12.5q12 12.5 12 32.5q0 20 -12 32.5q-12 12.5 -31 12.5q-19 0 -31 -12.5q-12 -12.5 -12 -32.5q0 -20 12 -32.5t31 -12.5z" />
<glyph unicode="&#230;" horiz-adv-x="855" d="M205 -9q-88 0 -131.5 40q-43.5 40 -43.5 109q0 38 12.5 68.5q12.5 30.5 40 52q27.5 21.5 71 33q43.5 11.5 106.5 11.5h86v35q0 36 -20 54.5q-20 18.5 -65 18.5q-43 0 -62 -16q-19 -16 -23 -42l-126 0q2 33 15.5 61.5q13.5 28.5 39 49q25.5 20.5 64.5 32q39 11.5 92 11.5q57 0 98 -17q41 -17 65 -47q31 30 71.5 47q40.5 17 89.5 17q109 0 172 -67q63 -67 63 -192q0 -14 0 -17q0 -3 0 -4l-1 -14h-357q4 -65 35 -93.5q31 -28.5 88 -28.5q53 0 77.5 18.5q24.5 18.5 32.5 43.5l120 0q-8 -35 -25 -65q-17 -30 -45 -52q-28 -22 -68 -34.5q-40 -12.5 -92 -12.5q-133 0 -192 93q-26 -45 -74 -69q-48 -24 -114 -24zt0 0zM215 87q65 0 98 31.5q33 31.5 33 86.5v10h-86q-60 0 -84 -19q-24 -19 -24 -51q0 -26 16.5 -42q16.5 -16 46.5 -16zt0 0zM585 407q-53 0 -83 -24q-30 -24 -38 -78l238 0q-8 54 -37 78t-80 24z" />
<glyph unicode="&#231;" horiz-adv-x="505" d="M234 -7q-93 11 -146 73.5q-53 62.5 -53 167.5v32q0 56 16.5 101q16.5 45 47.5 76.5q31 31.5 74.5 48.5q43.5 17 96.5 17q95 0 147.5 -47q52.5 -47 67.5 -122l-124 0q-8 27 -33 44q-25 17 -63 17q-22 0 -41.5 -7.5q-19.5 -7.5 -34.5 -24q-15 -16.5 -23.5 -42q-8.5 -25.5 -8.5 -61.5v-32q0 -35 9 -60.5q9 -25.5 24 -42q15 -16.5 34.5 -24.5q19.5 -8 40.5 -8q43 0 65.5 19q22.5 19 30.5 47l124 0q-14 -72 -58.5 -118q-44.5 -46 -124.5 -54l-6 -23q32 -8 48 -27.5q16 -19.5 16 -48.5q0 -45 -25.5 -69.5q-25.5 -24.5 -75.5 -24.5h-79v76h65q19 0 19 18q0 18 -19 18l-31 0z" />
<glyph unicode="&#232;" horiz-adv-x="540" d="M270 -9q-54 0 -97 16.5q-43 16.5 -74 48q-31 31.5 -47.5 76.5q-16.5 45 -16.5 102v32q0 57 16.5 102q16.5 45 47.5 76.5q31 31.5 74 48q43 16.5 97 16.5q109 0 172 -67q63 -67 63 -192v-39h-354q5 -63 35 -90.5q30 -27.5 84 -27.5q53 0 77.5 18.5q24.5 18.5 32.5 43.5l120 0q-8 -35 -25 -65q-17 -30 -45 -52q-28 -22 -68 -34.5q-40 -12.5 -92 -12.5zt0 0zM270 407q-51 0 -80 -25q-29 -25 -37 -79l234 0q-7 56 -36.5 80q-29.5 24 -80.5 24zt0 0zM85 710h126l114 -150l-110 0z" />
<glyph unicode="&#233;" horiz-adv-x="540" d="M270 -9q-54 0 -97 16.5q-43 16.5 -74 48q-31 31.5 -47.5 76.5q-16.5 45 -16.5 102v32q0 57 16.5 102q16.5 45 47.5 76.5q31 31.5 74 48q43 16.5 97 16.5q109 0 172 -67q63 -67 63 -192v-39h-354q5 -63 35 -90.5q30 -27.5 84 -27.5q53 0 77.5 18.5q24.5 18.5 32.5 43.5l120 0q-8 -35 -25 -65q-17 -30 -45 -52q-28 -22 -68 -34.5q-40 -12.5 -92 -12.5zt0 0zM270 407q-51 0 -80 -25q-29 -25 -37 -79l234 0q-7 56 -36.5 80q-29.5 24 -80.5 24zt0 0zM329 710h126l-130 -150l-110 0z" />
<glyph unicode="&#234;" horiz-adv-x="540" d="M270 -9q-54 0 -97 16.5q-43 16.5 -74 48q-31 31.5 -47.5 76.5q-16.5 45 -16.5 102v32q0 57 16.5 102q16.5 45 47.5 76.5q31 31.5 74 48q43 16.5 97 16.5q109 0 172 -67q63 -67 63 -192v-39h-354q5 -63 35 -90.5q30 -27.5 84 -27.5q53 0 77.5 18.5q24.5 18.5 32.5 43.5l120 0q-8 -35 -25 -65q-17 -30 -45 -52q-28 -22 -68 -34.5q-40 -12.5 -92 -12.5zt0 0zM270 407q-51 0 -80 -25q-29 -25 -37 -79l234 0q-7 56 -36.5 80q-29.5 24 -80.5 24zt0 0zM270 636l-67 -76h-108l114 150h122l114 -150l-108 0z" />
<glyph unicode="&#235;" horiz-adv-x="540" d="M270 -9q-54 0 -97 16.5q-43 16.5 -74 48q-31 31.5 -47.5 76.5q-16.5 45 -16.5 102v32q0 57 16.5 102q16.5 45 47.5 76.5q31 31.5 74 48q43 16.5 97 16.5q109 0 172 -67q63 -67 63 -192v-39h-354q5 -63 35 -90.5q30 -27.5 84 -27.5q53 0 77.5 18.5q24.5 18.5 32.5 43.5l120 0q-8 -35 -25 -65q-17 -30 -45 -52q-28 -22 -68 -34.5q-40 -12.5 -92 -12.5zt0 0zM270 407q-51 0 -80 -25q-29 -25 -37 -79l234 0q-7 56 -36.5 80q-29.5 24 -80.5 24zt0 0zM175 565q-29 0 -49.5 20.5q-20.5 20.5 -20.5 49.5q0 29 20.5 49.5q20.5 20.5 49.5 20.5q29 0 49.5 -20.5q20.5 -20.5 20.5 -49.5q0 -29 -20.5 -49.5q-20.5 -20.5 -49.5 -20.5zt0 0zM365 565q-29 0 -49.5 20.5q-20.5 20.5 -20.5 49.5q0 29 20.5 49.5q20.5 20.5 49.5 20.5q29 0 49.5 -20.5q20.5 -20.5 20.5 -49.5q0 -29 -20.5 -49.5t-49.5 -20.5z" />
<glyph unicode="&#236;" horiz-adv-x="256" d="M70 500h116v-500h-116zM-57 710h126l114 -150l-110 0z" />
<glyph unicode="&#237;" horiz-adv-x="256" d="M70 500h116v-500h-116zM187 710h126l-130 -150l-110 0z" />
<glyph unicode="&#238;" horiz-adv-x="256" d="M70 500h116v-500h-116zM128 636l-67 -76h-108l114 150h122l114 -150l-108 0z" />
<glyph unicode="&#239;" horiz-adv-x="256" d="M70 500h116v-500h-116zM33 565q-29 0 -49.5 20.5q-20.5 20.5 -20.5 49.5q0 29 20.5 49.5q20.5 20.5 49.5 20.5q29 0 49.5 -20.5q20.5 -20.5 20.5 -49.5q0 -29 -20.5 -49.5q-20.5 -20.5 -49.5 -20.5zt0 0zM223 565q-29 0 -49.5 20.5q-20.5 20.5 -20.5 49.5q0 29 20.5 49.5q20.5 20.5 49.5 20.5q29 0 49.5 -20.5q20.5 -20.5 20.5 -49.5q0 -29 -20.5 -49.5t-49.5 -20.5z" />
<glyph unicode="&#240;" horiz-adv-x="545" d="M145 577l70 35q-24 23 -49 45q-25 22 -51 43l135 0q12 -11 24.5 -22q12.5 -11 24.5 -23l106 54v-64l-63 -32q33 -34 62.5 -73q29.5 -39 52 -82q22.5 -43 35.5 -90.5q13 -47.5 13 -99.5v-39q0 -54 -17 -98q-17 -44 -47.5 -75q-30.5 -31 -74 -48q-43.5 -17 -96.5 -17q-54 0 -97 16.5q-43 16.5 -74 47q-31 30.5 -47.5 73.5q-16.5 43 -16.5 96v32q0 52 16.5 95q16.5 43 46 74q29.5 31 70 47.5q40.5 16.5 87.5 16.5q44 0 81 -14q-17 24 -36.5 48q-19.5 24 -42.5 47l-112 -57zM270 99q52 0 82.5 32q30.5 32 30.5 93v38q-2 57 -32 88q-30 31 -81 31q-51 0 -82 -32.5q-31 -32.5 -31 -92.5v-32q0 -60 31 -92.5t82 -32.5z" />
<glyph unicode="&#241;" horiz-adv-x="575" d="M65 500h91l9 -56q56 65 155 65q92 0 143.5 -54.5q51.5 -54.5 51.5 -164.5v-290h-116v290q0 55 -26.5 83q-26.5 28 -72.5 28q-54 0 -85.5 -29q-31.5 -29 -33.5 -77l0 -295h-116zM355 561q-27 0 -46 9.5q-19 9.5 -33 21.5q-14 12 -26 21.5q-12 9.5 -25 9.5q-13 0 -21.5 -11q-8.5 -11 -8.5 -37l-70 0q0 71 27.5 102.5q27.5 31.5 72.5 31.5q27 0 45.5 -9.5q18.5 -9.5 33 -21.5q14.5 -12 26 -21.5q11.5 -9.5 25.5 -9.5q13 0 21.5 11q8.5 11 8.5 37l70 0q0 -71 -27.5 -102.5t-72.5 -31.5z" />
<glyph unicode="&#242;" horiz-adv-x="550" d="M275 -9q-113 0 -176.5 64q-63.5 64 -63.5 179v32q0 57 16.5 102q16.5 45 48 76.5q31.5 31.5 75.5 48q44 16.5 100 16.5q113 0 176.5 -64q63.5 -64 63.5 -179v-32q0 -57 -16.5 -102q-16.5 -45 -48 -76.5q-31.5 -31.5 -76 -48q-44.5 -16.5 -99.5 -16.5zt0 0zM275 99q57 0 87.5 33q30.5 33 30.5 102v32q0 68 -31.5 101.5q-31.5 33.5 -86.5 33.5q-57 0 -87.5 -33q-30.5 -33 -30.5 -102v-32q0 -68 31.5 -101.5q31.5 -33.5 86.5 -33.5zt0 0zM90 710h126l114 -150l-110 0z" />
<glyph unicode="&#243;" horiz-adv-x="550" d="M275 -9q-113 0 -176.5 64q-63.5 64 -63.5 179v32q0 57 16.5 102q16.5 45 48 76.5q31.5 31.5 75.5 48q44 16.5 100 16.5q113 0 176.5 -64q63.5 -64 63.5 -179v-32q0 -57 -16.5 -102q-16.5 -45 -48 -76.5q-31.5 -31.5 -76 -48q-44.5 -16.5 -99.5 -16.5zt0 0zM275 99q57 0 87.5 33q30.5 33 30.5 102v32q0 68 -31.5 101.5q-31.5 33.5 -86.5 33.5q-57 0 -87.5 -33q-30.5 -33 -30.5 -102v-32q0 -68 31.5 -101.5q31.5 -33.5 86.5 -33.5zt0 0zM334 710h126l-130 -150l-110 0z" />
<glyph unicode="&#244;" horiz-adv-x="550" d="M275 -9q-113 0 -176.5 64q-63.5 64 -63.5 179v32q0 57 16.5 102q16.5 45 48 76.5q31.5 31.5 75.5 48q44 16.5 100 16.5q113 0 176.5 -64q63.5 -64 63.5 -179v-32q0 -57 -16.5 -102q-16.5 -45 -48 -76.5q-31.5 -31.5 -76 -48q-44.5 -16.5 -99.5 -16.5zt0 0zM275 99q57 0 87.5 33q30.5 33 30.5 102v32q0 68 -31.5 101.5q-31.5 33.5 -86.5 33.5q-57 0 -87.5 -33q-30.5 -33 -30.5 -102v-32q0 -68 31.5 -101.5q31.5 -33.5 86.5 -33.5zt0 0zM275 636l-67 -76h-108l114 150h122l114 -150l-108 0z" />
<glyph unicode="&#245;" horiz-adv-x="550" d="M275 -9q-113 0 -176.5 64q-63.5 64 -63.5 179v32q0 57 16.5 102q16.5 45 48 76.5q31.5 31.5 75.5 48q44 16.5 100 16.5q113 0 176.5 -64q63.5 -64 63.5 -179v-32q0 -57 -16.5 -102q-16.5 -45 -48 -76.5q-31.5 -31.5 -76 -48q-44.5 -16.5 -99.5 -16.5zt0 0zM275 99q57 0 87.5 33q30.5 33 30.5 102v32q0 68 -31.5 101.5q-31.5 33.5 -86.5 33.5q-57 0 -87.5 -33q-30.5 -33 -30.5 -102v-32q0 -68 31.5 -101.5q31.5 -33.5 86.5 -33.5zt0 0zM340 561q-27 0 -46 9.5q-19 9.5 -33 21.5q-14 12 -26 21.5q-12 9.5 -25 9.5q-13 0 -21.5 -11q-8.5 -11 -8.5 -37l-70 0q0 71 27.5 102.5q27.5 31.5 72.5 31.5q27 0 45.5 -9.5q18.5 -9.5 33 -21.5q14.5 -12 26 -21.5q11.5 -9.5 25.5 -9.5q13 0 21.5 11q8.5 11 8.5 37l70 0q0 -71 -27.5 -102.5t-72.5 -31.5z" />
<glyph unicode="&#246;" horiz-adv-x="550" d="M275 -9q-113 0 -176.5 64q-63.5 64 -63.5 179v32q0 57 16.5 102q16.5 45 48 76.5q31.5 31.5 75.5 48q44 16.5 100 16.5q113 0 176.5 -64q63.5 -64 63.5 -179v-32q0 -57 -16.5 -102q-16.5 -45 -48 -76.5q-31.5 -31.5 -76 -48q-44.5 -16.5 -99.5 -16.5zt0 0zM275 99q57 0 87.5 33q30.5 33 30.5 102v32q0 68 -31.5 101.5q-31.5 33.5 -86.5 33.5q-57 0 -87.5 -33q-30.5 -33 -30.5 -102v-32q0 -68 31.5 -101.5q31.5 -33.5 86.5 -33.5zt0 0zM180 565q-29 0 -49.5 20.5q-20.5 20.5 -20.5 49.5q0 29 20.5 49.5q20.5 20.5 49.5 20.5q29 0 49.5 -20.5q20.5 -20.5 20.5 -49.5q0 -29 -20.5 -49.5q-20.5 -20.5 -49.5 -20.5zt0 0zM370 565q-29 0 -49.5 20.5q-20.5 20.5 -20.5 49.5q0 29 20.5 49.5q20.5 20.5 49.5 20.5q29 0 49.5 -20.5q20.5 -20.5 20.5 -49.5q0 -29 -20.5 -49.5t-49.5 -20.5z" />
<glyph unicode="&#247;" horiz-adv-x="590" d="M65 413h460v-106h-460zM295 490q-35 0 -57.5 23.5q-22.5 23.5 -22.5 56.5q0 33 22.5 56.5q22.5 23.5 57.5 23.5q35 0 57.5 -23.5q22.5 -23.5 22.5 -56.5q0 -33 -22.5 -56.5q-22.5 -23.5 -57.5 -23.5zt0 0zM295 70q-35 0 -57.5 23.5q-22.5 23.5 -22.5 56.5q0 33 22.5 56.5q22.5 23.5 57.5 23.5q35 0 57.5 -23.5q22.5 -23.5 22.5 -56.5q0 -33 -22.5 -56.5t-57.5 -23.5z" />
<glyph unicode="&#248;" horiz-adv-x="550" d="M35 37l41 45q-41 61 -41 152v32q0 115 63.5 179q63.5 64 176.5 64q91 0 151 -43h39l50 -3l-42 -46q20 -29 31 -67q11 -38 11 -84v-32q0 -115 -63.5 -179q-63.5 -64 -176.5 -64q-93 0 -151 42h-39zM157 234q0 -34 7 -56l183 202q-29 21 -72 21q-55 0 -86.5 -33.5q-31.5 -33.5 -31.5 -101.5zM275 99q55 0 86.5 33.5q31.5 33.5 31.5 101.5v32q0 16 -2 29.5q-2 13.5 -5 25.5l-184 -201q28 -21 73 -21z" />
<glyph unicode="&#249;" horiz-adv-x="565" d="M250 -9q-88 0 -139 54.5q-51 54.5 -51 164.5v290h116v-290q0 -55 26 -83q26 -28 68 -28q51 0 81.5 29q30.5 29 32.5 77l0 295h116v-500h-91l-9 55q-27 -31 -65 -47.5q-38 -16.5 -85 -16.5zt0 0zM95 710h126l114 -150l-110 0z" />
<glyph unicode="&#250;" horiz-adv-x="565" d="M250 -9q-88 0 -139 54.5q-51 54.5 -51 164.5v290h116v-290q0 -55 26 -83q26 -28 68 -28q51 0 81.5 29q30.5 29 32.5 77l0 295h116v-500h-91l-9 55q-27 -31 -65 -47.5q-38 -16.5 -85 -16.5zt0 0zM339 710h126l-130 -150l-110 0z" />
<glyph unicode="&#251;" horiz-adv-x="565" d="M250 -9q-88 0 -139 54.5q-51 54.5 -51 164.5v290h116v-290q0 -55 26 -83q26 -28 68 -28q51 0 81.5 29q30.5 29 32.5 77l0 295h116v-500h-91l-9 55q-27 -31 -65 -47.5q-38 -16.5 -85 -16.5zt0 0zM280 636l-67 -76h-108l114 150h122l114 -150l-108 0z" />
<glyph unicode="&#252;" horiz-adv-x="565" d="M250 -9q-88 0 -139 54.5q-51 54.5 -51 164.5v290h116v-290q0 -55 26 -83q26 -28 68 -28q51 0 81.5 29q30.5 29 32.5 77l0 295h116v-500h-91l-9 55q-27 -31 -65 -47.5q-38 -16.5 -85 -16.5zt0 0zM185 565q-29 0 -49.5 20.5q-20.5 20.5 -20.5 49.5q0 29 20.5 49.5q20.5 20.5 49.5 20.5q29 0 49.5 -20.5q20.5 -20.5 20.5 -49.5q0 -29 -20.5 -49.5q-20.5 -20.5 -49.5 -20.5zt0 0zM375 565q-29 0 -49.5 20.5q-20.5 20.5 -20.5 49.5q0 29 20.5 49.5q20.5 20.5 49.5 20.5q29 0 49.5 -20.5q20.5 -20.5 20.5 -49.5q0 -29 -20.5 -49.5t-49.5 -20.5z" />
<glyph unicode="&#253;" horiz-adv-x="520" d="M206 0l-201 500h126l136 -358l128 358h120l-265 -700h-120zM322 710h126l-130 -150l-110 0z" />
<glyph unicode="&#254;" horiz-adv-x="560" d="M327 -9q-94 0 -146 59l0 -250h-116v900h116v-250q53 59 146 59q43 0 79.5 -15.5q36.5 -15.5 62.5 -46q26 -30.5 41 -76q15 -45.5 15 -105.5v-32q0 -60 -15 -105q-15 -45 -41.5 -76q-26.5 -31 -62.5 -46.5q-36 -15.5 -79 -15.5zt0 0zM292 99q53 0 82 32q29 32 29 103v32q0 69 -30 102q-30 33 -81 33q-48 0 -78.5 -33q-30.5 -33 -32.5 -96l0 -38q0 -66 31.5 -100.5t79.5 -34.5z" />
<glyph unicode="&#255;" horiz-adv-x="520" d="M206 0l-201 500h126l136 -358l128 358h120l-265 -700h-120zM168 565q-29 0 -49.5 20.5q-20.5 20.5 -20.5 49.5q0 29 20.5 49.5q20.5 20.5 49.5 20.5q29 0 49.5 -20.5q20.5 -20.5 20.5 -49.5q0 -29 -20.5 -49.5q-20.5 -20.5 -49.5 -20.5zt0 0zM358 565q-29 0 -49.5 20.5q-20.5 20.5 -20.5 49.5q0 29 20.5 49.5q20.5 20.5 49.5 20.5q29 0 49.5 -20.5q20.5 -20.5 20.5 -49.5q0 -29 -20.5 -49.5t-49.5 -20.5z" />
<glyph unicode="&#256;" horiz-adv-x="650" d="M454 177h-265l-58 -177h-126l250 700h140l250 -700h-132zM224 283h195l-50 153l-47 144l-47 -144zM170 881h310v-92l-310 0z" />
<glyph unicode="&#257;" horiz-adv-x="520" d="M195 -9q-81 0 -123 40q-42 40 -42 111q0 39 12.5 70.5q12.5 31.5 40 53q27.5 21.5 71 33q43.5 11.5 106.5 11.5h84v30q0 36 -19.5 54.5q-19.5 18.5 -64.5 18.5q-42 0 -61 -16q-19 -16 -23 -42l-126 0q4 67 54.5 110.5q50.5 43.5 155.5 43.5q100 0 150 -46q50 -46 50 -123v-340h-91l-12 69q-26 -38 -67.5 -58q-41.5 -20 -94.5 -20zt0 0zM215 87q28 0 51.5 9.5q23.5 9.5 40.5 26q17 16.5 27 37.5q10 21 10 45v15h-84q-60 0 -84 -20q-24 -20 -24 -54q0 -27 16.5 -43q16.5 -16 46.5 -16zt0 0zM110 680h290v-90l-290 0z" />
<glyph unicode="&#258;" horiz-adv-x="650" d="M454 177h-265l-58 -177h-126l250 700h140l250 -700h-132zM224 283h195l-50 153l-47 144l-47 -144zM325 761q-77 0 -116 37q-39 37 -39 102l84 0q0 -27 18 -44q18 -17 53 -17q36 0 54.5 17q18.5 17 18.5 44l82 0q0 -65 -39 -102t-116 -37z" />
<glyph unicode="&#259;" horiz-adv-x="520" d="M195 -9q-81 0 -123 40q-42 40 -42 111q0 39 12.5 70.5q12.5 31.5 40 53q27.5 21.5 71 33q43.5 11.5 106.5 11.5h84v30q0 36 -19.5 54.5q-19.5 18.5 -64.5 18.5q-42 0 -61 -16q-19 -16 -23 -42l-126 0q4 67 54.5 110.5q50.5 43.5 155.5 43.5q100 0 150 -46q50 -46 50 -123v-340h-91l-12 69q-26 -38 -67.5 -58q-41.5 -20 -94.5 -20zt0 0zM215 87q28 0 51.5 9.5q23.5 9.5 40.5 26q17 16.5 27 37.5q10 21 10 45v15h-84q-60 0 -84 -20q-24 -20 -24 -54q0 -27 16.5 -43q16.5 -16 46.5 -16zt0 0zM255 561q-69 0 -107 37q-38 37 -38 102l82 0q0 -29 17 -46q17 -17 46 -17q30 0 47.5 17q17.5 17 17.5 46l80 0q0 -65 -38 -102t-107 -37z" />
<glyph unicode="&#260;" horiz-adv-x="650" d="M454 177h-265l-58 -177h-126l250 700h140l250 -700q-23 -21 -36.5 -35.5q-13.5 -14.5 -21 -25q-7.5 -10.5 -10 -18.5q-2.5 -8 -2.5 -16q0 -25 30 -25h40v-80h-55q-60 0 -87.5 24q-27.5 24 -27.5 66q0 23 8 48.5q8 25.5 41 61.5l-11 0zM224 283h195l-50 153l-47 144l-47 -144z" />
<glyph unicode="&#261;" horiz-adv-x="520" d="M405 -200q-62 0 -88.5 23q-26.5 23 -26.5 62q0 15 2.5 29q2.5 14 10 30.5q7.5 16.5 22.5 35q15 18.5 40 42.5l-8 47q-26 -38 -67.5 -58q-41.5 -20 -94.5 -20q-81 0 -123 40q-42 40 -42 111q0 39 12.5 70.5q12.5 31.5 40 53q27.5 21.5 71 33q43.5 11.5 106.5 11.5h84v30q0 36 -19.5 54.5q-19.5 18.5 -64.5 18.5q-42 0 -61 -16q-19 -16 -23 -42l-126 0q4 67 54.5 110.5q50.5 43.5 155.5 43.5q100 0 150 -46q50 -46 50 -123v-340q-23 -21 -37.5 -35q-14.5 -14 -22.5 -24.5q-8 -10.5 -11 -18.5q-3 -8 -3 -17q0 -29 34 -29h40v-76zM215 87q28 0 51.5 9.5q23.5 9.5 40.5 26q17 16.5 27 37.5q10 21 10 45v15h-84q-60 0 -84 -20q-24 -20 -24 -54q0 -27 16.5 -43t46.5 -16z" />
<glyph unicode="&#262;" horiz-adv-x="670" d="M350 -9q-69 0 -125.5 22q-56.5 22 -96 65q-39.5 43 -61.5 104.5q-22 61.5 -22 141.5v52q0 79 22 140.5q22 61.5 62 104.5q40 43 96.5 65.5q56.5 22.5 124.5 22.5q61 0 110.5 -18q49.5 -18 85.5 -48.5q36 -30.5 58.5 -71q22.5 -40.5 30.5 -86.5l-132 0q-8 23 -21 43.5q-13 20.5 -32 35.5q-19 15 -44 24q-25 9 -56 9q-80 0 -129.5 -55q-49.5 -55 -49.5 -166v-52q0 -55 13.5 -96.5q13.5 -41.5 37 -69q23.5 -27.5 56.5 -41.5q33 -14 72 -14q61 0 100 36q39 36 53 96l132 0q-8 -53 -30.5 -97.5q-22.5 -44.5 -59 -77q-36.5 -32.5 -85.5 -51q-49 -18.5 -110 -18.5zt0 0zM404 910h130l-128 -150l-112 0z" />
<glyph unicode="&#263;" horiz-adv-x="505" d="M270 -9q-54 0 -97.5 16.5q-43.5 16.5 -74 48q-30.5 31.5 -47 76.5q-16.5 45 -16.5 102v32q0 56 16.5 101q16.5 45 47.5 76.5q31 31.5 74.5 48.5q43.5 17 96.5 17q95 0 147.5 -47q52.5 -47 67.5 -122l-124 0q-8 27 -33 44q-25 17 -63 17q-22 0 -41.5 -7.5q-19.5 -7.5 -34.5 -24q-15 -16.5 -23.5 -42q-8.5 -25.5 -8.5 -61.5v-32q0 -35 9 -60.5q9 -25.5 24 -42q15 -16.5 34.5 -24.5q19.5 -8 40.5 -8q43 0 65.5 19q22.5 19 30.5 47l124 0q-15 -79 -67.5 -126.5q-52.5 -47.5 -147.5 -47.5zt0 0zM329 710h126l-130 -150l-110 0z" />
<glyph unicode="&#264;" horiz-adv-x="670" d="M350 -9q-69 0 -125.5 22q-56.5 22 -96 65q-39.5 43 -61.5 104.5q-22 61.5 -22 141.5v52q0 79 22 140.5q22 61.5 62 104.5q40 43 96.5 65.5q56.5 22.5 124.5 22.5q61 0 110.5 -18q49.5 -18 85.5 -48.5q36 -30.5 58.5 -71q22.5 -40.5 30.5 -86.5l-132 0q-8 23 -21 43.5q-13 20.5 -32 35.5q-19 15 -44 24q-25 9 -56 9q-80 0 -129.5 -55q-49.5 -55 -49.5 -166v-52q0 -55 13.5 -96.5q13.5 -41.5 37 -69q23.5 -27.5 56.5 -41.5q33 -14 72 -14q61 0 100 36q39 36 53 96l132 0q-8 -53 -30.5 -97.5q-22.5 -44.5 -59 -77q-36.5 -32.5 -85.5 -51q-49 -18.5 -110 -18.5zt0 0zM350 835l-63 -75h-112l110 150h130l110 -150l-112 0z" />
<glyph unicode="&#265;" horiz-adv-x="505" d="M270 -9q-54 0 -97.5 16.5q-43.5 16.5 -74 48q-30.5 31.5 -47 76.5q-16.5 45 -16.5 102v32q0 56 16.5 101q16.5 45 47.5 76.5q31 31.5 74.5 48.5q43.5 17 96.5 17q95 0 147.5 -47q52.5 -47 67.5 -122l-124 0q-8 27 -33 44q-25 17 -63 17q-22 0 -41.5 -7.5q-19.5 -7.5 -34.5 -24q-15 -16.5 -23.5 -42q-8.5 -25.5 -8.5 -61.5v-32q0 -35 9 -60.5q9 -25.5 24 -42q15 -16.5 34.5 -24.5q19.5 -8 40.5 -8q43 0 65.5 19q22.5 19 30.5 47l124 0q-15 -79 -67.5 -126.5q-52.5 -47.5 -147.5 -47.5zt0 0zM270 636l-67 -76h-108l114 150h122l114 -150l-108 0z" />
<glyph unicode="&#266;" horiz-adv-x="670" d="M350 -9q-69 0 -125.5 22q-56.5 22 -96 65q-39.5 43 -61.5 104.5q-22 61.5 -22 141.5v52q0 79 22 140.5q22 61.5 62 104.5q40 43 96.5 65.5q56.5 22.5 124.5 22.5q61 0 110.5 -18q49.5 -18 85.5 -48.5q36 -30.5 58.5 -71q22.5 -40.5 30.5 -86.5l-132 0q-8 23 -21 43.5q-13 20.5 -32 35.5q-19 15 -44 24q-25 9 -56 9q-80 0 -129.5 -55q-49.5 -55 -49.5 -166v-52q0 -55 13.5 -96.5q13.5 -41.5 37 -69q23.5 -27.5 56.5 -41.5q33 -14 72 -14q61 0 100 36q39 36 53 96l132 0q-8 -53 -30.5 -97.5q-22.5 -44.5 -59 -77q-36.5 -32.5 -85.5 -51q-49 -18.5 -110 -18.5zt0 0zM350 760q-32 0 -53.5 21.5q-21.5 21.5 -21.5 53.5q0 32 21.5 53.5q21.5 21.5 53.5 21.5q31 0 53 -21.5q22 -21.5 22 -53.5q0 -32 -22 -53.5t-53 -21.5z" />
<glyph unicode="&#267;" horiz-adv-x="505" d="M270 -9q-54 0 -97.5 16.5q-43.5 16.5 -74 48q-30.5 31.5 -47 76.5q-16.5 45 -16.5 102v32q0 56 16.5 101q16.5 45 47.5 76.5q31 31.5 74.5 48.5q43.5 17 96.5 17q95 0 147.5 -47q52.5 -47 67.5 -122l-124 0q-8 27 -33 44q-25 17 -63 17q-22 0 -41.5 -7.5q-19.5 -7.5 -34.5 -24q-15 -16.5 -23.5 -42q-8.5 -25.5 -8.5 -61.5v-32q0 -35 9 -60.5q9 -25.5 24 -42q15 -16.5 34.5 -24.5q19.5 -8 40.5 -8q43 0 65.5 19q22.5 19 30.5 47l124 0q-15 -79 -67.5 -126.5q-52.5 -47.5 -147.5 -47.5zt0 0zM270 560q-32 0 -53.5 21.5q-21.5 21.5 -21.5 53.5q0 32 21.5 53.5q21.5 21.5 53.5 21.5q31 0 53 -21.5q22 -21.5 22 -53.5q0 -32 -22 -53.5t-53 -21.5z" />
<glyph unicode="&#268;" horiz-adv-x="670" d="M350 -9q-69 0 -125.5 22q-56.5 22 -96 65q-39.5 43 -61.5 104.5q-22 61.5 -22 141.5v52q0 79 22 140.5q22 61.5 62 104.5q40 43 96.5 65.5q56.5 22.5 124.5 22.5q61 0 110.5 -18q49.5 -18 85.5 -48.5q36 -30.5 58.5 -71q22.5 -40.5 30.5 -86.5l-132 0q-8 23 -21 43.5q-13 20.5 -32 35.5q-19 15 -44 24q-25 9 -56 9q-80 0 -129.5 -55q-49.5 -55 -49.5 -166v-52q0 -55 13.5 -96.5q13.5 -41.5 37 -69q23.5 -27.5 56.5 -41.5q33 -14 72 -14q61 0 100 36q39 36 53 96l132 0q-8 -53 -30.5 -97.5q-22.5 -44.5 -59 -77q-36.5 -32.5 -85.5 -51q-49 -18.5 -110 -18.5zt0 0zM175 910h112l63 -75l63 75h112l-110 -150l-130 0z" />
<glyph unicode="&#269;" horiz-adv-x="505" d="M270 -9q-54 0 -97.5 16.5q-43.5 16.5 -74 48q-30.5 31.5 -47 76.5q-16.5 45 -16.5 102v32q0 56 16.5 101q16.5 45 47.5 76.5q31 31.5 74.5 48.5q43.5 17 96.5 17q95 0 147.5 -47q52.5 -47 67.5 -122l-124 0q-8 27 -33 44q-25 17 -63 17q-22 0 -41.5 -7.5q-19.5 -7.5 -34.5 -24q-15 -16.5 -23.5 -42q-8.5 -25.5 -8.5 -61.5v-32q0 -35 9 -60.5q9 -25.5 24 -42q15 -16.5 34.5 -24.5q19.5 -8 40.5 -8q43 0 65.5 19q22.5 19 30.5 47l124 0q-15 -79 -67.5 -126.5q-52.5 -47.5 -147.5 -47.5zt0 0zM95 710h108l67 -76l67 76h108l-114 -150l-122 0z" />
<glyph unicode="&#270;" horiz-adv-x="680" d="M70 700h230q165 0 250 -83.5q85 -83.5 85 -238.5v-56q0 -153 -86 -237.5q-86 -84.5 -249 -84.5h-230zM190 594v-488h110q104 0 156.5 53q52.5 53 52.5 163v56q0 109 -53 162.5q-53 53.5 -156 53.5zM145 910h112l63 -75l63 75h112l-110 -150l-130 0z" />
<glyph unicode="&#271;" horiz-adv-x="560" d="M233 -9q-44 0 -80 15q-36 15 -62.5 45.5q-26.5 30.5 -41 76q-14.5 45.5 -14.5 106.5v32q0 60 15 105q15 45 41.5 76q26.5 31 62.5 46.5q36 15.5 79 15.5q93 0 146 -59l0 250h116v-700h-91l-11 67q-26 -38 -67 -57q-41 -19 -93 -19zt0 0zM268 99q48 0 79.5 34.5q31.5 34.5 31.5 100.5v38q-2 63 -33 96q-31 33 -78 33q-53 0 -82 -31.5q-29 -31.5 -29 -103.5v-32q0 -69 30 -102q30 -33 81 -33zt0 0zM545 700h100l-20 -165l-80 0z" />
<glyph unicode="&#272;" horiz-adv-x="705" d="M5 393h90v307h230q164 0 249.5 -84q85.5 -84 85.5 -238v-56q0 -153 -86 -237.5q-86 -84.5 -249 -84.5h-230v307h-90zM215 594v-201h160v-86h-160v-201h110q104 0 156.5 53q52.5 53 52.5 163v56q0 109 -53 162.5q-53 53.5 -156 53.5z" />
<glyph unicode="&#273;" horiz-adv-x="560" d="M225 606h154v94h116v-94h80v-92h-80v-514h-91l-11 65q-26 -37 -67 -55.5q-41 -18.5 -93 -18.5q-43 0 -79.5 15q-36.5 15 -62.5 44q-26 29 -41 71.5q-15 42.5 -15 97.5v32q0 54 15 96.5q15 42.5 41 72q26 29.5 62.5 44.5q36.5 15 79.5 15q92 0 146 -57l0 92h-154zM268 99q47 0 78 30.5q31 30.5 33 83.5l0 43q-2 53 -33 84q-31 31 -78 31q-51 0 -81 -30.5q-30 -30.5 -30 -89.5v-32q0 -58 30 -89t81 -31z" />
<glyph unicode="&#274;" horiz-adv-x="560" d="M70 700h450v-106h-330v-181h270v-106h-270v-201h330v-106h-450zM140 881h310v-92l-310 0z" />
<glyph unicode="&#275;" horiz-adv-x="540" d="M270 -9q-54 0 -97 16.5q-43 16.5 -74 48q-31 31.5 -47.5 76.5q-16.5 45 -16.5 102v32q0 57 16.5 102q16.5 45 47.5 76.5q31 31.5 74 48q43 16.5 97 16.5q109 0 172 -67q63 -67 63 -192v-39h-354q5 -63 35 -90.5q30 -27.5 84 -27.5q53 0 77.5 18.5q24.5 18.5 32.5 43.5l120 0q-8 -35 -25 -65q-17 -30 -45 -52q-28 -22 -68 -34.5q-40 -12.5 -92 -12.5zt0 0zM270 407q-51 0 -80 -25q-29 -25 -37 -79l234 0q-7 56 -36.5 80q-29.5 24 -80.5 24zt0 0zM125 680h290v-90l-290 0z" />
<glyph unicode="&#276;" horiz-adv-x="560" d="M70 700h450v-106h-330v-181h270v-106h-270v-201h330v-106h-450zM295 761q-77 0 -116 37q-39 37 -39 102l84 0q0 -27 18 -44q18 -17 53 -17q36 0 54.5 17q18.5 17 18.5 44l82 0q0 -65 -39 -102t-116 -37z" />
<glyph unicode="&#277;" horiz-adv-x="540" d="M270 -9q-54 0 -97 16.5q-43 16.5 -74 48q-31 31.5 -47.5 76.5q-16.5 45 -16.5 102v32q0 57 16.5 102q16.5 45 47.5 76.5q31 31.5 74 48q43 16.5 97 16.5q109 0 172 -67q63 -67 63 -192v-39h-354q5 -63 35 -90.5q30 -27.5 84 -27.5q53 0 77.5 18.5q24.5 18.5 32.5 43.5l120 0q-8 -35 -25 -65q-17 -30 -45 -52q-28 -22 -68 -34.5q-40 -12.5 -92 -12.5zt0 0zM270 407q-51 0 -80 -25q-29 -25 -37 -79l234 0q-7 56 -36.5 80q-29.5 24 -80.5 24zt0 0zM270 561q-69 0 -107 37q-38 37 -38 102l82 0q0 -29 17 -46q17 -17 46 -17q30 0 47.5 17q17.5 17 17.5 46l80 0q0 -65 -38 -102t-107 -37z" />
<glyph unicode="&#278;" horiz-adv-x="560" d="M70 700h450v-106h-330v-181h270v-106h-270v-201h330v-106h-450zM295 760q-32 0 -53.5 21.5q-21.5 21.5 -21.5 53.5q0 32 21.5 53.5q21.5 21.5 53.5 21.5q31 0 53 -21.5q22 -21.5 22 -53.5q0 -32 -22 -53.5t-53 -21.5z" />
<glyph unicode="&#279;" horiz-adv-x="540" d="M270 -9q-54 0 -97 16.5q-43 16.5 -74 48q-31 31.5 -47.5 76.5q-16.5 45 -16.5 102v32q0 57 16.5 102q16.5 45 47.5 76.5q31 31.5 74 48q43 16.5 97 16.5q109 0 172 -67q63 -67 63 -192v-39h-354q5 -63 35 -90.5q30 -27.5 84 -27.5q53 0 77.5 18.5q24.5 18.5 32.5 43.5l120 0q-8 -35 -25 -65q-17 -30 -45 -52q-28 -22 -68 -34.5q-40 -12.5 -92 -12.5zt0 0zM270 407q-51 0 -80 -25q-29 -25 -37 -79l234 0q-7 56 -36.5 80q-29.5 24 -80.5 24zt0 0zM270 560q-32 0 -53.5 21.5q-21.5 21.5 -21.5 53.5q0 32 21.5 53.5q21.5 21.5 53.5 21.5q31 0 53 -21.5q22 -21.5 22 -53.5q0 -32 -22 -53.5t-53 -21.5z" />
<glyph unicode="&#280;" horiz-adv-x="560" d="M70 700h450v-106h-330v-181h270v-106h-270v-201h330v-106q-23 -21 -36.5 -35.5q-13.5 -14.5 -21 -25q-7.5 -10.5 -10 -18.5q-2.5 -8 -2.5 -16q0 -25 30 -25h40v-80h-55q-60 0 -87.5 24q-27.5 24 -27.5 66q0 23 8 48.5q8 25.5 41 61.5l-329 0z" />
<glyph unicode="&#281;" horiz-adv-x="540" d="M404 -200q-61 0 -87.5 23q-26.5 23 -26.5 62q0 26 9 51q9 25 28 60q-10 -2 -23.5 -3.5q-13.5 -1.5 -33.5 -1.5q-54 0 -97 16.5q-43 16.5 -74 48q-31 31.5 -47.5 76.5q-16.5 45 -16.5 102v32q0 57 16.5 102q16.5 45 47.5 76.5q31 31.5 74 48q43 16.5 97 16.5q109 0 172 -67q63 -67 63 -192v-39h-354q5 -63 35 -90.5q30 -27.5 84 -27.5q53 0 77.5 18.5q24.5 18.5 32.5 43.5l120 0q-4 -20 -10.5 -36q-6.5 -16 -20.5 -39q-26 -40 -42 -67q-16 -27 -25 -46q-9 -19 -12.5 -32q-3.5 -13 -3.5 -25q0 -34 34 -34h40v-76zM270 407q-51 0 -80 -25q-29 -25 -37 -79l234 0q-7 56 -36.5 80t-80.5 24z" />
<glyph unicode="&#282;" horiz-adv-x="560" d="M70 700h450v-106h-330v-181h270v-106h-270v-201h330v-106h-450zM120 910h112l63 -75l63 75h112l-110 -150l-130 0z" />
<glyph unicode="&#283;" horiz-adv-x="540" d="M270 -9q-54 0 -97 16.5q-43 16.5 -74 48q-31 31.5 -47.5 76.5q-16.5 45 -16.5 102v32q0 57 16.5 102q16.5 45 47.5 76.5q31 31.5 74 48q43 16.5 97 16.5q109 0 172 -67q63 -67 63 -192v-39h-354q5 -63 35 -90.5q30 -27.5 84 -27.5q53 0 77.5 18.5q24.5 18.5 32.5 43.5l120 0q-8 -35 -25 -65q-17 -30 -45 -52q-28 -22 -68 -34.5q-40 -12.5 -92 -12.5zt0 0zM270 407q-51 0 -80 -25q-29 -25 -37 -79l234 0q-7 56 -36.5 80q-29.5 24 -80.5 24zt0 0zM95 710h108l67 -76l67 76h108l-114 -150l-122 0z" />
<glyph unicode="&#284;" horiz-adv-x="680" d="M340 362h295v-52q0 -158 -76 -238.5q-76 -80.5 -209 -80.5q-71 0 -127 21.5q-56 21.5 -96 63.5q-40 42 -61 104q-21 62 -21 143v54q0 161 80 246.5q80 85.5 225 85.5q60 0 108.5 -17.5q48.5 -17.5 84 -48q35.5 -30.5 57.5 -71.5q22 -41 30 -87l-130 0q-15 48 -51.5 80q-36.5 32 -98.5 32q-87 0 -133 -52.5q-46 -52.5 -46 -167.5v-54q0 -111 49.5 -165.5q49.5 -54.5 129.5 -54.5q76 0 118.5 36q42.5 36 51.5 121l-180 0zM350 835l-63 -75h-112l110 150h130l110 -150l-112 0z" />
<glyph unicode="&#285;" horiz-adv-x="560" d="M233 11q-44 0 -80 14.5q-36 14.5 -62.5 43.5q-26.5 29 -41 72.5q-14.5 43.5 -14.5 102.5v32q0 56 15 99.5q15 43.5 41.5 73q26.5 29.5 62.5 45q36 15.5 79 15.5q106 0 160 -75l11 66h91v-500q0 -104 -54 -156.5q-54 -52.5 -168 -52.5q-53 0 -91.5 11q-38.5 11 -64.5 32q-26 21 -39.5 51.5q-13.5 30.5 -17.5 69.5l116 0q8 -35 29 -53q21 -18 68 -18q54 0 80 27.5q26 27.5 26 88.5v70q-27 -29 -64 -44q-37 -15 -82 -15zt0 0zM268 119q48 0 79.5 33q31.5 33 31.5 92v32q0 59 -31.5 92q-31.5 33 -79.5 33q-53 0 -82 -30.5q-29 -30.5 -29 -94.5v-32q0 -62 30 -93.5q30 -31.5 81 -31.5zt0 0zM265 636l-67 -76h-108l114 150h122l114 -150l-108 0z" />
<glyph unicode="&#286;" horiz-adv-x="680" d="M340 362h295v-52q0 -158 -76 -238.5q-76 -80.5 -209 -80.5q-71 0 -127 21.5q-56 21.5 -96 63.5q-40 42 -61 104q-21 62 -21 143v54q0 161 80 246.5q80 85.5 225 85.5q60 0 108.5 -17.5q48.5 -17.5 84 -48q35.5 -30.5 57.5 -71.5q22 -41 30 -87l-130 0q-15 48 -51.5 80q-36.5 32 -98.5 32q-87 0 -133 -52.5q-46 -52.5 -46 -167.5v-54q0 -111 49.5 -165.5q49.5 -54.5 129.5 -54.5q76 0 118.5 36q42.5 36 51.5 121l-180 0zM350 761q-77 0 -116 37q-39 37 -39 102l84 0q0 -27 18 -44q18 -17 53 -17q36 0 54.5 17q18.5 17 18.5 44l82 0q0 -65 -39 -102t-116 -37z" />
<glyph unicode="&#287;" horiz-adv-x="560" d="M233 11q-44 0 -80 14.5q-36 14.5 -62.5 43.5q-26.5 29 -41 72.5q-14.5 43.5 -14.5 102.5v32q0 56 15 99.5q15 43.5 41.5 73q26.5 29.5 62.5 45q36 15.5 79 15.5q106 0 160 -75l11 66h91v-500q0 -104 -54 -156.5q-54 -52.5 -168 -52.5q-53 0 -91.5 11q-38.5 11 -64.5 32q-26 21 -39.5 51.5q-13.5 30.5 -17.5 69.5l116 0q8 -35 29 -53q21 -18 68 -18q54 0 80 27.5q26 27.5 26 88.5v70q-27 -29 -64 -44q-37 -15 -82 -15zt0 0zM268 119q48 0 79.5 33q31.5 33 31.5 92v32q0 59 -31.5 92q-31.5 33 -79.5 33q-53 0 -82 -30.5q-29 -30.5 -29 -94.5v-32q0 -62 30 -93.5q30 -31.5 81 -31.5zt0 0zM265 561q-69 0 -107 37q-38 37 -38 102l82 0q0 -29 17 -46q17 -17 46 -17q30 0 47.5 17q17.5 17 17.5 46l80 0q0 -65 -38 -102t-107 -37z" />
<glyph unicode="&#288;" horiz-adv-x="680" d="M340 362h295v-52q0 -158 -76 -238.5q-76 -80.5 -209 -80.5q-71 0 -127 21.5q-56 21.5 -96 63.5q-40 42 -61 104q-21 62 -21 143v54q0 161 80 246.5q80 85.5 225 85.5q60 0 108.5 -17.5q48.5 -17.5 84 -48q35.5 -30.5 57.5 -71.5q22 -41 30 -87l-130 0q-15 48 -51.5 80q-36.5 32 -98.5 32q-87 0 -133 -52.5q-46 -52.5 -46 -167.5v-54q0 -111 49.5 -165.5q49.5 -54.5 129.5 -54.5q76 0 118.5 36q42.5 36 51.5 121l-180 0zM350 760q-32 0 -53.5 21.5q-21.5 21.5 -21.5 53.5q0 32 21.5 53.5q21.5 21.5 53.5 21.5q31 0 53 -21.5q22 -21.5 22 -53.5q0 -32 -22 -53.5t-53 -21.5z" />
<glyph unicode="&#289;" horiz-adv-x="560" d="M233 11q-44 0 -80 14.5q-36 14.5 -62.5 43.5q-26.5 29 -41 72.5q-14.5 43.5 -14.5 102.5v32q0 56 15 99.5q15 43.5 41.5 73q26.5 29.5 62.5 45q36 15.5 79 15.5q106 0 160 -75l11 66h91v-500q0 -104 -54 -156.5q-54 -52.5 -168 -52.5q-53 0 -91.5 11q-38.5 11 -64.5 32q-26 21 -39.5 51.5q-13.5 30.5 -17.5 69.5l116 0q8 -35 29 -53q21 -18 68 -18q54 0 80 27.5q26 27.5 26 88.5v70q-27 -29 -64 -44q-37 -15 -82 -15zt0 0zM268 119q48 0 79.5 33q31.5 33 31.5 92v32q0 59 -31.5 92q-31.5 33 -79.5 33q-53 0 -82 -30.5q-29 -30.5 -29 -94.5v-32q0 -62 30 -93.5q30 -31.5 81 -31.5zt0 0zM265 560q-32 0 -53.5 21.5q-21.5 21.5 -21.5 53.5q0 32 21.5 53.5q21.5 21.5 53.5 21.5q31 0 53 -21.5q22 -21.5 22 -53.5q0 -32 -22 -53.5t-53 -21.5z" />
<glyph unicode="&#290;" horiz-adv-x="680" d="M340 362h295v-52q0 -158 -76 -238.5q-76 -80.5 -209 -80.5q-71 0 -127 21.5q-56 21.5 -96 63.5q-40 42 -61 104q-21 62 -21 143v54q0 161 80 246.5q80 85.5 225 85.5q60 0 108.5 -17.5q48.5 -17.5 84 -48q35.5 -30.5 57.5 -71.5q22 -41 30 -87l-130 0q-15 48 -51.5 80q-36.5 32 -98.5 32q-87 0 -133 -52.5q-46 -52.5 -46 -167.5v-54q0 -111 49.5 -165.5q49.5 -54.5 129.5 -54.5q76 0 118.5 36q42.5 36 51.5 121l-180 0zM288 -50h124l-96 -150l-94 0z" />
<glyph unicode="&#291;" horiz-adv-x="560" d="M233 11q-44 0 -80 14.5q-36 14.5 -62.5 43.5q-26.5 29 -41 72.5q-14.5 43.5 -14.5 102.5v32q0 56 15 99.5q15 43.5 41.5 73q26.5 29.5 62.5 45q36 15.5 79 15.5q106 0 160 -75l11 66h91v-500q0 -104 -54 -156.5q-54 -52.5 -168 -52.5q-53 0 -91.5 11q-38.5 11 -64.5 32q-26 21 -39.5 51.5q-13.5 30.5 -17.5 69.5l116 0q8 -35 29 -53q21 -18 68 -18q54 0 80 27.5q26 27.5 26 88.5v70q-27 -29 -64 -44q-37 -15 -82 -15zt0 0zM268 119q48 0 79.5 33q31.5 33 31.5 92v32q0 59 -31.5 92q-31.5 33 -79.5 33q-53 0 -82 -30.5q-29 -30.5 -29 -94.5v-32q0 -62 30 -93.5q30 -31.5 81 -31.5zt0 0zM325 550h-120l100 150l90 0z" />
<glyph unicode="&#292;" horiz-adv-x="710" d="M520 307h-330v-307h-120v700h120v-287h330v287h120v-700h-120zM355 835l-63 -75h-112l110 150h130l110 -150l-112 0z" />
<glyph unicode="&#293;" horiz-adv-x="575" d="M65 700h116v-243q50 52 139 52q92 0 143.5 -54.5q51.5 -54.5 51.5 -164.5v-290h-116v290q0 55 -26.5 83q-26.5 28 -72.5 28q-54 0 -85.5 -29q-31.5 -29 -33.5 -77l0 -295h-116zM123 836l-67 -76h-108l114 150h122l114 -150l-108 0z" />
<glyph unicode="&#294;" horiz-adv-x="760" d="M5 604h90v96h120v-96h330v96h120v-96h90v-88h-90v-516h-120v307h-330v-307h-120v516h-90zM545 413v103h-330l0 -103z" />
<glyph unicode="&#295;" horiz-adv-x="575" d="M399 255q0 55 -26.5 83q-26.5 28 -73.5 28q-54 0 -85 -29q-31 -29 -33 -77l0 -260h-116v514h-80v92h80v94h116v-94h154v-92h-154v-92q50 52 138 52q93 0 144.5 -54.5q51.5 -54.5 51.5 -164.5v-255l-116 0z" />
<glyph unicode="&#296;" horiz-adv-x="270" d="M75 700h120v-700h-120zM205 761q-28 0 -47.5 10q-19.5 10 -35 22q-15.5 12 -29 22q-13.5 10 -28.5 10q-17 0 -26 -11q-9 -11 -9 -38l-70 0q0 72 27.5 103.5q27.5 31.5 77.5 31.5q27 0 46.5 -10q19.5 -10 35 -22q15.5 -12 29 -22q13.5 -10 29.5 -10q17 0 26 11q9 11 9 37l70 0q0 -72 -27.5 -103t-77.5 -31z" />
<glyph unicode="&#297;" horiz-adv-x="256" d="M70 500h116v-500h-116zM193 561q-27 0 -46 9.5q-19 9.5 -33 21.5q-14 12 -26 21.5q-12 9.5 -25 9.5q-13 0 -21.5 -11q-8.5 -11 -8.5 -37l-70 0q0 71 27.5 102.5q27.5 31.5 72.5 31.5q27 0 45.5 -9.5q18.5 -9.5 33 -21.5q14.5 -12 26 -21.5q11.5 -9.5 25.5 -9.5q13 0 21.5 11q8.5 11 8.5 37l70 0q0 -71 -27.5 -102.5t-72.5 -31.5z" />
<glyph unicode="&#298;" horiz-adv-x="270" d="M75 700h120v-700h-120zM-20 881h310v-92l-310 0z" />
<glyph unicode="&#299;" horiz-adv-x="256" d="M70 500h116v-500h-116zM-17 680h290v-90l-290 0z" />
<glyph unicode="&#300;" horiz-adv-x="270" d="M75 700h120v-700h-120zM135 761q-77 0 -116 37q-39 37 -39 102l84 0q0 -27 18 -44q18 -17 53 -17q36 0 54.5 17q18.5 17 18.5 44l82 0q0 -65 -39 -102t-116 -37z" />
<glyph unicode="&#301;" horiz-adv-x="256" d="M70 500h116v-500h-116zM128 561q-69 0 -107 37q-38 37 -38 102l82 0q0 -29 17 -46q17 -17 46 -17q30 0 47.5 17q17.5 17 17.5 46l80 0q0 -65 -38 -102t-107 -37z" />
<glyph unicode="&#302;" horiz-adv-x="270" d="M140 -200q-60 0 -87.5 24q-27.5 24 -27.5 66q0 23 8 48.5q8 25.5 42 62.5l0 699h120v-700q-23 -21 -36.5 -35.5q-13.5 -14.5 -21 -25q-7.5 -10.5 -10 -18.5q-2.5 -8 -2.5 -16q0 -25 30 -25h40l0 -80z" />
<glyph unicode="&#303;" horiz-adv-x="256" d="M131 -200q-62 0 -88.5 23q-26.5 23 -26.5 62q0 13 1.5 25.5q1.5 12.5 7.5 26.5q6 14 16.5 29.5q10.5 15.5 28.5 34.5l0 499h116v-500q-23 -21 -37.5 -35q-14.5 -14 -22.5 -24.5q-8 -10.5 -11 -18.5q-3 -8 -3 -17q0 -29 34 -29h40v-76zM128 560q-32 0 -53.5 21.5q-21.5 21.5 -21.5 53.5q0 32 21.5 53.5q21.5 21.5 53.5 21.5q31 0 53 -21.5q22 -21.5 22 -53.5q0 -32 -22 -53.5t-53 -21.5z" />
<glyph unicode="&#304;" horiz-adv-x="270" d="M75 700h120v-700h-120zM135 760q-32 0 -53.5 21.5q-21.5 21.5 -21.5 53.5q0 32 21.5 53.5q21.5 21.5 53.5 21.5q31 0 53 -21.5q22 -21.5 22 -53.5q0 -32 -22 -53.5t-53 -21.5z" />
<glyph unicode="&#305;" horiz-adv-x="256" d="M70 500h116v-500l-116 0z" />
<glyph unicode="&#306;" horiz-adv-x="800" d="M75 700h120v-700h-120zM505 -9q-106 0 -164 63.5q-58 63.5 -66 180.5l120 0q7 -132 110 -132q51 0 80.5 34q29.5 34 29.5 113v450h120v-450q0 -130 -61 -194.5t-169 -64.5z" />
<glyph unicode="&#307;" horiz-adv-x="492" d="M70 500h116v-500h-116zM128 560q-32 0 -53.5 21.5q-21.5 21.5 -21.5 53.5q0 32 21.5 53.5q21.5 21.5 53.5 21.5q31 0 53 -21.5q22 -21.5 22 -53.5q0 -32 -22 -53.5q-22 -21.5 -53 -21.5zt0 0zM202 -98h34q36 0 53 21q17 21 17 72v505h116v-505q0 -53 -10.5 -90.5q-10.5 -37.5 -33 -60.5q-22.5 -23 -58 -33.5q-35.5 -10.5 -84.5 -10.5h-34zM364 560q-32 0 -53.5 21.5q-21.5 21.5 -21.5 53.5q0 32 21.5 53.5q21.5 21.5 53.5 21.5q31 0 53 -21.5q22 -21.5 22 -53.5q0 -32 -22 -53.5t-53 -21.5z" />
<glyph unicode="&#308;" horiz-adv-x="535" d="M240 -9q-106 0 -164 63.5q-58 63.5 -66 180.5l120 0q7 -132 110 -132q51 0 80.5 34q29.5 34 29.5 113v450h120v-450q0 -130 -61 -194.5q-61 -64.5 -169 -64.5zt0 0zM410 835l-63 -75h-112l110 150h130l110 -150l-112 0z" />
<glyph unicode="&#309;" horiz-adv-x="256" d="M-34 -98h34q36 0 53 21q17 21 17 72v505h116v-505q0 -53 -10.5 -90.5q-10.5 -37.5 -33 -60.5q-22.5 -23 -58 -33.5q-35.5 -10.5 -84.5 -10.5h-34zM128 636l-67 -76h-108l114 150h122l114 -150l-108 0z" />
<glyph unicode="&#310;" horiz-adv-x="635" d="M273 299l-83 -102v-197h-120v700h120v-338l264 338h146l-245 -310l265 -390h-150zM268 -50h124l-96 -150l-94 0z" />
<glyph unicode="&#311;" horiz-adv-x="510" d="M247 193l-66 -85v-108h-116v700h116v-426l168 226h136l-162 -218l182 -282h-140zM213 -50h120l-100 -150l-90 0z" />
<glyph unicode="&#312;" horiz-adv-x="510" d="M247 193l-66 -85v-108h-116v500h116v-226l168 226h136l-162 -218l182 -282l-140 0z" />
<glyph unicode="&#313;" horiz-adv-x="515" d="M70 700h120v-594h310v-106h-430zM184 910h130l-128 -150l-112 0z" />
<glyph unicode="&#314;" horiz-adv-x="285" d="M229 0q-79 0 -121.5 42.5q-42.5 42.5 -42.5 122.5v535h116v-523q0 -39 17 -57q17 -18 52 -18h25v-102h-46zM182 910h126l-130 -150l-110 0z" />
<glyph unicode="&#315;" horiz-adv-x="515" d="M70 700h120v-594h310v-106h-430zM223 -50h124l-96 -150l-94 0z" />
<glyph unicode="&#316;" horiz-adv-x="285" d="M229 0q-79 0 -121.5 42.5q-42.5 42.5 -42.5 122.5v535h116v-523q0 -39 17 -57q17 -18 52 -18h25v-102h-46zM120 -50h120l-100 -150l-90 0z" />
<glyph unicode="&#317;" horiz-adv-x="515" d="M295 700h110l-30 -250h-80zM70 700h120v-594h310v-106l-430 0z" />
<glyph unicode="&#318;" horiz-adv-x="285" d="M231 700h100l-20 -165h-80zM229 0q-79 0 -121.5 42.5q-42.5 42.5 -42.5 122.5v535h116v-523q0 -39 17 -57q17 -18 52 -18h25l0 -102z" />
<glyph unicode="&#319;" horiz-adv-x="515" d="M70 700h120v-594h310v-106h-430zM380 325q-32 0 -53.5 21.5q-21.5 21.5 -21.5 53.5q0 32 21.5 53.5q21.5 21.5 53.5 21.5q31 0 53 -21.5q22 -21.5 22 -53.5q0 -32 -22 -53.5t-53 -21.5z" />
<glyph unicode="&#320;" horiz-adv-x="325" d="M229 0q-79 0 -121.5 42.5q-42.5 42.5 -42.5 122.5v535h116v-523q0 -39 17 -57q17 -18 52 -18h25v-102h-46zM285 295q-32 0 -53.5 21.5q-21.5 21.5 -21.5 53.5q0 32 21.5 53.5q21.5 21.5 53.5 21.5q31 0 53 -21.5q22 -21.5 22 -53.5q0 -32 -22 -53.5t-53 -21.5z" />
<glyph unicode="&#321;" horiz-adv-x="540" d="M5 313l90 48v339h120v-274l155 83v-96l-155 -83v-224h310v-106h-430v265l-90 -48z" />
<glyph unicode="&#322;" horiz-adv-x="305" d="M5 357l80 44v299h116v-235l80 44v-104l-80 -44v-184q0 -39 17 -57q17 -18 52 -18h25v-102h-46q-79 0 -121.5 42.5q-42.5 42.5 -42.5 122.5v132l-80 -44z" />
<glyph unicode="&#323;" horiz-adv-x="710" d="M232 460l-42 91v-551h-120v700h168l240 -460l42 -92v552h120v-700h-168zM409 910h130l-128 -150l-112 0z" />
<glyph unicode="&#324;" horiz-adv-x="575" d="M65 500h91l9 -56q56 65 155 65q92 0 143.5 -54.5q51.5 -54.5 51.5 -164.5v-290h-116v290q0 55 -26.5 83q-26.5 28 -72.5 28q-54 0 -85.5 -29q-31.5 -29 -33.5 -77l0 -295h-116zM349 710h126l-130 -150l-110 0z" />
<glyph unicode="&#325;" horiz-adv-x="710" d="M232 460l-42 91v-551h-120v700h168l240 -460l42 -92v552h120v-700h-168zM293 -50h124l-96 -150l-94 0z" />
<glyph unicode="&#326;" horiz-adv-x="575" d="M65 500h91l9 -56q56 65 155 65q92 0 143.5 -54.5q51.5 -54.5 51.5 -164.5v-290h-116v290q0 55 -26.5 83q-26.5 28 -72.5 28q-54 0 -85.5 -29q-31.5 -29 -33.5 -77l0 -295h-116zM230 -50h120l-100 -150l-90 0z" />
<glyph unicode="&#327;" horiz-adv-x="710" d="M232 460l-42 91v-551h-120v700h168l240 -460l42 -92v552h120v-700h-168zM180 910h112l63 -75l63 75h112l-110 -150l-130 0z" />
<glyph unicode="&#328;" horiz-adv-x="575" d="M65 500h91l9 -56q56 65 155 65q92 0 143.5 -54.5q51.5 -54.5 51.5 -164.5v-290h-116v290q0 55 -26.5 83q-26.5 28 -72.5 28q-54 0 -85.5 -29q-31.5 -29 -33.5 -77l0 -295h-116zM115 710h108l67 -76l67 76h108l-114 -150l-122 0z" />
<glyph unicode="&#329;" horiz-adv-x="660" d="M150 500h91l9 -56q56 65 155 65q92 0 143.5 -54.5q51.5 -54.5 51.5 -164.5v-290h-116v290q0 55 -26.5 83q-26.5 28 -72.5 28q-54 0 -85.5 -29q-31.5 -29 -33.5 -77l0 -295h-116zM42 700h128l-78 -260l-102 0z" />
<glyph unicode="&#330;" horiz-adv-x="710" d="M420 -94h34q35 0 50.5 20q15.5 20 15.5 69v5l-273 460l-57 107v-567h-120v700h170l231 -390l49 -91v481h120v-705q0 -53 -10.5 -90.5q-10.5 -37.5 -33 -60.5q-22.5 -23 -58 -33.5q-35.5 -10.5 -84.5 -10.5l-34 0z" />
<glyph unicode="&#331;" horiz-adv-x="575" d="M295 -98h34q36 0 53 21q17 21 17 72v295q0 55 -26.5 83q-26.5 28 -72.5 28q-54 0 -85.5 -29q-31.5 -29 -33.5 -77l0 -295h-116v500h91l9 -56q56 65 155 65q92 0 143.5 -54.5q51.5 -54.5 51.5 -164.5v-295q0 -53 -10.5 -90.5q-10.5 -37.5 -33 -60.5q-22.5 -23 -58 -33.5q-35.5 -10.5 -84.5 -10.5l-34 0z" />
<glyph unicode="&#332;" horiz-adv-x="710" d="M355 -9q-70 0 -127.5 22.5q-57.5 22.5 -98 65q-40.5 42.5 -62.5 104.5q-22 62 -22 141v52q0 78 22.5 140q22.5 62 63 104.5q40.5 42.5 98 65.5q57.5 23 126.5 23q70 0 127.5 -22.5q57.5 -22.5 98 -65.5q40.5 -43 62.5 -104.5q22 -61.5 22 -140.5v-52q0 -78 -22.5 -140q-22.5 -62 -63 -105q-40.5 -43 -98 -65.5q-57.5 -22.5 -126.5 -22.5zt0 0zM355 103q82 0 133 55.5q51 55.5 51 165.5v52q0 54 -13.5 95.5q-13.5 41.5 -38 69q-24.5 27.5 -58.5 42q-34 14.5 -74 14.5q-83 0 -133.5 -55.5q-50.5 -55.5 -50.5 -165.5v-52q0 -109 51.5 -165q51.5 -56 132.5 -56zt0 0zM200 881h310v-92l-310 0z" />
<glyph unicode="&#333;" horiz-adv-x="550" d="M275 -9q-113 0 -176.5 64q-63.5 64 -63.5 179v32q0 57 16.5 102q16.5 45 48 76.5q31.5 31.5 75.5 48q44 16.5 100 16.5q113 0 176.5 -64q63.5 -64 63.5 -179v-32q0 -57 -16.5 -102q-16.5 -45 -48 -76.5q-31.5 -31.5 -76 -48q-44.5 -16.5 -99.5 -16.5zt0 0zM275 99q57 0 87.5 33q30.5 33 30.5 102v32q0 68 -31.5 101.5q-31.5 33.5 -86.5 33.5q-57 0 -87.5 -33q-30.5 -33 -30.5 -102v-32q0 -68 31.5 -101.5q31.5 -33.5 86.5 -33.5zt0 0zM130 680h290v-90l-290 0z" />
<glyph unicode="&#334;" horiz-adv-x="710" d="M355 -9q-70 0 -127.5 22.5q-57.5 22.5 -98 65q-40.5 42.5 -62.5 104.5q-22 62 -22 141v52q0 78 22.5 140q22.5 62 63 104.5q40.5 42.5 98 65.5q57.5 23 126.5 23q70 0 127.5 -22.5q57.5 -22.5 98 -65.5q40.5 -43 62.5 -104.5q22 -61.5 22 -140.5v-52q0 -78 -22.5 -140q-22.5 -62 -63 -105q-40.5 -43 -98 -65.5q-57.5 -22.5 -126.5 -22.5zt0 0zM355 103q82 0 133 55.5q51 55.5 51 165.5v52q0 54 -13.5 95.5q-13.5 41.5 -38 69q-24.5 27.5 -58.5 42q-34 14.5 -74 14.5q-83 0 -133.5 -55.5q-50.5 -55.5 -50.5 -165.5v-52q0 -109 51.5 -165q51.5 -56 132.5 -56zt0 0zM355 761q-77 0 -116 37q-39 37 -39 102l84 0q0 -27 18 -44q18 -17 53 -17q36 0 54.5 17q18.5 17 18.5 44l82 0q0 -65 -39 -102t-116 -37z" />
<glyph unicode="&#335;" horiz-adv-x="550" d="M275 -9q-113 0 -176.5 64q-63.5 64 -63.5 179v32q0 57 16.5 102q16.5 45 48 76.5q31.5 31.5 75.5 48q44 16.5 100 16.5q113 0 176.5 -64q63.5 -64 63.5 -179v-32q0 -57 -16.5 -102q-16.5 -45 -48 -76.5q-31.5 -31.5 -76 -48q-44.5 -16.5 -99.5 -16.5zt0 0zM275 99q57 0 87.5 33q30.5 33 30.5 102v32q0 68 -31.5 101.5q-31.5 33.5 -86.5 33.5q-57 0 -87.5 -33q-30.5 -33 -30.5 -102v-32q0 -68 31.5 -101.5q31.5 -33.5 86.5 -33.5zt0 0zM275 561q-69 0 -107 37q-38 37 -38 102l82 0q0 -29 17 -46q17 -17 46 -17q30 0 47.5 17q17.5 17 17.5 46l80 0q0 -65 -38 -102t-107 -37z" />
<glyph unicode="&#336;" horiz-adv-x="710" d="M355 -9q-70 0 -127.5 22.5q-57.5 22.5 -98 65q-40.5 42.5 -62.5 104.5q-22 62 -22 141v52q0 78 22.5 140q22.5 62 63 104.5q40.5 42.5 98 65.5q57.5 23 126.5 23q70 0 127.5 -22.5q57.5 -22.5 98 -65.5q40.5 -43 62.5 -104.5q22 -61.5 22 -140.5v-52q0 -78 -22.5 -140q-22.5 -62 -63 -105q-40.5 -43 -98 -65.5q-57.5 -22.5 -126.5 -22.5zt0 0zM355 103q82 0 133 55.5q51 55.5 51 165.5v52q0 54 -13.5 95.5q-13.5 41.5 -38 69q-24.5 27.5 -58.5 42q-34 14.5 -74 14.5q-83 0 -133.5 -55.5q-50.5 -55.5 -50.5 -165.5v-52q0 -109 51.5 -165q51.5 -56 132.5 -56zt0 0zM321 910h120l-110 -150h-102zM479 910h130l-128 -150l-112 0z" />
<glyph unicode="&#337;" horiz-adv-x="550" d="M275 -9q-113 0 -176.5 64q-63.5 64 -63.5 179v32q0 57 16.5 102q16.5 45 48 76.5q31.5 31.5 75.5 48q44 16.5 100 16.5q113 0 176.5 -64q63.5 -64 63.5 -179v-32q0 -57 -16.5 -102q-16.5 -45 -48 -76.5q-31.5 -31.5 -76 -48q-44.5 -16.5 -99.5 -16.5zt0 0zM275 99q57 0 87.5 33q30.5 33 30.5 102v32q0 68 -31.5 101.5q-31.5 33.5 -86.5 33.5q-57 0 -87.5 -33q-30.5 -33 -30.5 -102v-32q0 -68 31.5 -101.5q31.5 -33.5 86.5 -33.5zt0 0zM248 710h116l-114 -150h-100zM404 710h126l-130 -150l-110 0z" />
<glyph unicode="&#338;" horiz-adv-x="960" d="M469 10q-23 -8 -51 -13.5q-28 -5.5 -62 -5.5q-71 0 -128 22.5q-57 22.5 -98 65q-41 42.5 -63 104.5q-22 62 -22 141v52q0 78 22 140q22 62 63 105q41 43 98 65.5q57 22.5 128 22.5q34 0 62 -5.5q28 -5.5 51 -13.5l0 10h451v-106h-330v-181h270v-106h-270v-201h330v-106h-451zM356 103q35 0 62.5 7.5q27.5 7.5 50.5 20.5l0 437q-23 13 -50.5 21q-27.5 8 -62.5 8q-83 0 -134 -55.5q-51 -55.5 -51 -165.5v-52q0 -54 13.5 -95.5q13.5 -41.5 38 -69q24.5 -27.5 58.5 -42t75 -14.5z" />
<glyph unicode="&#339;" horiz-adv-x="910" d="M637 -9q-59 0 -104.5 21.5q-45.5 21.5 -74.5 63.5q-58 -85 -183 -85q-113 0 -176.5 64q-63.5 64 -63.5 179v32q0 115 63.5 179q63.5 64 176.5 64q125 0 183 -85q29 42 74.5 63.5q45.5 21.5 104.5 21.5q112 0 175 -67q63 -67 63 -192v-39h-360q5 -63 35.5 -90.5q30.5 -27.5 86.5 -27.5q56 0 80.5 18.5q24.5 18.5 32.5 43.5l120 0q-8 -35 -25 -65q-17 -30 -45.5 -52q-28.5 -22 -68.5 -34.5q-40 -12.5 -94 -12.5zt0 0zM275 99q55 0 86.5 33.5q31.5 33.5 31.5 101.5v32q0 68 -31.5 101.5q-31.5 33.5 -86.5 33.5q-55 0 -86.5 -33.5q-31.5 -33.5 -31.5 -101.5v-32q0 -68 31.5 -101.5q31.5 -33.5 86.5 -33.5zt0 0zM637 407q-54 0 -84.5 -26.5q-30.5 -26.5 -36.5 -84.5l242 0q-6 60 -36 85.5t-85 25.5z" />
<glyph unicode="&#340;" horiz-adv-x="620" d="M335 264h-145v-264h-120v700h241q140 0 204.5 -58q64.5 -58 64.5 -160q0 -70 -32 -120.5q-32 -50.5 -98 -75.5l150 -286h-136zM190 594v-224h121q75 0 109 30.5q34 30.5 34 81.5q0 52 -34 82q-34 30 -109 30zM344 910h130l-128 -150l-112 0z" />
<glyph unicode="&#341;" horiz-adv-x="380" d="M65 500h91l9 -56q26 32 64.5 48.5q38.5 16.5 85.5 16.5h50v-108h-50q-69 0 -101.5 -30q-32.5 -30 -32.5 -81v-290h-116zM274 710h126l-130 -150l-110 0z" />
<glyph unicode="&#342;" horiz-adv-x="620" d="M335 264h-145v-264h-120v700h241q140 0 204.5 -58q64.5 -58 64.5 -160q0 -70 -32 -120.5q-32 -50.5 -98 -75.5l150 -286h-136zM190 594v-224h121q75 0 109 30.5q34 30.5 34 81.5q0 52 -34 82q-34 30 -109 30zM265 -50h124l-96 -150l-94 0z" />
<glyph unicode="&#343;" horiz-adv-x="380" d="M65 500h91l9 -56q26 32 64.5 48.5q38.5 16.5 85.5 16.5h50v-108h-50q-69 0 -101.5 -30q-32.5 -30 -32.5 -81v-290h-116zM63 -50h120l-100 -150l-90 0z" />
<glyph unicode="&#344;" horiz-adv-x="620" d="M335 264h-145v-264h-120v700h241q140 0 204.5 -58q64.5 -58 64.5 -160q0 -70 -32 -120.5q-32 -50.5 -98 -75.5l150 -286h-136zM190 594v-224h121q75 0 109 30.5q34 30.5 34 81.5q0 52 -34 82q-34 30 -109 30zM115 910h112l63 -75l63 75h112l-110 -150l-130 0z" />
<glyph unicode="&#345;" horiz-adv-x="380" d="M65 500h91l9 -56q26 32 64.5 48.5q38.5 16.5 85.5 16.5h50v-108h-50q-69 0 -101.5 -30q-32.5 -30 -32.5 -81v-290h-116zM40 710h108l67 -76l67 76h108l-114 -150l-122 0z" />
<glyph unicode="&#346;" horiz-adv-x="610" d="M305 -9q-131 0 -194 59.5q-63 59.5 -71 184.5l128 0q5 -72 36.5 -101.5q31.5 -29.5 100.5 -29.5q72 0 105.5 27q33.5 27 33.5 66q0 39 -29 60q-29 21 -73 34.5q-44 13.5 -95 26q-51 12.5 -95 34.5q-44 22 -73 60q-29 38 -29 102q0 42 16 77.5q16 35.5 47.5 62q31.5 26.5 79.5 41q48 14.5 112 14.5q128 0 187.5 -55.5q59.5 -55.5 67.5 -168.5l-128 0q-5 60 -33.5 86q-28.5 26 -94.5 26q-68 0 -98 -24.5q-30 -24.5 -30 -59.5q0 -37 29 -56.5q29 -19.5 73 -32.5q44 -13 95 -25.5q51 -12.5 95 -35q44 -22.5 73 -62q29 -39.5 29 -106.5q0 -45 -16 -82.5q-16 -37.5 -48.5 -64.5q-32.5 -27 -82.5 -42q-50 -15 -118 -15zt0 0zM359 910h130l-128 -150l-112 0z" />
<glyph unicode="&#347;" horiz-adv-x="490" d="M245 -9q-103 0 -152.5 45.5q-49.5 45.5 -57.5 128.5l122 0q8 -43 26.5 -60.5q18.5 -17.5 61.5 -17.5q51 0 69.5 14.5q18.5 14.5 18.5 38.5q0 27 -21.5 41q-21.5 14 -53.5 22.5q-32 8.5 -69 16q-37 7.5 -69 23q-32 15.5 -53.5 43q-21.5 27.5 -21.5 76.5q0 31 12 58q12 27 37 46.5q25 19.5 62.5 31q37.5 11.5 88.5 11.5q96 0 144 -44.5q48 -44.5 56 -124.5l-122 0q-8 41 -24.5 57q-16.5 16 -53.5 16q-43 0 -60.5 -14q-17.5 -14 -17.5 -34q0 -25 21.5 -36.5q21.5 -11.5 53.5 -19q32 -7.5 69 -15q37 -7.5 69 -24q32 -16.5 53.5 -46.5q21.5 -30 21.5 -81q0 -33 -12.5 -61q-12.5 -28 -38 -48q-25.5 -20 -65 -31.5q-39.5 -11.5 -94.5 -11.5zt0 0zM304 710h126l-130 -150l-110 0z" />
<glyph unicode="&#348;" horiz-adv-x="610" d="M305 -9q-131 0 -194 59.5q-63 59.5 -71 184.5l128 0q5 -72 36.5 -101.5q31.5 -29.5 100.5 -29.5q72 0 105.5 27q33.5 27 33.5 66q0 39 -29 60q-29 21 -73 34.5q-44 13.5 -95 26q-51 12.5 -95 34.5q-44 22 -73 60q-29 38 -29 102q0 42 16 77.5q16 35.5 47.5 62q31.5 26.5 79.5 41q48 14.5 112 14.5q128 0 187.5 -55.5q59.5 -55.5 67.5 -168.5l-128 0q-5 60 -33.5 86q-28.5 26 -94.5 26q-68 0 -98 -24.5q-30 -24.5 -30 -59.5q0 -37 29 -56.5q29 -19.5 73 -32.5q44 -13 95 -25.5q51 -12.5 95 -35q44 -22.5 73 -62q29 -39.5 29 -106.5q0 -45 -16 -82.5q-16 -37.5 -48.5 -64.5q-32.5 -27 -82.5 -42q-50 -15 -118 -15zt0 0zM305 835l-63 -75h-112l110 150h130l110 -150l-112 0z" />
</font>
</defs>
</svg>
