<svg xmlns="http://www.w3.org/2000/svg" viewBox="0 0 295.16 288.69"><title>uppy-dog-head-arrow</title><g fill="#e02d79"><path d="M84.58 172.84h126.6v115.85H84.58z"/><path d="M0 185.8L147.58 0l147.58 185.8H0z"/></g><path d="M64.99 224.5s13.21 6 13.21 15.54c0 14 43.46-14.87 43.46-14.87l3.33-39.33-29.33-36.67-24.67-6z" fill="#fff"/><path d="M247.75 142.03c0-25.18-8-24.89-8-24.89s1.72-13.45-4.58-13.45-9.1 1.43-12.3 1.43c-3.8 0-6.87.29-6.87.29s-9.15-19.17-18-19.17c-5.18 0-2.86-17-18.31-17-12 0-13.73 1.57-24 1.57s-24 .86-32.62.86c-12.93 0-44.81 28.7-60.82 50.29-1.65 8.11-3.53 20.83-3.53 44.79 0 6.29-5.15 30.9-5.15 38.05s9.06 28.52 20.8 28.52c7.15 0 10.87-4.29 10.87-7.73s-1.72-14.31-1.72-19.46c0-7.64 14.16-57.22 14.16-58.37 0 0-1.84 16.68-1.84 34.71 0 18.48 25.09 25.38 26.87 25.38 0 0-30.87.1-30.87-19.08 0 0-2.29 12-2.29 19.46s2 15.16 2 18.88c0 4.94-5.67 11.74-13.35 13 1.95 36.13 39.62 39.41 45.68 39.41 6.22 0 37.55-5.72 37.55-16.88v-1.63s-.67-11-.67-14.76c0 0 8.15 3.29 15 3.29s37.38-9.66 37.38-35.99c0 0 4.86.57 7.73.57s4.58-.57 4.58-3.43-12-24.61-12-32a58.35 58.35 0 0 1 1.69-13.78s32.61 2.29 32.61-22.88z" fill="#231f20"/><path d="M201.42 192.47c7.3 0 6.87 6.44 6.87 12.88s-.71 35.48-34.62 35.48c-7.72 0-18.49-6.3-18.31-12.3.29-9.73 18.6-5 18.6-24.32 0 0 2-8.87-5.72-8.87s1.86-5.15 13.45-5.15c6.44 0 8.58 2.86 8.58 14.88 0 14.59-7.82 19.64-5.89 19.94 1.47.23 13-5.06 13-17.08.04-9.74-1.68-15.46 4.04-15.46z" fill="#fff"/><path d="M97.68 147.75s18.45-17.17 27.9-17.17c2.58 0 10.3-.86 15-.86 7.73 0 25.32-6.22 25.32-10.3a28.77 28.77 0 0 1 16.74-5.58c8.38 0 15.88 4.29 15.88.43 0-1.72.86-6.44 7.73-6.44s4.72-5.15 4.72-5.15-9-13.3-15.88-13.3-12 6-19.74 6c-23.17 0-16.74-4.72-41.2-4.72-6 0-24.46 17.17-25.32 23.17 0 0-20.6 8.15-20.6 15l6.91 11.62z" fill="#e02d79"/><path d="M129.44 115.13s6-6.87 11.16-6.87a30.08 30.08 0 0 1 13.73 3.86s-3-8.58-13.73-8.58-11.16 11.59-11.16 11.59zM192.14 105.69s2.15-3.86 6-3.86a11.74 11.74 0 0 1 6.87 2.58s-2.58-6.87-7.3-6.87-5.57 8.15-5.57 8.15z" fill="#231f20"/><path d="M200.83 118.32c0 6 12.59 15.16 22.89 15.16s13.16-16 13.16-20-2.29-6.29-5.15-6.29-9.44 2.36-12.3 2.29c-10.88-.36-18.6.5-18.6 8.84zM224.86 148.6s-4.58 12.3-20.88 12.3-21.74-2.86-28.33-2.86-15.45 4-18.88 4-5.72-2-8-2 5.44 29.76 12.3 29.76c0 0 6.58-5.72 23.75-5.72 7.15 0 9.16 4 9.16 4a42.18 42.18 0 0 1 7.44-1.43c3.43 0-2.29-5.72-2.29-10.3s10.3-14.31 16.6-14.31c4.58 0 20-2.29 20-6.3s-10.87-1.42-10.87-7.14z" fill="#fff"/></svg>