<?xml version="1.0" encoding="UTF-8"?>
<svg width="111px" height="112px" viewBox="0 0 111 112" version="1.1" xmlns="http://www.w3.org/2000/svg" xmlns:xlink="http://www.w3.org/1999/xlink">
    <!-- Generator: Sketch 54.1 (76490) - https://sketchapp.com -->
    <title>Uppy Dog</title>
    <desc>Created with Sketch.</desc>
    <g id="Page-1" stroke="none" stroke-width="1" fill="none" fill-rule="evenodd">
        <g id="Desktop--alexk-6" transform="translate(-456.000000, -154.000000)">
            <g id="Uppy-Dog" transform="translate(456.000000, 154.000000)">
                <g id="Group-20">
                    <polygon id="Fill-1" fill="#FF3377" points="35.246351 67.3039405 33.6530857 67.5006973 31.0970653 67.8147514 31.6935959 72.6844811 32.4675755 79.0071838 33.2192796 85.1259405 33.6270347 88.4556703 34.136351 92.6250216 36.4280857 111.324481 83.8711469 105.486481 79.1366571 66.8461027 78.5401265 61.9801568"></polygon>
                    <polygon id="Fill-2" fill="#FF3377" points="46.7545592 -0.000151351351 0.000151020408 76.5840108 110.60712 62.9733622"></polygon>
                    <g id="Group-19" transform="translate(20.010204, 24.675946)">
                        <path d="M67.70445,31.4583784 C65.839348,32.9794595 62.1846541,33.8081081 59.6663888,34.2167568 C59.0736337,41.4059459 59.4247561,40.1459459 64.8161847,49.1475676 C65.5675112,50.4037838 65.29945,51.1908108 64.0648582,51.9097297 C63.249348,52.3789189 62.1317969,52.5491892 61.0897561,52.5908108 C61.3011847,55.3113514 61.0104704,60.847027 55.2603684,64.6118919 C49.4838378,68.3918919 46.2255724,67.8318919 42.9031235,66.9654054 C43.1183276,69.2243243 44.20945,71.5702703 44.0206745,73.3221622 C43.8772051,74.6389189 43.7903684,77.8437838 33.9702663,80.5681081 C24.6447561,83.1562162 13.7675112,80.1897297 11.826899,68.8875676 C11.8306745,68.8875676 11.8382255,68.8875676 11.842001,68.8837838 C13.1747561,68.6340541 14.5603684,68.0021622 15.5042459,66.4243243 C17.1050622,63.752973 14.987001,59.5718919 14.5792459,56.2005405 C14.3300622,54.1383784 14.416899,50.7140541 14.5830214,48.9772973 C14.9077153,50.3848649 16.5538378,55.58 26.989348,54.5318919 C17.1126133,52.9010811 16.3839398,48.7427027 15.7232255,46.1356757 C15.0662867,43.5324324 14.994552,37.3043243 14.7076133,34.2848649 C13.9298582,42.5108108 12.4574092,48.6518919 12.4574092,54.2481081 C12.4574092,56.612973 12.7179194,58.8794595 13.4088378,61.1686486 C14.0733276,63.3708108 13.8921031,66.0308108 9.74659286,66.4054054 C9.31240918,66.4432432 8.88577653,66.4243243 8.47047041,66.3524324 C4.21924592,65.6335135 0.821286735,59.5151351 0.866592857,53.7297297 C0.949654082,42.8891892 0.874143878,39.9605405 0.251184694,31.5605405 C0.00577653061,28.2686486 0.330470408,25.7448649 1.75383776,22.7708108 C3.1772051,19.7967568 13.6164908,7.56 17.4901643,4.90756757 C22.7230214,1.32810811 28.0200622,2.76216216 35.5559806,1.12756757 C40.124348,0.14 44.9872051,-1.78216216 48.1473071,4.07891892 L48.8910827,5.38432432 C50.9525112,5.17621622 53.1309806,6.17513514 57.151899,11.6616216 C58.631899,11.5556757 61.0671031,11.1545946 62.9322051,10.4697297 C65.106899,9.67135135 67.0475112,11.3551351 66.7492459,14.7718919 C67.7912867,14.9610811 68.3538378,15.5778378 69.1466949,17.3448649 C70.0112867,19.267027 71.0117969,22.5437838 71.1288378,24.0837838 C71.2496541,25.6237838 70.7210827,28.9951351 67.70445,31.4583784" id="Fill-3" fill="#1D1D1B"></path>
                        <path d="M55.4340418,12.547027 C52.8780214,12.8043243 51.8208786,13.6761081 51.3451643,15.0571892 C51.0355724,15.9615135 50.86945,16.7091892 49.5442459,16.2362162 C47.0675112,15.3432432 45.6630214,15.6156757 43.4467969,16.1756757 C43.4241439,16.1794595 43.4014908,16.1832432 43.3788378,16.1908108 C43.2633071,16.2237297 43.1481541,16.2566486 43.033001,16.2903243 C41.5333684,16.7277297 40.2832969,17.7311892 39.4168173,19.0339459 C36.7226133,23.0844865 31.5562051,24.5779459 24.3578173,25.1243243 C20.3708786,27.7956757 17.0861847,30.7243243 14.8435316,33.1156757 C14.4999602,31.4772973 10.4299602,26.4448649 10.4299602,26.4448649 C11.2228173,24.9918919 13.6127153,22.4945946 17.3957765,19.8345946 C18.9399602,15.96 21.3260827,12.2745946 24.4861847,10.6551351 C28.3787357,8.65843243 33.8649296,9.69254054 36.9419704,10.5469189 C37.5483173,10.7149189 38.1826031,10.7262703 38.796501,10.5892973 C39.8075827,10.3637838 40.84245,10.1587027 41.8999704,9.9767027 C42.4511949,9.88172973 42.9744806,9.67324324 43.4350929,9.35578378 C45.4478173,7.96902703 49.0553173,5.91632432 51.4055724,7.48432432 C53.7765929,9.06972973 55.2641439,11.0410811 55.2641439,11.0410811 C55.5963888,11.4005405 56.2004704,12.4675676 55.4340418,12.547027" id="Fill-5" fill="#FF3377"></path>
                        <path d="M52.1245051,16.4326703 C52.6481684,14.5195892 54.0983418,13.5240757 57.7020663,13.227427 C61.3061684,12.9307784 62.96475,10.8856432 64.6599541,12.1558595 C66.3551582,13.4260757 65.68425,19.4771027 62.6124949,21.3126162 C59.1118418,23.4042919 51.3108827,19.4040757 52.1245051,16.4326703" id="Fill-7" fill="#FFFFFF"></path>
                        <path d="M25.5905214,19.7449946 C25.5905214,18.4312649 26.0141337,15.6093189 28.547501,14.4772108 C31.8956235,12.9814811 34.6804398,15.1817514 35.1621949,15.6248324 C35.691899,16.1125622 35.3381337,16.3918054 34.8167357,16.2381838 C33.4213071,15.8268865 31.7472459,15.7152649 30.1588888,16.4326703 C28.3096439,17.2677514 27.3808684,18.3321297 26.7046745,19.7291027 C26.2810622,20.6046703 25.5905214,20.7019135 25.5905214,19.7449946" id="Fill-9" fill="#1D1D1B"></path>
                        <path d="M48.1486663,12.5468757 C48.1932173,11.8718486 48.2641969,10.0257405 49.8706765,9.63071351 C51.1720949,9.31060541 52.1782684,10.1854162 52.7408194,11.2066595 C53.0005745,11.6781189 52.882401,11.7685514 52.5029622,11.4832541 C51.8958602,11.0273081 51.0758194,10.8570378 50.3460133,11.0662811 C49.6233806,11.2732541 49.0185439,11.8457405 48.74935,12.4083892 C48.50885,12.9116324 48.1211051,12.9657405 48.1486663,12.5468757" id="Fill-11" fill="#1D1D1B"></path>
                        <path d="M62.5961847,26.1610811 C62.5961847,29.7481081 66.9417969,27.9545946 66.9417969,29.7481081 C66.9417969,29.7481081 66.602001,32.3551351 60.1609806,33.1118919 C55.856899,33.6189189 54.5430214,35.9081081 54.3580214,37.6751351 C54.2258786,38.9654054 54.3013888,40.5091892 55.9399602,42.6886486 C54.7922051,42.8172973 53.4821031,43.3167568 52.5797561,43.8691892 C51.4886337,43.032973 49.5933276,42.5827027 46.8296541,43.1313514 C43.7261847,43.7518919 41.6836337,45.0837838 40.5283276,46.3627027 L40.5321031,46.3627027 L40.5283276,46.3627027 C37.6136337,45.2313514 36.2582255,40.8308108 35.2916949,38.6059459 C34.6536337,37.1264865 34.5441439,36.1124324 34.597001,35.4124324 C39.5957765,35.8854054 42.3179194,33.2216216 45.5610827,33.2216216 C48.8910827,33.2216216 62.5961847,34.5686486 62.5961847,26.1610811" id="Fill-13" fill="#FFFFFF"></path>
                        <path d="M58.5148959,56.367027 C57.1292837,60.8697297 53.3046918,63.5827027 49.0761204,64.3318919 C44.839998,65.0810811 40.2489776,63.6054054 40.1734673,60.7902703 C40.1734673,58.5578378 43.6091816,57.6308108 45.1760184,55.3378378 C46.7466306,53.0448649 46.1840796,50.5210811 45.7989776,49.2459459 C45.3647939,47.8156757 44.2736714,47.5735135 42.3972429,47.5016216 C43.9867327,46.0448649 47.7886714,44.7091892 50.5561204,45.2275676 C51.7567327,46.5405405 52.9309163,48.8486486 52.9309163,52.0081081 C52.9309163,55.3113514 51.530202,56.6583784 50.9789776,57.4605405 C50.4239776,58.2627027 51.1262224,58.2324324 51.900202,57.6345946 C52.6251,57.0745946 54.9508143,55.1978378 55.022549,51.9097297 C55.0829571,49.3481081 54.7016306,47.1875676 53.6444878,45.3562162 C54.8564265,44.6713514 56.1098959,44.5427027 57.5106102,44.8491892 C59.3681612,47.3275676 59.6437735,52.692973 58.5148959,56.367027" id="Fill-15" fill="#FFFFFF"></path>
                        <path d="M26.9893857,54.5319297 C16.5538755,55.5800378 14.9077531,50.3849027 14.5830592,48.9773351 C14.4169367,50.7140919 14.3301,54.1384162 14.5792837,56.2005784 C14.9870388,59.5719297 17.1051,63.7530108 15.5042837,66.4243622 C15.1078551,67.0865243 14.6396918,67.5784162 14.1262224,67.949227 L13.6165286,63.7794973 C13.7977531,62.9470649 13.6656102,62.0238216 13.4088755,61.1686865 C13.3371408,60.9303081 13.2691816,60.6919297 13.2087735,60.4497676 C12.672651,58.429227 12.4612224,56.4200378 12.4574469,54.3313892 L12.4574469,54.2481459 C12.4574469,52.2162541 12.649998,50.1086865 12.9369367,47.8535514 C13.1408143,46.2605784 13.3862224,44.5919297 13.6429571,42.8249027 C14.0167327,40.2216595 14.4131612,37.4027405 14.707651,34.2849027 C14.900202,36.309227 14.9945898,39.7789568 15.2362224,42.6281459 C15.3532633,44.0281459 15.5080592,45.2767946 15.7232633,46.1357135 C15.8289776,46.5481459 15.9346918,46.9946324 16.0781612,47.4676054 C16.8408143,49.9913892 18.6681612,53.1584162 26.9893857,54.5319297" id="Fill-17" fill="#FFFFFF"></path>
                    </g>
                </g>
            </g>
        </g>
    </g>
</svg>