<svg width="300" height="300" viewBox="0 0 300 300" fill="none" xmlns="http://www.w3.org/2000/svg">
<g clip-path="url(#clip0_532_2)">
<line x1="25.25" y1="-1" x2="25.25" y2="299" stroke="#FECDD3" stroke-width="0.5"/>
<line x1="0.25" y1="-1" x2="0.250013" y2="299" stroke="#FECDD3" stroke-width="0.5"/>
<line x1="-2.18557e-08" y1="273.75" x2="300" y2="273.75" stroke="#FECDD3" stroke-width="0.5"/>
<path d="M-1 299L299 299" stroke="#FECDD3" stroke-width="0.5"/>
<line x1="50.25" y1="-1" x2="50.25" y2="299" stroke="#FECDD3" stroke-width="0.5"/>
<line x1="-2.18557e-08" y1="248.75" x2="300" y2="248.75" stroke="#FECDD3" stroke-width="0.5"/>
<line x1="75.25" y1="-1" x2="75.25" y2="299" stroke="#FECDD3" stroke-width="0.5"/>
<line x1="-2.18557e-08" y1="223.75" x2="300" y2="223.75" stroke="#FECDD3" stroke-width="0.5"/>
<line x1="100.25" y1="-1" x2="100.25" y2="299" stroke="#FECDD3" stroke-width="0.5"/>
<line x1="-2.18557e-08" y1="198.75" x2="300" y2="198.75" stroke="#FECDD3" stroke-width="0.5"/>
<line x1="125.25" y1="-1" x2="125.25" y2="299" stroke="#FECDD3" stroke-width="0.5"/>
<line x1="-2.18557e-08" y1="173.75" x2="300" y2="173.75" stroke="#FECDD3" stroke-width="0.5"/>
<line x1="150.25" y1="-1" x2="150.25" y2="299" stroke="#FECDD3" stroke-width="0.5"/>
<line x1="-2.18557e-08" y1="148.75" x2="300" y2="148.75" stroke="#FECDD3" stroke-width="0.5"/>
<line x1="175.25" y1="-1" x2="175.25" y2="299" stroke="#FECDD3" stroke-width="0.5"/>
<line x1="-2.18557e-08" y1="123.75" x2="300" y2="123.75" stroke="#FECDD3" stroke-width="0.5"/>
<line x1="200.25" y1="-1" x2="200.25" y2="299" stroke="#FECDD3" stroke-width="0.5"/>
<line x1="-2.18557e-08" y1="98.75" x2="300" y2="98.75" stroke="#FECDD3" stroke-width="0.5"/>
<line x1="225.25" y1="-1" x2="225.25" y2="299" stroke="#FECDD3" stroke-width="0.5"/>
<line x1="-2.18557e-08" y1="73.75" x2="300" y2="73.75" stroke="#FECDD3" stroke-width="0.5"/>
<line x1="250.25" y1="-1" x2="250.25" y2="299" stroke="#FECDD3" stroke-width="0.5"/>
<line x1="-2.18557e-08" y1="48.75" x2="300" y2="48.75" stroke="#FECDD3" stroke-width="0.5"/>
<line x1="275.25" y1="-1.09278e-08" x2="275.25" y2="300" stroke="#FECDD3" stroke-width="0.5"/>
<line x1="299.75" y1="301" x2="299.75" y2="-1" stroke="#FECDD3" stroke-width="0.5"/>
<line x1="-2.18557e-08" y1="23.75" x2="300" y2="23.75" stroke="#FECDD3" stroke-width="0.5"/>
<path d="M-4.37112e-08 2.62268e-05L300 0" stroke="#FECDD3" stroke-width="0.5"/>
</g>
<defs>
<clipPath id="clip0_532_2">
<rect width="300" height="300" fill="white"/>
</clipPath>
</defs>
</svg>
