<svg width="400" height="400" viewBox="0 0 400 400" fill="none" xmlns="http://www.w3.org/2000/svg">
<g clip-path="url(#clip0_522_2)">
<line x1="50.5" y1="-2.18557e-08" x2="50.5" y2="400" stroke="#FF3377" stroke-opacity="0.4"/>
<line x1="100.5" y1="-2.18557e-08" x2="100.5" y2="400" stroke="#FF3377" stroke-opacity="0.4"/>
<line x1="150.5" y1="-2.18557e-08" x2="150.5" y2="400" stroke="#FF3377" stroke-opacity="0.4"/>
<line x1="200.5" y1="-2.18557e-08" x2="200.5" y2="400" stroke="#FF3377" stroke-opacity="0.4"/>
<line x1="250.5" y1="-2.18557e-08" x2="250.5" y2="400" stroke="#FF3377" stroke-opacity="0.4"/>
<line x1="300.5" y1="-2.18557e-08" x2="300.5" y2="400" stroke="#FF3377" stroke-opacity="0.4"/>
<line x1="350.5" y1="-2.18557e-08" x2="350.5" y2="400" stroke="#FF3377" stroke-opacity="0.4"/>
<line x1="-4.37114e-08" y1="349.5" x2="400" y2="349.5" stroke="#FF3377" stroke-opacity="0.4"/>
<line x1="-4.37114e-08" y1="299.5" x2="400" y2="299.5" stroke="#FF3377" stroke-opacity="0.4"/>
<line x1="-4.37114e-08" y1="249.5" x2="400" y2="249.5" stroke="#FF3377" stroke-opacity="0.4"/>
<line x1="-4.37114e-08" y1="199.5" x2="400" y2="199.5" stroke="#FF3377" stroke-opacity="0.4"/>
<line x1="-4.37114e-08" y1="149.5" x2="400" y2="149.5" stroke="#FF3377" stroke-opacity="0.4"/>
<line x1="-4.37114e-08" y1="99.5" x2="400" y2="99.5" stroke="#FF3377" stroke-opacity="0.4"/>
<line x1="-4.37114e-08" y1="49.5" x2="400" y2="49.5" stroke="#FF3377" stroke-opacity="0.4"/>
</g>
<defs>
<clipPath id="clip0_522_2">
<rect width="400" height="400" fill="white"/>
</clipPath>
</defs>
</svg>
