<svg width="111" height="112" viewBox="0 0 111 112" xmlns="http://www.w3.org/2000/svg"><g fill="none" fill-rule="evenodd"><path fill="#F37" d="M35.246 67.304l-1.593.197-2.556.314.597 4.87.774 6.322.751 6.119.408 3.33.51 4.169 2.291 18.7 47.443-5.839-4.734-38.64-.597-4.866z"/><path fill="#F37" d="M46.755 0L0 76.584l110.607-13.61z"/><path d="M87.715 56.134c-1.865 1.521-5.52 2.35-8.038 2.759-.593 7.189-.242 5.929 5.15 14.93.75 1.257.483 2.044-.752 2.763-.815.469-1.933.64-2.975.68.211 2.721-.08 8.257-5.83 12.022-5.776 3.78-9.034 3.22-12.357 2.353.216 2.26 1.307 4.605 1.118 6.357-.144 1.317-.23 4.522-10.05 7.246-9.326 2.588-20.203-.378-22.144-11.68.004 0 .011 0 .015-.004 1.333-.25 2.719-.882 3.662-2.46 1.601-2.671-.517-6.852-.925-10.224-.249-2.062-.162-5.486.004-7.223.325 1.408 1.971 6.603 12.407 5.555-9.877-1.631-10.606-5.79-11.267-8.396-.657-2.604-.728-8.832-1.015-11.851-.778 8.226-2.25 14.367-2.25 19.963 0 2.365.26 4.631.951 6.92.665 2.203.483 4.863-3.662 5.237-.434.038-.861.02-1.276-.053-4.252-.719-7.65-6.837-7.604-12.622.083-10.84.007-13.77-.616-22.17-.245-3.291.08-5.815 1.503-8.79 1.423-2.973 11.863-15.21 15.736-17.862 5.233-3.58 10.53-2.146 18.066-3.78 4.569-.988 9.431-2.91 12.592 2.95l.743 1.306c2.062-.208 4.24.791 8.261 6.278 1.48-.106 3.915-.507 5.78-1.192 2.175-.799 4.116.885 3.817 4.302 1.042.189 1.605.806 2.398 2.573.864 1.922 1.865 5.199 1.982 6.739.12 1.54-.408 4.911-3.424 7.374" fill="#1D1D1B"/><path d="M75.444 37.223c-2.556.257-3.613 1.13-4.089 2.51-.31.904-.475 1.652-1.8 1.18-2.477-.894-3.882-.621-6.098-.061-.023.003-.045.007-.068.015l-.346.1c-1.5.437-2.75 1.44-3.616 2.743-2.694 4.05-7.86 5.544-15.059 6.09-3.987 2.672-7.272 5.6-9.514 7.992-.344-1.639-4.414-6.671-4.414-6.671.793-1.453 3.183-3.95 6.966-6.61 1.544-3.875 3.93-7.56 7.09-9.18 3.893-1.997 9.38-.963 12.456-.108.607.168 1.24.18 1.855.042a64.544 64.544 0 0 1 3.103-.612 3.85 3.85 0 0 0 1.535-.621c2.013-1.387 5.62-3.44 7.97-1.872 2.372 1.586 3.86 3.557 3.86 3.557.332.36.936 1.427.17 1.506" fill="#F37"/><path d="M72.135 41.109c.523-1.913 1.974-2.909 5.577-3.206 3.604-.296 5.263-2.341 6.958-1.071 1.695 1.27 1.024 7.321-2.047 9.157-3.501 2.091-11.302-1.909-10.488-4.88" fill="#FFF"/><path d="M45.6 44.42c0-1.313.424-4.135 2.958-5.267 3.348-1.496 6.133.705 6.614 1.148.53.488.176.767-.345.613-1.395-.411-3.07-.523-4.658.195-1.85.835-2.778 1.9-3.454 3.296-.424.876-1.114.973-1.114.016M68.159 37.223c.044-.675.115-2.521 1.722-2.916 1.301-.32 2.307.554 2.87 1.576.26.471.142.561-.238.276-.607-.456-1.427-.626-2.157-.417a2.673 2.673 0 0 0-1.596 1.342c-.24.504-.629.558-.601.139" fill="#1D1D1B"/><path d="M82.606 50.837c0 3.587 4.346 1.794 4.346 3.587 0 0-.34 2.607-6.78 3.364-4.305.507-5.619 2.796-5.804 4.563-.132 1.29-.056 2.834 1.582 5.014-1.148.128-2.458.628-3.36 1.18-1.091-.836-2.986-1.286-5.75-.738-3.104.62-5.146 1.953-6.301 3.232h.003-.003c-2.915-1.132-4.27-5.532-5.237-7.757-.638-1.48-.748-2.494-.695-3.194 4.999.473 7.721-2.19 10.964-2.19 3.33 0 17.035 1.347 17.035-7.061M78.525 81.043c-1.386 4.503-5.21 7.216-9.439 7.965-4.236.749-8.827-.727-8.902-3.542 0-2.232 3.435-3.16 5.002-5.452 1.57-2.293 1.008-4.817.623-6.092-.434-1.43-1.525-1.673-3.402-1.744 1.59-1.457 5.392-2.793 8.16-2.274 1.2 1.312 2.374 3.62 2.374 6.78 0 3.303-1.4 4.65-1.952 5.452-.555.803.147.772.921.175.725-.56 3.051-2.437 3.123-5.725.06-2.562-.321-4.722-1.378-6.554 1.212-.685 2.465-.813 3.866-.507 1.857 2.479 2.133 7.844 1.004 11.518M47 79.208c-10.436 1.048-12.082-4.147-12.407-5.555-.166 1.737-.253 5.161-.004 7.224.408 3.37 2.526 7.552.925 10.223a5.03 5.03 0 0 1-1.378 1.525l-.51-4.17c.182-.832.05-1.755-.207-2.61-.072-.239-.14-.477-.2-.72-.536-2.02-.748-4.029-.751-6.118v-.083c0-2.032.192-4.14.48-6.395.203-1.592.448-3.261.705-5.028.374-2.603.77-5.422 1.065-8.54.192 2.024.287 5.494.528 8.343.117 1.4.272 2.649.487 3.508.106.412.212.859.355 1.332.763 2.523 2.59 5.69 10.912 7.064" fill="#FFF"/></g></svg>