<svg width="39" height="28" viewBox="0 0 39 28" xmlns="http://www.w3.org/2000/svg"><path class="js" fill="#15192a" d="M24.344 19.506c1.175 1.897 2.705 3.292 5.41 3.292 2.273 0 3.724-1.123 3.724-2.674 0-1.86-1.491-2.518-3.993-3.6l-1.37-.581c-3.959-1.667-6.588-3.756-6.588-8.17 0-4.067 3.134-7.163 8.032-7.163 3.488 0 5.995 1.2 7.801 4.342l-4.27 2.71c-.941-1.666-1.956-2.323-3.53-2.323-1.607 0-2.625 1.008-2.625 2.324 0 1.627 1.019 2.285 3.372 3.293l1.371.58c4.66 1.976 7.291 3.99 7.291 8.518 0 4.882-3.879 7.556-9.088 7.556-5.094 0-8.384-2.4-9.995-5.544l4.458-2.56zm-19.375.47c.861 1.51 1.645 2.788 3.53 2.788 1.801 0 2.938-.697 2.938-3.407V.92h5.485v18.51c0 5.615-3.33 8.17-8.19 8.17-4.392 0-6.935-2.246-8.228-4.952l4.465-2.673z" fill="none" fill-rule="nonzero"/></svg>
