<svg width="96" height="27" viewBox="0 0 96 27" xmlns="http://www.w3.org/2000/svg"><g fill-rule="nonzero" fill="none"><path class="react" fill="#15192a" d="M30.553 13.503c0-2.008-2.535-3.912-6.421-5.092.897-3.93.498-7.058-1.258-8.059-.405-.235-.878-.346-1.395-.346v1.378c.286 0 .517.056.71.161.847.482 1.214 2.317.928 4.678-.069.581-.18 1.193-.318 1.817a30.393 30.393 0 00-3.954-.674 30.2 30.2 0 00-2.591-3.09c2.03-1.872 3.936-2.898 5.231-2.898V0c-1.712 0-3.954 1.211-6.221 3.312C12.997 1.224 10.755.025 9.042.025v1.378c1.29 0 3.201 1.02 5.232 2.88a29.24 29.24 0 00-2.572 3.083c-1.408.149-2.74.377-3.961.68a18.515 18.515 0 01-.324-1.792c-.293-2.36.069-4.196.91-4.684.186-.112.429-.161.715-.161V.031c-.523 0-.996.111-1.407.346-1.75 1.001-2.142 4.122-1.24 8.04C2.523 9.604 0 11.501 0 13.503c0 2.009 2.535 3.912 6.42 5.092-.896 3.93-.498 7.058 1.259 8.059.404.235.878.346 1.4.346 1.713 0 3.955-1.211 6.222-3.312 2.267 2.088 4.509 3.287 6.222 3.287.523 0 .996-.111 1.407-.346 1.75-1 2.142-4.122 1.24-8.04 3.86-1.18 6.383-3.084 6.383-5.086zm-8.109-4.122c-.23.797-.517 1.62-.84 2.441a33.394 33.394 0 00-1.713-2.93c.884.13 1.737.291 2.553.49zm-2.852 6.582a32.888 32.888 0 01-1.5 2.36 32.652 32.652 0 01-5.618.007 34.033 34.033 0 01-1.507-2.349 32.103 32.103 0 01-1.296-2.46 32.888 32.888 0 012.79-4.827 32.652 32.652 0 015.618-.005c.517.735 1.021 1.52 1.507 2.348.473.81.903 1.632 1.295 2.46a34.506 34.506 0 01-1.289 2.466zm2.012-.804c.336.828.622 1.657.859 2.46-.816.198-1.675.365-2.566.494.305-.476.61-.964.897-1.464.286-.495.554-.995.81-1.49zm-6.315 6.594a25.536 25.536 0 01-1.732-1.977c.561.024 1.134.043 1.713.043.585 0 1.165-.012 1.731-.043-.56.723-1.14 1.384-1.712 1.977zm-4.634-3.64c-.884-.13-1.737-.29-2.553-.488.23-.797.517-1.619.84-2.441.256.494.524.989.817 1.483.292.495.591.977.896 1.446zm4.603-12.86c.579.593 1.158 1.254 1.73 1.977a38.848 38.848 0 00-1.712-.043c-.585 0-1.164.013-1.731.043.56-.723 1.14-1.384 1.713-1.977zm-4.609 3.64a34.092 34.092 0 00-1.706 2.948 26.347 26.347 0 01-.86-2.46 30.453 30.453 0 012.566-.488zM5.013 16.63c-2.204-.933-3.63-2.157-3.63-3.127 0-.97 1.426-2.2 3.63-3.127a19.285 19.285 0 011.725-.624 29.536 29.536 0 001.401 3.763 29.119 29.119 0 00-1.382 3.745 19.013 19.013 0 01-1.744-.63zm3.35 8.831c-.846-.482-1.214-2.317-.927-4.678.068-.58.18-1.193.317-1.817 1.221.297 2.554.525 3.955.674a30.2 30.2 0 002.59 3.09c-2.03 1.872-3.935 2.898-5.23 2.898-.28-.006-.517-.062-.704-.167zm14.773-4.709c.292 2.36-.069 4.196-.91 4.684-.187.112-.43.161-.716.161-1.289 0-3.2-1.02-5.231-2.88a29.24 29.24 0 002.572-3.083 29.286 29.286 0 003.96-.68c.144.624.256 1.223.325 1.798zm.653-11.006c.617.191 1.202.401 1.75.63 2.205.933 3.631 2.157 3.631 3.127-.006.97-1.432 2.2-3.637 3.127-.535.229-1.12.433-1.725.624a29.536 29.536 0 00-1.401-3.763 29.119 29.119 0 001.382-3.745zm-8.519.933c1.572 0 2.846 1.264 2.846 2.824 0 1.56-1.274 2.824-2.846 2.824s-2.846-1.264-2.846-2.824c0-1.56 1.274-2.824 2.846-2.824zM42.223 21v-5.64h2.621l2.89 5.64h3.674l-3.266-6.123a4.168 4.168 0 002.057-1.708c.498-.795.747-1.694.747-2.696v-.022c0-1.031-.219-1.916-.655-2.653-.437-.738-1.07-1.305-1.896-1.703-.828-.397-1.825-.596-2.992-.596h-6.424V21h3.244zm2.825-8.057h-2.825V8.034h2.782c.81 0 1.449.22 1.918.66.469.441.703 1.037.703 1.79v.02c0 .76-.227 1.356-.682 1.79-.454.433-1.086.65-1.896.65zm13.01 8.304c.844 0 1.578-.11 2.201-.328.623-.218 1.148-.504 1.574-.859.426-.354.763-.74 1.01-1.155.247-.415.413-.823.5-1.224l.032-.119h-2.9l-.033.065a1.708 1.708 0 01-.403.575 2.358 2.358 0 01-.773.494c-.32.132-.7.199-1.144.199-.552 0-1.028-.122-1.43-.366a2.401 2.401 0 01-.928-1.058c-.188-.396-.295-.859-.321-1.389l-.005-.163h8.033v-.978c0-1.174-.225-2.2-.677-3.077a4.91 4.91 0 00-1.917-2.041c-.827-.484-1.81-.725-2.949-.725-1.131 0-2.116.249-2.954.746-.838.498-1.486 1.202-1.944 2.111-.459.91-.688 1.984-.688 3.223v.01c0 1.247.23 2.323.688 3.229A4.911 4.911 0 0055 20.51c.856.49 1.874.736 3.056.736zm2.404-7.304h-4.99l.024-.18c.054-.332.143-.632.268-.9.218-.47.519-.824.902-1.064.383-.24.822-.36 1.316-.36.501 0 .94.117 1.316.35.376.232.67.581.88 1.047.133.29.224.625.273 1.003l.011.104zm8.133 7.24c.509 0 .981-.074 1.418-.22a3.703 3.703 0 001.16-.629c.337-.272.61-.598.817-.978h.129V21h3.115v-7.981c0-.803-.197-1.497-.59-2.084-.395-.588-.959-1.04-1.693-1.36-.734-.318-1.61-.477-2.626-.477-1.003 0-1.873.15-2.61.45-.738.302-1.32.717-1.746 1.247a3.453 3.453 0 00-.747 1.858l-.01.108h2.878l.022-.065c.1-.365.326-.657.677-.875.35-.219.812-.328 1.385-.328.63 0 1.112.143 1.445.43.333.286.5.687.5 1.203l-.001.831-2.857.179c-1.446.086-2.564.43-3.351 1.031-.788.602-1.182 1.429-1.182 2.481v.022c0 .695.165 1.307.494 1.837.33.53.784.942 1.364 1.235.58.294 1.25.44 2.01.44zm1.031-2.288c-.537 0-.973-.124-1.31-.371-.337-.247-.505-.59-.505-1.026v-.021c0-.416.161-.749.483-1 .323-.25.803-.393 1.44-.43l2.384-.153v.852c0 .408-.109.775-.327 1.101a2.26 2.26 0 01-.886.768 2.82 2.82 0 01-1.279.28zm13.095 2.352c1.031 0 1.923-.186 2.675-.559a4.543 4.543 0 001.789-1.536c.44-.651.7-1.4.778-2.245v-.064h-2.91l-.022.064c-.122.595-.374 1.057-.758 1.386-.383.33-.893.494-1.53.494-.537 0-.996-.141-1.375-.424-.38-.283-.672-.693-.876-1.23-.204-.537-.306-1.193-.306-1.966v-.021c0-.76.1-1.406.3-1.94.201-.533.493-.941.876-1.224.383-.283.844-.424 1.38-.424.66 0 1.182.179 1.569.537.387.358.627.816.72 1.375l.021.064h2.911v-.054c-.064-.859-.315-1.618-.752-2.277-.436-.659-1.034-1.174-1.794-1.547-.759-.372-1.661-.558-2.707-.558-1.188 0-2.21.24-3.066.72a4.786 4.786 0 00-1.966 2.073c-.455.902-.682 1.983-.682 3.244v.021c0 1.268.227 2.356.682 3.266a4.839 4.839 0 001.966 2.095c.855.487 1.881.73 3.077.73zm11.73-.107c.316 0 .604-.013.865-.038a12.1 12.1 0 00.672-.08v-2.31c-.122.007-.242.016-.36.027-.118.01-.263.016-.435.016-.501 0-.872-.113-1.112-.338-.24-.226-.36-.607-.36-1.145v-5.575h2.267V9.334H93.72V6.52h-3.169v2.814h-1.697v2.363h1.697V17.8c0 1.189.312 2.043.935 2.562.623.519 1.611.779 2.965.779z"/></g></svg>
