<svg width="114" height="28" viewBox="0 0 114 28" xmlns="http://www.w3.org/2000/svg"><g fill-rule="nonzero" fill="none"><path d="M36.907 21.873a5.88 5.88 0 01-3.414-.99 5.06 5.06 0 01-1.993-2.708l2.078-.783a3.912 3.912 0 001.357 1.686 3.51 3.51 0 002.057.62 2.967 2.967 0 001.961-.609c.498-.429.77-1.074.732-1.74a1.943 1.943 0 00-.202-.881 2.637 2.637 0 00-.456-.664 3.07 3.07 0 00-.784-.533 11.541 11.541 0 00-.88-.413c-.233-.094-.576-.22-1.028-.38-.566-.203-.99-.363-1.273-.479a9.478 9.478 0 01-1.113-.576 4.127 4.127 0 01-1.039-.805 3.923 3.923 0 01-.625-1.055c-.6-1.5-.2-3.225.996-4.285.848-.769 2-1.153 3.456-1.153 1.216 0 2.216.276 3 .827a3.99 3.99 0 011.58 2.197l-2.035.696a2.41 2.41 0 00-.986-1.12 3.245 3.245 0 00-1.728-.425 2.614 2.614 0 00-1.665.479c-.404.32-.63.824-.604 1.348.003.4.173.78.466 1.044.282.285.613.514.976.675.339.145.855.34 1.548.587l.943.359c.205.08.506.214.901.402.318.144.623.315.912.511.26.192.507.399.742.62.256.228.474.496.647.794.165.31.293.638.382.979.108.4.161.814.159 1.229 0 1.421-.474 2.534-1.421 3.339-.947.805-2.163 1.207-3.647 1.207zm13.592-.26l-5.09-15.227h2.376l3.371 10.615c.186.57.342 1.152.467 1.74.124-.589.28-1.17.466-1.74l3.33-10.615h2.353l-5.068 15.226h-2.205zm11.768 0V6.385h9.203v2.132h-6.998v4.176h4.516v2.132h-4.516v4.654h7.464v2.132h-9.67zm15.288 0V6.385h2.205v13.051h7.252v2.175h-9.457zM95.324 8.56v13.051h-2.206V8.562H88.92V6.385h10.602v2.175h-4.198zm8.757 13.051V6.386h9.203v2.132h-6.998v4.176h4.517v2.132h-4.517v4.654h7.464v2.132h-9.67zM21.663 3.672C19.08-.016 13.98-1.11 10.293 1.235l-6.475 4.12A7.414 7.414 0 00.462 10.32a7.795 7.795 0 00.772 5.014 7.427 7.427 0 00-1.112 2.77 7.89 7.89 0 001.353 5.976c2.582 3.689 7.682 4.782 11.368 2.437l6.476-4.119a7.413 7.413 0 003.356-4.966 7.799 7.799 0 00-.77-5.014 7.426 7.426 0 001.11-2.77 7.887 7.887 0 00-1.352-5.976" class="svelte" fill="#15192a"/><path d="M9.661 24.427a5.149 5.149 0 01-5.52-2.042 4.744 4.744 0 01-.814-3.594 4.5 4.5 0 01.155-.603l.122-.371.332.243a8.36 8.36 0 002.533 1.263l.24.073-.022.24c-.03.34.063.681.261.96a1.55 1.55 0 001.663.616c.14-.037.274-.096.397-.174l6.476-4.119c.32-.201.541-.528.608-.9.068-.379-.02-.77-.245-1.083a1.552 1.552 0 00-1.663-.616c-.14.038-.274.097-.397.175l-2.471 1.572a4.73 4.73 0 01-1.315.576 5.149 5.149 0 01-5.52-2.042 4.744 4.744 0 01-.814-3.594 4.457 4.457 0 012.018-2.986l6.475-4.119c.407-.258.85-.453 1.316-.577a5.149 5.149 0 015.52 2.042 4.744 4.744 0 01.814 3.594c-.037.204-.089.406-.154.603l-.122.372-.332-.243a8.353 8.353 0 00-2.533-1.264l-.24-.073.021-.24a1.45 1.45 0 00-.26-.96 1.55 1.55 0 00-1.663-.616c-.14.037-.275.096-.398.174l-6.476 4.119c-.32.201-.54.528-.608.9-.067.379.021.77.245 1.083.37.533 1.034.779 1.663.616.14-.038.275-.096.398-.174l2.47-1.572c.407-.258.85-.453 1.315-.577a5.149 5.149 0 015.521 2.043 4.744 4.744 0 01.814 3.593 4.46 4.46 0 01-2.019 2.987l-6.475 4.118c-.406.259-.85.453-1.316.577" fill="#FFF"/></g></svg>
