<svg width="92" height="31" viewBox="0 0 92 31" xmlns="http://www.w3.org/2000/svg"><g fill="none" fill-rule="nonzero"><path class="vue" fill="#15192a" d="M12.954 4l2.677 4.611L18.31 4h12.954l-.469.81L15.631 31 .47 4.81 0 4h12.954zm2.677 16.2l8.911-15.391h-5.77l-3.14 5.426-3.14-5.425H6.716l8.915 15.39zM43.576 25.144c.288 0 .552-.06.792-.18s.392-.292.456-.516l4.896-15.96c0-.032.004-.064.012-.096a.328.328 0 00.012-.072.584.584 0 00-.192-.444 1.584 1.584 0 00-.48-.3 1.487 1.487 0 00-.576-.12.916.916 0 00-.456.108.565.565 0 00-.264.348l-4.2 14.256-4.224-14.256a.555.555 0 00-.276-.348.985.985 0 00-.468-.108c-.176 0-.36.036-.552.108a1.326 1.326 0 00-.48.3.597.597 0 00-.192.432c0 .064.008.128.024.192l4.92 15.96c.08.224.24.396.48.516s.496.18.768.18zm11.712.048c.848 0 1.632-.216 2.352-.648a4.965 4.965 0 001.716-1.692 4.28 4.28 0 00.636-2.268V14.32c0-.192-.088-.356-.264-.492-.176-.136-.416-.204-.72-.204-.256 0-.488.068-.696.204-.208.136-.312.3-.312.492v6.264c0 .464-.12.912-.36 1.344-.24.432-.568.784-.984 1.056-.416.272-.88.408-1.392.408-.512 0-.976-.136-1.392-.408a3.071 3.071 0 01-.996-1.056 2.664 2.664 0 01-.372-1.344v-6.24c0-.176-.096-.34-.288-.492a1.087 1.087 0 00-.696-.228c-.272 0-.508.076-.708.228-.2.152-.3.316-.3.492v6.24c0 .8.216 1.552.648 2.256a5.033 5.033 0 001.728 1.704c.72.432 1.52.648 2.4.648zm12.355 0c.768 0 1.436-.1 2.004-.3.568-.2 1.004-.432 1.308-.696.304-.264.456-.5.456-.708a.964.964 0 00-.096-.384 1.052 1.052 0 00-.276-.372.654.654 0 00-.444-.156c-.176 0-.376.076-.6.228a5.93 5.93 0 01-.864.468c-.352.16-.824.24-1.416.24-1.008 0-1.832-.26-2.472-.78-.64-.52-.96-1.228-.96-2.124v-.72h5.28c.352 0 .688-.032 1.008-.096.32-.064.584-.236.792-.516.208-.28.312-.74.312-1.38 0-.864-.212-1.624-.636-2.28a4.63 4.63 0 00-1.68-1.56 4.666 4.666 0 00-2.292-.576c-.864 0-1.656.208-2.376.624-.72.416-1.3.968-1.74 1.656-.44.688-.66 1.44-.66 2.256v2.52c0 .928.232 1.74.696 2.436.464.696 1.096 1.24 1.896 1.632.8.392 1.72.588 2.76.588zm1.08-6.648h-4.44v-.864c0-.48.128-.92.384-1.32a2.795 2.795 0 012.376-1.296c.528 0 1 .128 1.416.384.416.256.74.588.972.996.232.408.348.852.348 1.332 0 .304-.068.508-.204.612-.136.104-.42.156-.852.156zm5.89 6.6c.32 0 .604-.128.852-.384s.372-.544.372-.864c0-.352-.124-.652-.372-.9s-.532-.372-.852-.372c-.368 0-.672.124-.912.372s-.36.548-.36.9c0 .32.12.608.36.864s.544.384.912.384zm4.493-14.64c.352 0 .644-.116.876-.348.232-.232.348-.5.348-.804 0-.304-.116-.568-.348-.792a1.21 1.21 0 00-.876-.336c-.336 0-.628.112-.876.336-.248.224-.372.488-.372.792 0 .304.124.572.372.804.248.232.54.348.876.348zM76.85 30.496c.768 0 1.392-.192 1.872-.576.48-.384.832-.92 1.056-1.608.224-.688.336-1.472.336-2.352V14.32c0-.208-.096-.376-.288-.504-.192-.128-.432-.192-.72-.192-.272 0-.504.064-.696.192-.192.128-.288.296-.288.504v11.64c0 .528-.028 1.004-.084 1.428-.056.424-.192.756-.408.996-.216.24-.556.36-1.02.36a.799.799 0 00-.564.24c-.168.16-.252.376-.252.648 0 .208.08.404.24.588.16.184.432.276.816.276zm9.379-5.304c1.28 0 2.272-.292 2.976-.876.704-.584 1.056-1.364 1.056-2.34 0-.72-.144-1.296-.432-1.728a3.135 3.135 0 00-1.104-1.02 6.416 6.416 0 00-1.416-.576 66.882 66.882 0 01-1.428-.408c-.456-.136-.824-.316-1.104-.54-.28-.224-.42-.536-.42-.936 0-.256.072-.508.216-.756.144-.248.376-.464.696-.648.32-.184.744-.276 1.272-.276.464 0 .86.056 1.188.168.328.112.608.228.84.348.232.12.412.18.54.18.176 0 .32-.064.432-.192.112-.128.2-.272.264-.432.064-.16.096-.288.096-.384 0-.224-.164-.436-.492-.636-.328-.2-.752-.36-1.272-.48s-1.06-.18-1.62-.18c-.96 0-1.728.172-2.304.516-.576.344-.992.772-1.248 1.284a3.454 3.454 0 00-.384 1.56c0 .656.14 1.18.42 1.572.28.392.644.696 1.092.912.448.216.92.396 1.416.54.496.144.968.292 1.416.444.448.152.816.36 1.104.624.288.264.432.644.432 1.14 0 .384-.168.732-.504 1.044-.336.312-.928.468-1.776.468-.72 0-1.272-.096-1.656-.288a4.922 4.922 0 01-.912-.564c-.224-.184-.432-.276-.624-.276a.482.482 0 00-.348.156 1.269 1.269 0 00-.252.36.927.927 0 00-.096.396c0 .272.168.544.504.816.336.272.8.508 1.392.708.592.2 1.272.3 2.04.3z"/></g></svg>

