<svg width="91" height="120" viewBox="0 0 71 100" xmlns="http://www.w3.org/2000/svg"><g transform="translate(1)" fill="none" fill-rule="evenodd"><path d="M68.8 39.64H54.388V29.58S71.724 14.453 68.8 8.86H54.388V5.404A5.407 5.407 0 0 0 48.98 0H20.152a5.407 5.407 0 0 0-5.406 5.405V8.86H.332c-2.923 5.593 14.414 20.72 14.414 20.72v10.06H.332c-2.923 5.593 14.414 20.72 14.414 20.72v10.06H.332c-2.923 5.594 14.414 20.72 14.414 20.72v3.455A5.407 5.407 0 0 0 20.152 100H48.98a5.407 5.407 0 0 0 5.406-5.405V91.14S71.723 76.015 68.8 70.42H54.387V60.36S71.724 45.233 68.8 39.64zM50.935 80.77c0 9.04-7.326 16.368-16.367 16.368-9.04 0-16.367-7.328-16.367-16.367V19.23c0-9.04 7.326-16.368 16.367-16.368 9.04 0 16.367 7.33 16.367 16.368v61.54z" fill="#000"/><circle fill="#000" cx="34.627" cy="80.465" r="11.111"/><circle fill="#FFDB00" cx="34.627" cy="50.06" r="11.111"/><circle fill="#000" cx="34.627" cy="19.654" r="11.111"/></g></svg>
