<svg width="82" height="19" viewBox="0 0 82 19" xmlns="http://www.w3.org/2000/svg"><g fill-rule="nonzero" fill="#FFF"><path d="M18.16 7.124c.225 1.226.311 4.309.311 7.333 0 2.626-4.607 4.34-9.17 4.34-4.565 0-9.17-1.714-9.17-4.34 0-3.024.084-6.107.312-7.333.21-1.146 5.039-1.992 8.2-2.1V2.825a1.379 1.379 0 0 1-.816-1.262c0-.761.609-1.379 1.358-1.379.752 0 1.36.618 1.36 1.379 0 .566-.336 1.051-.816 1.262v2.19c3.15.076 8.214.934 8.43 2.108zm-12.992 3.78c1.124 0 2.038.926 2.038 2.068 0 1.14-.914 2.069-2.038 2.069-1.122 0-2.036-.928-2.036-2.07 0-1.14.914-2.068 2.036-2.068zm.68 3.446c.375 0 .68-.31.68-.687 0-.381-.305-.691-.68-.691-.375 0-.68.31-.68.69 0 .378.305.688.68.688zm-3.735-1.378c0 1.713 1.368 3.102 3.055 3.102 1.689 0 3.057-1.389 3.057-3.102 0-1.714-1.368-3.103-3.057-3.103-1.687 0-3.055 1.39-3.055 3.103zm9.536 4.545a.556.556 0 0 0 .219-.746.538.538 0 0 0-.737-.222c-.008.002-.726.38-1.836.38-1.1 0-1.805-.371-1.823-.38a.537.537 0 0 0-.735.218.556.556 0 0 0 .214.75c.038.022.941.515 2.344.515 1.4 0 2.314-.493 2.354-.515zm1.798-6.614c1.124 0 2.038.927 2.038 2.069 0 1.14-.914 2.069-2.038 2.069-1.123 0-2.036-.928-2.036-2.07 0-1.14.913-2.068 2.036-2.068zm.68 3.447c.375 0 .68-.31.68-.687 0-.381-.305-.691-.68-.691-.375 0-.68.31-.68.69 0 .378.305.688.68.688zm-.695 1.724c1.69 0 3.058-1.389 3.058-3.102 0-1.714-1.369-3.103-3.058-3.103-1.688 0-3.057 1.39-3.057 3.103 0 1.713 1.369 3.102 3.057 3.102zM29.118 7.948H26.64v6.37h-1.239v-6.37h-2.477V6.774h6.194v1.174M32.732 9.624H31.08c-.279 0-.413.168-.413.503v4.191h-1.24v-4.191c0-1.143.527-1.677 1.653-1.677h1.652v1.174M37.584 11.51l-2.479.629c-.371.094-.412.22-.412.503 0 .335.134.503.412.503h2.066c.278 0 .412-.168.412-.503V11.51zm1.239-1.383v2.514c0 1.141-.527 1.676-1.652 1.676h-2.065c-1.125 0-1.652-.535-1.652-1.676 0-.503.165-.849.527-1.058.371-.22.588-.294 1.125-.43l2.478-.628v-.398c0-.335-.135-.503-.413-.503h-2.065c-.278 0-.413.168-.413.503v.42h-1.239v-.42c0-1.142.527-1.676 1.652-1.676h2.065c1.125 0 1.652.533 1.652 1.676zM44.14 10.127c0-.335-.135-.503-.413-.503h-2.065c-.28 0-.413.168-.413.503v4.191H40.01v-4.191c0-1.143.527-1.677 1.652-1.677h2.065c1.125 0 1.652.534 1.652 1.677v4.191h-1.24v-4.191M50.231 14.318h-2.066c-1.125 0-1.65-.534-1.65-1.676v-.42h1.238v.42c0 .335.134.503.412.503h2.066c.279 0 .413-.168.413-.503 0-.241 0-.357-.413-.503l-2.066-.525c-.536-.136-.753-.209-1.125-.418-.361-.22-.526-.566-.526-1.069 0-1.143.526-1.677 1.651-1.677h2.066c1.125 0 1.651.534 1.651 1.677v.419h-1.238v-.419c0-.335-.134-.503-.412-.503h-2.066c-.279 0-.412.168-.412.503 0 .24 0 .356.412.503l2.066.523c.536.138.753.21 1.115.43.371.21.536.556.536 1.059 0 1.142-.527 1.676-1.652 1.676M54.464 13.144h1.032v1.173h-1.032c-1.033 0-1.445-.419-1.445-1.467V6.774h1.238v6.077c0 .21.031.293.207.293M60.4 10.127c0-.335-.135-.503-.413-.503h-2.065c-.28 0-.412.168-.412.503v2.514c0 .335.134.503.412.503h2.065c.28 0 .413-.168.413-.503v-2.514zm1.24 0v2.514c0 1.141-.507 1.676-1.653 1.676h-2.065c-1.146 0-1.651-.535-1.651-1.676v-2.514c0-1.143.506-1.677 1.651-1.677h2.065c1.147 0 1.652.534 1.652 1.677zM66.853 11.51l-2.478.629c-.372.094-.413.22-.413.503 0 .335.134.503.413.503h2.065c.279 0 .413-.168.413-.503V11.51zm1.238-1.383v2.514c0 1.141-.525 1.676-1.65 1.676h-2.065c-1.126 0-1.653-.535-1.653-1.676 0-.503.166-.849.527-1.058.371-.22.588-.294 1.126-.43l2.477-.628v-.398c0-.335-.134-.503-.413-.503h-2.064c-.28 0-.414.168-.414.503v.42h-1.239v-.42c0-1.142.527-1.676 1.653-1.676h2.064c1.125 0 1.651.533 1.651 1.676zM73.357 12.642V9.624h-2.478c-.28 0-.413.168-.413.503v2.514c0 .336.134.503.413.503h2.065c.279 0 .413-.167.413-.502zm1.239-5.868v5.868c0 1.142-.506 1.676-1.652 1.676H70.88c-1.146 0-1.651-.534-1.651-1.676v-2.515c0-1.142.505-1.676 1.651-1.676h2.478V6.774h1.239zM77.31 5.035c-.473-.496-1.236-.496-1.725 0a1.256 1.256 0 0 0 0 1.75c.077.075.162.134.25.186v7.346h1.238v-7.35a1.228 1.228 0 0 0 .236-1.932M81.616 13.144v1.173h-1.858c-1.032 0-1.445-.419-1.445-1.467V6.774h1.239V8.45h1.858v1.174h-1.858v3.226c0 .21.032.294.206.294h1.858"/></g></svg>