<svg xmlns="http://www.w3.org/2000/svg" xmlns:xlink="http://www.w3.org/1999/xlink" viewBox="0 0 548.69 398.68"><defs><linearGradient id="a" x1="8.04" y1="202.19" x2="538.15" y2="196.31" gradientUnits="userSpaceOnUse"><stop offset="0" stop-opacity="0"/><stop offset="0.12" stop-opacity="0.24"/><stop offset="0.25" stop-opacity="0.38"/><stop offset="0.5" stop-opacity="0.35"/><stop offset="0.8" stop-opacity="0.05"/><stop offset="0.9" stop-opacity="0"/><stop offset="1" stop-opacity="0.08"/></linearGradient></defs><path d="M0,20.54c168.49-71.15,367.35,71.17,536.08,0a1273.36,1273.36,0,0,1,12.61,178.8c-178.82,71.7-357.51-71.7-536.08,0A1273.36,1273.36,0,0,0,0,20.54Z" fill="#005bbb"/><path d="M12.61,199.34c178.57-71.7,357.27,71.7,536.08,0a1274.87,1274.87,0,0,1-12.61,178.8C347.18,449.29,188.66,307,0,378.14A1273.36,1273.36,0,0,0,12.61,199.34Z" fill="#ffd500"/><path d="M536.08,20.54C367.35,91.71,168.49-50.61,0,20.54a1273.36,1273.36,0,0,1,12.61,178.8A1273.36,1273.36,0,0,1,0,378.14c188.66-71.18,347.18,71.15,536.08,0a1274.87,1274.87,0,0,0,12.61-178.8A1273.36,1273.36,0,0,0,536.08,20.54Z" fill="url(#a)"/></svg>