<svg xmlns="http://www.w3.org/2000/svg" viewBox="0 0 316.92 478.17"><path d="M141.68 131.5S0 201.72 0 404.84c0 2.38 20.33-12 37.67-12s16.43 21.13 48.76 21.13 17.9-14.47 53.57-14.47 26-5.67 51-5.67 14.18 11.89 40.18 11.89 35.83-14.5 45.5-14.5c19.85 0 26 5.5 26 5.5 0-65.45-56.5-158.83-56.5-167.17" fill="#e02d79"/><path d="M304.92 185.09c0-.33-3.67-1.67-8.33-1.67s-1-2.67-8-2.67a6 6 0 0 0-4.91 2.67h-5.42c-2.33 0-5.58 7.17-5.58 9.5 0 4.5 11.92 13.83 11.92 19.17s-10.92 12.25-13.92 12.25c0 0-1.93-10.92-2.67-14-5.25-22-10.82-50.45-30.33-50.45-1.28 0-2-11.22-2-16.22a28.11 28.11 0 0 0 8.75 1.92c4 0 21.75-5.58 21.75-20.92 0 0 2.83.33 4.5.33s2.67-.33 2.67-2-7-14.33-7-18.67a34 34 0 0 1 1-8s19 1.33 19-13.33-4.67-14.5-4.67-14.5 1-7.83-2.67-7.83-5.3.83-7.17.83c-2.21 0-4 .17-4 .17s-5.33-11.17-10.5-11.17c-3 0-1.67-9.92-10.67-9.92-7 0-8 .92-14 .92s-14 .5-19 .5c-9.87 0-38.72 28.72-40.86 39.19.76-6.15 4.51-35.53 7.2-35.53 2.17 0 15.35-13.21 15.35-36.77 0-4.12-9.94-3.81-9.94-3.81s-2-4.56-9-5a9.88 9.88 0 0 0-6.08 1.25 26.14 26.14 0 0 0-8-1.33c-4.33 0-8.67 10.33-8.67 34.33 0 0-10 36.5-10.5 47s-3 46.5-3 50.13 3 18.87 2.49 24.37-3.5 24-3.5 29.5c0 8-10.25 36-10.25 61 0 30.71-.51 51.7 2.24 65a8.29 8.29 0 0 0-.24 2.24c0 10.25-23.5 32.63-36.5 32.63s-26.73-13.86-26.73-24.36c0-13.62-5.8-21.3-5.8-21.3s-8.2 7.93-8.2 23.18c0 25.75 20.5 40 40.5 40 18.69 0 40.18-18.25 42.49-20.62v28.24c0 10 12.17 54.83 12.17 57.17 0 0-1.33 36.33-1.33 39.67s4 7.33 7.67 7.33a18.72 18.72 0 0 1 4.33.67s2 2 6.33 2 8-4 8-4 9.33 1 9.33-9.33c0-1.5 1.33-9 1.33-13.67s-1.67-15.33-1.67-15.33 3.33-12 3.33-18.33-4.33-9.67-10-9.67c0 0-2.5-8.17-2.5-14.5s18.33-65.33 21.33-65.33c6.17 0 29.51 39.22 29.51 39.22s-12.52 24.45-14.51 24.45c0 0-8.67.67-8.67 6.33s2 49 13 49l5 .67a8.5 8.5 0 0 0 5.33 2.33c4.5 0 7.33-1.33 7.33-4 0-.78 1-2.43 1.66-2.43 3.84 0 6.34-4.66 6.34-8.91 0-6-6.33-20-6.33-25s29.85-19.12 29.85-29.45-21.18-66.22-21.18-70.88 4.67-22 4.67-34.33v-19.3s12.33 11 22.33 11 47.6-44.3 47.6-57-12-24.3-12-24.63z" fill="#231f20"/><path d="M273 86.84s-2.67 7.17-12.17 7.17-12.67-1.67-16.5-1.67-9 2.33-11 2.33-3.33-1.17-4.67-1.17 3.17 17.33 7.17 17.33c0 0 3.83-3.33 13.83-3.33 4.17 0 5.33 2.33 5.33 2.33a24.57 24.57 0 0 1 4.33-.83c2 0-1.33-3.33-1.33-6s6-8.33 9.67-8.33c2.67 0 11.67-1.33 11.67-3.67s-6.33-.83-6.33-4.16z" fill="#fff"/><ellipse cx="177.33" cy="10.08" rx="3.77" ry="5.75" fill="#fff"/><ellipse cx="521.82" cy="74.95" rx="3.17" ry="4.83" transform="rotate(-10.99 15.144 1890.066)" fill="#fff"/><ellipse cx="542.65" cy="79.12" rx="4.83" ry="3.17" transform="rotate(-72.69 321.957 288.95)" fill="#fff"/><ellipse cx="644.82" cy="257.7" rx="2.42" ry="5.17" transform="rotate(-23.98 318.06 1062.583)" fill="#fff"/><ellipse cx="654.45" cy="257.95" rx="2.21" ry="4.73" transform="rotate(-17.06 265.648 1410.76)" fill="#fff"/><ellipse cx="637.76" cy="260.75" rx="2.19" ry="4.69" transform="matrix(.8 -.58 .58 .8 -387.62 357.95)" fill="#fff"/><path d="M288.79 219.22a11.9 11.9 0 0 0-4.78.66c-3.45 3.67-13.82 9.58-15.83 9.58 0 0-2.43-14.67-3.17-17.75-5.25-22-12.16-45.5-21.83-47.17l-8.67-1.5-1.33-6.67c-2 6-16.29 6.89-19 6.67 0 0-26.67-2-26.67-24.67 0-1.5-7.18-2.72-7.18-2.72l-8-10.33-.33-12s-3.82-8.95-3.82-16.95 3.51-41.35 5.83-49.33c-6.67-4.33-10.4-4.79-17.83-4-3 11.49-8.16 31.62-8.5 38.83-.5 10.5-1.75 46.58-1.75 52.33s2.75 16.75 2.25 22.25-3 24.23-3 29.75c0 8-11.25 35.25-11.25 60.25 0 30.71-.75 51.68 2 65-.13.44 4.76 28 5 27.75 0 9.76-.25 26.41-.25 32.17 0 8.86 8.16 41.57 10.33 51.33 0 2.94 4 5.5 9.5 5.5 7.53 0 12.67-8.65 12.67-17.67 0 0-3.33-13-3.33-19.33 0-5.19 20-62.67 20.71-64.84 1.45-4.43 9.17-16.27 9.62-17.16.7-1.35-1.67 7.5-1.67 14.33 0 0 31.33 38.5 31.33 44.33 0 .83-13.2 22.23-15.67 26 0 6.67 5.67 14.33 16.83 14.33 2.2-5.07 29.33-18.5 29.33-28.83s-22-65.83-22-70.5 5.17-21.67 5.17-34-.82-27.64-.82-27.64.16-50.78.17-52c.14-16.71 3.46 54.61 4.3 55.38 5 4.6 14.36 12.29 21.37 12.29s23.72-17.56 35.33-35c-1.84-4.84-9.72-8.67-15.06-8.67z" fill="#fff"/><path d="M301.42 207.42c0 6.75-3 8.75-6 8.75s-7-3.75-7-9.25 3.25-6 5.25-6 7.75 1.75 7.75 6.5zM176.17 19.59a8.78 8.78 0 0 1 6 8.5c0 6.75-8.25 9-10.25 9-3.25 0-4.5-3.5-4.5-9s5.5-8.5 8.75-8.5zM198.92 86.34s-1.07 9.72-1.07 20.22c0 10.76 14.62 14.78 15.65 14.78 0 0-18 .06-18-11.12a79 79 0 0 0-1.33 11.33c0 4.33 1.17 8.83 1.17 11 0 3.17-4 7.67-9.17 7.67-7 0-15.68-11.38-15.68-21.38s2.1-16.17 2-21.17c-.15-7.45.56-15.2.56-17.2 0-.81 6.63-20.65 6.63-17.25 0 5.17-3.5 9.17-3.5 34.17 0 3.67-3 18-3 22.17s5.32 16.62 12.15 16.62c4.17 0 6.33-2.5 6.33-4.5s-1-8.33-1-11.33c.02-4.46 8.26-33.35 8.26-34.01zM259.35 112.39c4.25 0 4 3.75 4 7.5s-.42 20.67-20.17 20.67c-4.5 0-10.77-3.67-10.67-7.17.17-5.67 10.83-2.92 10.83-14.17 0 0 1.17-5.17-3.33-5.17s1.08-3 7.83-3c3.75 0 5 1.67 5 8.67 0 8.5-4.56 11.44-3.43 11.62.85.13 7.6-2.95 7.6-9.95 0-5.67-1-9 2.34-9z" fill="#fff"/><path d="M198.92 86.34s10.75-10 16.25-10c1.5 0 6-.5 8.75-.5 4.5 0 14.75-3.62 14.75-6a16.76 16.76 0 0 1 9.75-3.25c4.88 0 9.25 2.5 9.25.25 0-1 .5-3.75 4.5-3.75s2.75-3 2.75-3-5.25-7.75-9.25-7.75-7 3.5-11.5 3.5c-13.5 0-9.75-2.75-24-2.75-3.5 0-14.25 10-14.75 13.5 0 0-12 4.75-12 8.75l4 6.75z" fill="#e02d79"/><path d="M217.42 67.34s3.5-4 6.5-4a17.52 17.52 0 0 1 8 2.25 8.23 8.23 0 0 0-8-5c-6.24 0-6.5 6.75-6.5 6.75zM253.92 61.84a4.48 4.48 0 0 1 3.5-2.25 6.84 6.84 0 0 1 4 1.5s-1.5-4-4.25-4-3.25 4.75-3.25 4.75z" fill="#231f20"/><g fill="#e02d79"><path d="M214.38 190.28l-41.24 48.19 21.04 3.75-2.75 26.3 27.33 3.58 3.27-25.88 12.23 1.29 4.61.6-24.49-57.83z"/><path d="M219.19 272.66l-28.31-3.71 2.8-26.31-21.44-3.82 42.33-49.47.31.74 24.8 58.63-5.48-.72-11.73-1.24zm-27.21-4.58l26.34 3.45 3.27-25.81 12.72 1.34 3.76.49-23.84-56.33-40.14 46.91 20.59 3.69z"/></g><path d="M259 69.17c0 3.5 7.33 8.83 13.33 8.83S280 68.67 280 66.33s-1.33-3.67-3-3.67-5.5 1.38-7.17 1.33c-6.33-.15-10.83.35-10.83 5.18z" fill="#fff"/></svg>