<svg width="54" height="54" viewBox="0 0 54 54" xmlns="http://www.w3.org/2000/svg"><g fill="#FFFFFE" fill-rule="nonzero"><path d="M52.518 20.13c.656 3.56.908 12.505.908 21.278C53.426 49.028 40.005 54 26.713 54 13.414 54 0 49.027 0 41.408c0-8.773.245-17.719.908-21.277.613-3.323 14.678-5.778 23.885-6.094V7.662A3.999 3.999 0 0122.419 4C22.419 1.792 24.192 0 26.376 0c2.189 0 3.962 1.792 3.962 4 0 1.642-.981 3.05-2.38 3.662v6.356c9.176.217 23.928 2.709 24.56 6.113zM33.552 50.287c.767-.415 1.048-1.388.638-2.163a1.571 1.571 0 00-2.147-.645c-.024.006-2.116 1.103-5.349 1.103-3.202 0-5.256-1.078-5.311-1.103a1.57 1.57 0 00-2.141.633 1.61 1.61 0 00.625 2.175c.11.062 2.742 1.494 6.827 1.494 4.08 0 6.742-1.432 6.858-1.494zM5.772 37.1c0 4.973 3.987 9.002 8.9 9.002 4.92 0 8.907-4.03 8.907-9.002 0-4.971-3.987-9.002-8.907-9.002-4.913 0-8.9 4.03-8.9 9.002zm32.975 9.002c4.92 0 8.907-4.03 8.907-9.002 0-4.971-3.987-9.002-8.907-9.002s-8.906 4.03-8.906 9.002c0 4.973 3.987 9.002 8.906 9.002z"/><path d="M16.653 41.099a1.994 1.994 0 01-1.98-1.997c0-1.104.89-2.003 1.98-2.003 1.093 0 1.982.899 1.982 2.003a1.993 1.993 0 01-1.982 1.997zm-1.98-10c-3.27 0-5.932 2.69-5.932 6 0 3.311 2.662 6.002 5.931 6.002 3.275 0 5.938-2.691 5.938-6.002 0-3.31-2.663-6-5.938-6zM40.724 41.099c-1.09 0-1.98-.9-1.98-1.997 0-1.104.89-2.003 1.98-2.003 1.092 0 1.98.899 1.98 2.003a1.993 1.993 0 01-1.98 1.997zm-1.98-10c-3.268 0-5.929 2.69-5.929 6 0 3.311 2.66 6.002 5.929 6.002 3.274 0 5.936-2.691 5.936-6.002 0-3.31-2.662-6-5.936-6z"/></g></svg>