<svg width="101" height="58" viewBox="0 0 101 58" xmlns="http://www.w3.org/2000/svg"><g fill="none" fill-rule="evenodd"><path d="M17.582.3L.915 41.713l32.94 13.295L17.582.3zm83.333 41.414L67.975 55.01 84.25.3l16.665 41.414zm-48.998 5.403L63.443 35.59H38.386l11.527 11.526v5.905l-3.063 3.32 1.474 1.36 2.59-2.806 2.59 2.807 1.475-1.357-3.064-3.32v-5.906zm16.06-26.702c-3.973 0-7.194-3.22-7.194-7.193 0-3.973 3.222-7.193 7.193-7.193 3.974 0 7.193 3.22 7.193 7.19 0 3.974-3.22 7.194-7.195 7.194zM70.48 8.682c-.737 0-1.336.6-1.336 1.337 0 .736.6 1.335 1.337 1.335.738 0 1.338-.598 1.338-1.336 0-.74-.6-1.338-1.338-1.338zM33.855 20.415c-3.973 0-7.193-3.22-7.193-7.193 0-3.973 3.22-7.193 7.195-7.193 3.973 0 7.192 3.22 7.192 7.19 0 3.974-3.22 7.194-7.192 7.194zM36.36 8.682c-.737 0-1.336.6-1.336 1.337 0 .736.6 1.335 1.337 1.335.738 0 1.338-.598 1.338-1.336 0-.74-.598-1.338-1.337-1.338z" fill="#000"/></g></svg>